<svg width="121" height="160" viewBox="0 0 121 160" fill="none" xmlns="http://www.w3.org/2000/svg">
<g clip-path="url(#clip0_1_307)">
<path fill-rule="evenodd" clip-rule="evenodd" d="M12.3142 -0.145451C8.55855 0.659245 6.18885 1.92466 3.9723 4.30925C2.35862 6.04512 1.53562 7.52332 0.808934 9.98951C0.353898 11.5336 0.30677 18.1187 0.30677 79.998C0.30677 154.223 0.20194 149.52 1.92946 152.933C3.37565 155.79 7.16974 158.827 10.4429 159.747C12.769 160.401 108.231 160.401 110.557 159.747C113.83 158.827 117.624 155.79 119.071 152.933C120.798 149.52 120.693 154.223 120.693 79.998C120.693 5.80283 120.797 10.4735 119.077 7.07672C117.724 4.40215 114.249 1.47555 111.087 0.346343C109.745 -0.132583 105.535 -0.181229 61.2798 -0.227992C34.6918 -0.255924 12.6573 -0.21889 12.3142 -0.145451ZM100.41 23.916C101.028 24.1301 101.796 24.7477 102.203 25.3572C102.9 26.3998 102.916 26.6057 102.916 34.5672C102.916 41.6796 102.849 42.8254 102.384 43.6172C101.23 45.5835 103.632 45.4752 61.1238 45.4752C18.6161 45.4752 21.018 45.5835 19.8637 43.6172C19.399 42.8254 19.3316 41.6796 19.3316 34.5672C19.3316 26.6057 19.3475 26.3998 20.0442 25.3572C20.4512 24.7477 21.22 24.1301 21.8375 23.916C23.3963 23.3759 98.8513 23.3759 100.41 23.916ZM33.8709 63.8545C35.8189 65.3199 36.0085 65.8738 36.1189 70.4267C36.2078 74.0852 36.1408 74.803 35.5944 76.0458C34.5009 78.533 33.8503 78.7405 27.1286 78.7405C20.6858 78.7405 19.9788 78.5499 18.6941 76.4701C18.1199 75.5408 18.0704 75.012 18.1511 70.6828C18.2503 65.3641 18.4471 64.7935 20.5891 63.6198C21.5566 63.0897 22.2683 63.0366 27.3407 63.1173C32.5017 63.1992 33.0881 63.2654 33.8709 63.8545ZM67.0576 63.6822C69.1073 64.7345 69.5447 66.015 69.544 70.9625C69.5437 75.7012 69.2056 76.8119 67.3933 78.0302C66.3859 78.7075 66.0456 78.7427 60.5 78.7427C54.9545 78.7427 54.6142 78.7075 53.6068 78.0302C51.7945 76.8119 51.4564 75.7012 51.4561 70.9625C51.4555 66.0743 51.8968 64.7493 53.876 63.6976C54.9033 63.1518 55.684 63.0765 60.4346 63.0643C65.2401 63.052 65.9608 63.1192 67.0576 63.6822ZM100.416 63.6314C102.549 64.7829 102.75 65.3644 102.849 70.6828C102.93 75.012 102.88 75.5408 102.306 76.4701C101.021 78.5499 100.314 78.7405 93.8715 78.7405C88.6343 78.7405 88.0065 78.6818 87.0699 78.1074C85.3483 77.051 84.8415 75.4394 84.8337 70.9954C84.8265 66.9744 85.0576 65.8804 86.1732 64.6583C87.4438 63.2658 88.3792 63.0759 94.0324 63.0627C98.6168 63.052 99.4856 63.1295 100.416 63.6314ZM33.9333 94.1304C35.7631 95.2533 36.2378 96.9199 36.1189 101.809C36.0064 106.447 35.7921 107.034 33.6813 108.479C32.7085 109.146 32.3405 109.186 27.1605 109.185C21.1153 109.185 20.1671 108.957 18.8859 107.202C18.3108 106.414 18.2304 105.795 18.1511 101.553C18.0704 97.224 18.1199 96.6952 18.6941 95.7659C19.9788 93.686 20.6858 93.4955 27.1286 93.4955C32.3714 93.4955 32.993 93.5536 33.9333 94.1304ZM67.3933 94.2057C69.2137 95.4294 69.5443 96.5282 69.539 101.339C69.535 105.145 69.4635 105.701 68.8379 106.799C67.6184 108.939 66.7577 109.186 60.5 109.186C54.2424 109.186 53.3817 108.939 52.1622 106.799C51.5366 105.701 51.4652 105.145 51.4611 101.339C51.4558 96.5282 51.7864 95.4294 53.6068 94.2057C54.6142 93.5285 54.9545 93.4933 60.5 93.4933C66.0456 93.4933 66.3859 93.5285 67.3933 94.2057ZM100.658 94.1194C102.702 95.3739 102.948 96.2087 102.849 101.553C102.77 105.795 102.689 106.414 102.114 107.202C100.833 108.957 99.8848 109.185 93.8396 109.185C88.6596 109.186 88.2916 109.146 87.3188 108.479C85.208 107.034 84.9938 106.447 84.8812 101.809C84.7923 98.1508 84.8593 97.433 85.4057 96.1902C86.4992 93.703 87.1498 93.4955 93.8715 93.4955C99.0799 93.4955 99.7402 93.5564 100.658 94.1194ZM33.8709 124.426C35.8308 125.901 36.0086 126.431 36.118 131.131C36.2347 136.142 35.9627 137.157 34.1257 138.567L32.9474 139.471H27.1533C20.8271 139.471 20.2414 139.331 18.8638 137.484C18.3161 136.749 18.2288 136.073 18.1492 131.939C18.0426 126.413 18.3239 125.542 20.6119 124.316C21.9243 123.613 22.2168 123.586 27.4966 123.68C32.4914 123.77 33.0915 123.84 33.8709 124.426ZM100.417 124.336C102.672 125.536 102.957 126.427 102.851 131.939C102.751 137.113 102.569 137.67 100.577 138.896C99.6921 139.44 98.4159 139.471 77.1305 139.471C54.8815 139.471 54.6098 139.464 53.7587 138.824C51.8341 137.378 51.6202 136.778 51.5069 132.5C51.4496 130.33 51.4917 128.077 51.6005 127.494C51.8547 126.13 53.4256 124.332 54.6841 123.965C55.2293 123.806 65.3174 123.666 77.3707 123.651L99.0752 123.622L100.417 124.336Z" fill="white"/>
</g>
<defs>
<clipPath id="clip0_1_307">
<rect width="121" height="160" fill="white"/>
</clipPath>
</defs>
</svg>
