<svg width="45" height="45" viewBox="0 0 45 45" fill="none" xmlns="http://www.w3.org/2000/svg">
<g clip-path="url(#clip0_1_92)">
<path fill-rule="evenodd" clip-rule="evenodd" d="M3.52922 0.309897C2.01392 0.851234 0.881345 2.00698 0.327311 3.57797C0.0468402 4.3726 -0.00194692 7.20136 5.80349e-05 22.5838L0.00228576 40.656L0.526692 41.7823C1.13998 43.0995 2.5312 44.3754 3.75333 44.7414C4.37776 44.9285 9.59931 44.9994 22.6351 44.9978L40.6538 44.9956L41.7801 44.4712C43.0974 43.8579 44.3732 42.4667 44.7392 41.2445C44.9263 40.6203 44.9978 35.3881 44.9978 22.3427V4.30376L44.3351 2.9776C43.6182 1.54294 42.8238 0.824724 41.3972 0.321259C40.1147 -0.131192 4.79367 -0.141885 3.52922 0.309897ZM41.3729 3.62497L41.9904 4.24272L42.0499 22.1743C42.1022 37.9348 42.0682 40.1861 41.7679 40.7671C41.0476 42.1599 41.8534 42.104 22.4533 42.1031C5.18998 42.1024 4.77073 42.0922 4.05786 41.6575C3.65664 41.4129 3.22892 40.9509 3.10729 40.6312C2.96583 40.2592 2.90768 33.6066 2.94578 22.1645C3.00414 4.63614 3.01417 4.26945 3.4508 3.78425C3.69585 3.5118 4.09684 3.20594 4.34189 3.10458C4.58694 3.00321 12.8801 2.93995 22.7714 2.96378L40.7551 3.00745L41.3729 3.62497ZM33.965 6.02824C33.0869 6.28376 31.9755 7.47114 31.6455 8.50658C31.0937 10.2373 32.3571 12.3964 34.2139 12.8963C35.4799 13.2371 36.6713 12.8535 37.702 11.7729C38.4907 10.9462 38.5374 10.8165 38.5374 9.45915C38.5374 8.12118 38.4817 7.95945 37.7359 7.13386C36.6648 5.94849 35.4569 5.59428 33.965 6.02824ZM35.737 8.81534C35.9294 9.00804 36.0869 9.27581 36.0869 9.41059C36.0869 9.73027 35.4139 10.4703 35.1232 10.4703C34.7891 10.4703 34.082 9.77705 34.082 9.44913C34.082 9.07465 34.7029 8.46537 35.0845 8.46537C35.2507 8.46537 35.5443 8.62287 35.737 8.81534ZM19.4403 10.5904C16.346 11.4238 13.1681 13.9309 11.725 16.6772C9.12637 21.6225 9.98961 27.2032 13.9596 31.122C18.9014 36 26.1658 35.974 31.1042 31.0607C33.5571 28.62 34.7537 25.7503 34.7476 22.322C34.7381 16.9459 30.6535 11.8352 25.3709 10.5899C23.6086 10.1747 20.9834 10.1747 19.4403 10.5904ZM25.5082 13.3672C28.1906 14.2902 30.1512 16.0764 31.376 18.7129C31.8748 19.7864 31.9465 20.2416 31.9554 22.3886C31.965 24.6943 31.9235 24.9282 31.2526 26.3448C30.2619 28.436 28.6114 30.1137 26.536 31.1396C24.9205 31.938 24.7748 31.9678 22.4978 31.9678C20.2175 31.9678 20.077 31.9389 18.4469 31.1333C16.2912 30.0678 14.3076 28.0323 13.576 26.135C12.828 24.1944 12.7346 21.4608 13.3539 19.6292C14.439 16.4201 16.6456 14.1877 19.6655 13.2441C21.1374 12.784 23.9875 12.8442 25.5082 13.3672Z" fill="white"/>
</g>
<defs>
<clipPath id="clip0_1_92">
<rect width="45" height="45" fill="white"/>
</clipPath>
</defs>
</svg>
