<svg width="45" height="45" viewBox="0 0 45 45" fill="none" xmlns="http://www.w3.org/2000/svg">
<g clip-path="url(#clip0_1_103)">
<path fill-rule="evenodd" clip-rule="evenodd" d="M20.8976 0.0220469C20.7284 0.0419102 20.2142 0.0988633 19.755 0.148697C14.9562 0.669361 10.2873 2.9271 6.71554 6.45432C-0.37635 13.4576 -2.03845 24.2614 2.62617 33.0356L3.04655 33.8262L1.8646 38.2395C1.21456 40.667 0.682731 42.7828 0.682731 42.9413C0.682731 43.3355 0.915287 43.7934 1.22897 44.0168C1.76044 44.3952 1.91662 44.3688 6.66773 43.0965L11.1083 41.9073L12.2143 42.4707C21.0117 46.952 31.5666 45.2506 38.4954 38.2342C42.0226 34.6623 44.1476 30.2809 44.8197 25.1947C44.9619 24.1178 44.9619 20.8224 44.8197 19.7455C44.4041 16.6 43.3856 13.6134 41.8522 11.0434C39.8846 7.74552 37.2042 5.06512 33.9064 3.09752C31.3625 1.57973 28.3291 0.539723 25.2921 0.144039C24.5213 0.043668 21.4425 -0.0418496 20.8976 0.0220469ZM25.2631 2.91822C28.2812 3.36488 30.9003 4.35857 33.378 5.99703C35.5612 7.44063 37.513 9.39224 38.9531 11.5717C41.1406 14.8821 42.2009 18.44 42.2009 22.4701C42.2009 26.8086 40.8997 30.8078 38.3943 34.1696C35.2059 38.4478 30.7246 41.1672 25.4239 42.0402C23.9366 42.2851 20.7932 42.2623 19.3155 41.9958C16.785 41.5394 14.7309 40.7962 12.504 39.5312C11.9691 39.2273 11.6134 39.0818 11.4054 39.0816C11.2362 39.0815 9.52488 39.5025 7.60236 40.0172C5.67993 40.5319 4.08217 40.9282 4.05184 40.8979C4.02152 40.8675 4.41782 39.2698 4.93251 37.3474C5.4472 35.4248 5.86828 33.727 5.86828 33.5743C5.86828 33.4108 5.70384 32.9951 5.46855 32.5636C4.06977 29.9984 3.33219 27.9363 2.91155 25.4144C2.68479 24.0549 2.68514 20.7975 2.91225 19.4818C3.49839 16.0856 4.71436 13.2289 6.69085 10.6049C10.1434 6.02102 15.2842 3.2217 21.1173 2.74912C21.9523 2.68144 24.3145 2.77786 25.2631 2.91822ZM14.8112 10.429C13.901 10.703 12.4116 11.9271 11.7167 12.9724C10.7555 14.4182 10.3369 15.9867 10.3431 18.1195C10.3665 26.2178 18.731 34.5821 26.8302 34.6065C28.9641 34.6129 30.5313 34.1944 31.9801 33.2312C32.768 32.7074 33.775 31.6117 34.209 30.8062C34.5202 30.2285 34.5601 30.083 34.5909 29.4137C34.6193 28.7978 34.5908 28.5737 34.4284 28.139C34.2526 27.6686 34.0598 27.4379 32.6402 25.9996C30.6616 23.9953 30.4082 23.8378 29.1593 23.8376C28.4256 23.8375 28.2699 23.8659 27.8755 24.0718C27.2248 24.4113 26.9176 24.6988 26.3696 25.481C26.1014 25.8636 25.8275 26.1977 25.7607 26.2233C25.6939 26.249 25.3125 26.1879 24.913 26.0878C22.1547 25.3959 20.2981 23.8442 19.303 21.3991C18.9955 20.6433 18.6607 19.3603 18.7264 19.1891C18.752 19.1223 19.0861 18.8483 19.4687 18.5802C20.2509 18.0321 20.5384 17.7249 20.8779 17.0742C21.0838 16.6798 21.1122 16.5241 21.1121 15.7904C21.1119 14.5415 20.9544 14.2881 18.9501 12.3095C17.5295 10.9073 17.2775 10.6958 16.8293 10.5297C16.297 10.3324 15.2979 10.2826 14.8112 10.429ZM17.1501 14.372C18.0521 15.2756 18.4446 15.7279 18.4232 15.8391C18.4061 15.9276 17.898 16.3464 17.2938 16.7699C15.9724 17.6961 15.7547 17.9974 15.8418 18.7787C16.0654 20.7843 16.8827 23.0669 17.9288 24.608C18.4012 25.304 19.3099 26.2526 20.0105 26.7811C21.53 27.9277 24.0196 28.8679 26.171 29.108C26.9524 29.1951 27.2536 28.9773 28.1798 27.6559C28.6033 27.0518 29.0221 26.5436 29.1106 26.5265C29.3129 26.4875 31.8839 29.026 31.8839 29.2647C31.8839 29.4796 31.462 30.082 30.9917 30.5384C29.4601 32.0249 26.322 32.3061 23.334 31.2245C21.1561 30.4361 19.2944 29.227 17.5085 27.4412C15.7227 25.6553 14.5136 23.7936 13.7253 21.6157C12.6766 18.7188 12.9185 15.5813 14.3082 14.0533C14.6975 13.6253 15.4679 13.0666 15.6692 13.0662C15.7803 13.066 16.331 13.5516 17.1501 14.372Z" fill="white"/>
</g>
<defs>
<clipPath id="clip0_1_103">
<rect width="45" height="45" fill="white"/>
</clipPath>
</defs>
</svg>
