<svg width="45" height="45" viewBox="0 0 45 45" fill="none" xmlns="http://www.w3.org/2000/svg">
<path fill-rule="evenodd" clip-rule="evenodd" d="M40.1782 3.48938C39.3081 3.77951 30.4883 6.68772 20.5786 9.95206C10.669 13.2163 2.27603 15.9898 1.92772 16.1152C1.1382 16.3995 0.588451 16.8687 0.258861 17.5398C-0.0722231 18.214 -0.0876982 19.2352 0.223874 19.8438C0.479372 20.3428 0.971385 20.864 1.39159 21.0809C1.5701 21.1731 3.87943 22.197 6.52335 23.3562C9.16728 24.5154 11.3439 25.4772 11.3603 25.4936C11.3767 25.51 12.0615 28.6387 12.8822 32.4461C13.7028 36.2536 14.4453 39.5135 14.5321 39.6906C14.8698 40.3788 15.6663 40.6038 16.3599 40.2068C16.5533 40.0962 18.3805 38.7531 20.4203 37.2222L24.1292 34.4387L28.4184 37.9487C30.7775 39.8793 32.8999 41.5639 33.135 41.6925C33.7011 42.0019 34.4707 42.067 35.1678 41.8644C35.8786 41.6577 36.6917 40.8548 36.9074 40.1465C36.9883 39.8807 38.8396 32.0694 41.0212 22.7881C45.3751 4.26528 45.1449 5.41638 44.6792 4.50135C44.2064 3.57208 43.4144 3.05467 42.3755 2.9964C41.811 2.96476 41.6298 3.00545 40.1782 3.48938ZM42.2893 5.84722C42.2555 5.9802 40.471 13.5612 38.3237 22.6939C36.1763 31.8266 34.4003 39.318 34.377 39.3414C34.3537 39.3647 34.2652 39.3236 34.1803 39.2502C34.0953 39.1768 31.0596 36.6926 27.4341 33.7298C23.8086 30.767 20.8109 28.3155 20.7725 28.2819C20.7342 28.2483 23.7994 24.986 27.5841 21.0323C31.3688 17.0785 34.5541 13.7006 34.6627 13.5258C34.7926 13.3167 34.8602 13.0693 34.8604 12.8019C34.8608 12.4555 34.8115 12.34 34.5254 12.0177C34.2122 11.6648 34.155 11.6373 33.6685 11.6058L33.147 11.5721L22.8046 17.3228L12.4621 23.0735L7.53058 20.9168C4.81818 19.7305 2.63138 18.7276 2.67093 18.688C2.74854 18.6104 42.0329 5.62732 42.2312 5.6137C42.3185 5.60772 42.3341 5.67056 42.2893 5.84722ZM26.4234 18.3862C26.4234 18.4063 24.4608 20.4728 22.0622 22.9785C19.6636 25.4842 17.6474 27.6529 17.5818 27.7979C17.5161 27.9429 17.1195 29.2679 16.7005 30.7422C16.2814 32.2166 15.9122 33.4531 15.8799 33.4901C15.8271 33.5506 14.0982 25.7304 14.0817 25.3559C14.0764 25.2372 15.5698 24.3674 20.2271 21.7764C23.6109 19.894 26.3894 18.3528 26.4014 18.3517C26.4134 18.3506 26.4234 18.3661 26.4234 18.3862ZM20.8711 31.7761C21.4671 32.2617 21.9539 32.6859 21.9532 32.7185C21.9508 32.8114 18.1205 35.6623 18.0948 35.5904C18.0821 35.5552 18.3111 34.6971 18.6035 33.6836C19.551 30.3996 19.4724 30.621 19.64 30.7656C19.7212 30.8357 20.2752 31.2904 20.8711 31.7761Z" fill="white"/>
</svg>
