<svg width="45" height="45" viewBox="0 0 45 45" fill="none" xmlns="http://www.w3.org/2000/svg">
<path fill-rule="evenodd" clip-rule="evenodd" d="M4.216 4.58908C2.63564 4.97606 1.35938 6.00043 0.615299 7.47928C-0.0342132 8.76995 0.000327786 7.92831 0.000327786 22.4747C0.000327786 37.0275 -0.0346527 36.1786 0.618111 37.4758C1.26666 38.7646 2.31554 39.6957 3.6942 40.2063L4.34784 40.4484H22.4533H40.5588L41.2071 40.236C42.5633 39.7918 43.7174 38.7856 44.3792 37.4702C45.0287 36.1795 44.9942 37.0212 44.9942 22.4747C44.9942 7.92198 45.0292 8.77083 44.3764 7.47365C43.7282 6.18553 42.6569 5.23552 41.2889 4.73577L40.6467 4.5011L22.673 4.4859C7.86478 4.47342 4.61423 4.49161 4.216 4.58908ZM40.68 7.75121C41.5857 8.2528 42.009 9.09629 42.009 10.3993V11.124L40.9763 11.7875C40.4082 12.1524 39.548 12.7041 39.0646 13.0133C38.5812 13.3226 36.8212 14.4574 35.1535 15.5351C33.4858 16.6128 31.5873 17.8371 30.9348 18.2557C28.6288 19.7351 25.6965 21.624 25.0021 22.0772C24.6154 22.3297 23.8946 22.7991 23.4004 23.1203L22.5018 23.7043L21.4668 23.0348C20.8976 22.6665 20.1747 22.197 19.8605 21.9913C19.5463 21.7857 18.5971 21.1725 17.7512 20.6289C16.9052 20.0853 16.0153 19.512 15.7736 19.3551C14.4389 18.4885 10.3937 15.8809 9.75311 15.4741C9.08251 15.0483 7.9227 14.2996 5.09491 12.4669C4.58734 12.1379 3.90513 11.7006 3.57879 11.4949L2.98553 11.1211V10.3979C2.98553 8.90091 3.54645 7.99203 4.73297 7.56629C4.99032 7.474 8.40601 7.45581 22.6291 7.47084L40.2072 7.48938L40.68 7.75121ZM3.80687 15.2096C5.12901 16.0752 6.26974 16.8143 8.03924 17.9517C11.4508 20.1446 14.7275 22.2547 15.8176 22.9612C16.2768 23.2587 17.226 23.8707 17.9269 24.3211C18.6279 24.7715 19.5771 25.3845 20.0363 25.6834C20.4955 25.9823 21.1086 26.3813 21.3986 26.57C21.8745 26.8797 21.9817 26.9132 22.4973 26.9132H23.0685L24.9582 25.6907C25.9975 25.0184 27.3027 24.1773 27.8586 23.8217C28.4145 23.4661 29.3439 22.8671 29.924 22.4906C30.5041 22.1141 32.1059 21.0798 33.4836 20.1921C34.8613 19.3044 36.6608 18.1448 37.4826 17.6153C38.3044 17.0857 39.2338 16.4839 39.548 16.278C40.7888 15.4649 41.9292 14.7404 41.9681 14.7404C41.9906 14.7404 42.009 19.3606 42.009 25.0076C42.009 36.347 42.0365 35.779 41.4496 36.5476C41.2863 36.7614 40.94 37.0542 40.68 37.1983L40.2072 37.4601H22.4973H4.78729L4.31453 37.1983C4.05446 37.0542 3.70817 36.7614 3.54487 36.5476C2.95802 35.779 2.98553 36.347 2.98553 25.0076C2.98553 19.3606 3.00909 14.7404 3.03783 14.7404C3.06666 14.7404 3.41268 14.9516 3.80687 15.2096Z" fill="white"/>
</svg>
