<svg width="91" height="91" viewBox="0 0 91 91" fill="none" xmlns="http://www.w3.org/2000/svg">
<g clip-path="url(#clip0_1_112)">
<path fill-rule="evenodd" clip-rule="evenodd" d="M49.3028 0.311035C47.5591 1.18709 47.4034 3.65831 49.0248 4.7208C49.2744 4.88432 50.4979 5.24459 51.7438 5.5215C55.5559 6.36858 57.4374 6.99171 60.852 8.53854C65.7431 10.7542 70.0682 13.834 74.1056 17.9762C79.9337 23.9556 83.7557 31.1439 85.5382 39.4784C86.0194 41.7281 86.1384 42.0077 86.8346 42.5258C87.9478 43.3539 89.333 43.2753 90.2363 42.3326C91.0491 41.4843 91.1038 40.931 90.6134 38.5232C87.0488 21.0214 73.8092 6.55236 56.6727 1.43076C54.7207 0.847438 50.9588 -0.000532952 50.3243 2.51335e-07C50.1026 2.51335e-07 49.643 0.140055 49.3028 0.311035ZM14.9734 5.67079C12.6963 6.39933 10.805 7.98347 5.47494 13.6267C1.65685 17.6695 0.610175 19.7059 0.255417 23.7833C-0.248816 29.5793 1.7052 36.9174 6.01419 45.4108C7.83756 49.0049 8.65425 50.3984 10.9627 53.8532C19.6754 66.8932 31.0952 77.2908 44.5893 84.4697C52.2367 88.5382 58.698 90.6275 64.5844 90.9349C68.7459 91.1525 72.4421 89.9887 75.2188 87.587C75.5444 87.3051 77.5866 85.2528 79.7567 83.0261C83.35 79.3396 83.7696 78.8438 84.4535 77.4794C85.7965 74.8 85.8002 72.4104 84.4656 69.6715C83.7479 68.1985 83.5647 67.9958 77.1341 61.5615C70.8922 55.3161 70.4665 54.9279 69.1956 54.3229C66.4739 53.0276 63.6757 53.1531 61.0356 54.6887C60.5925 54.9464 58.5759 56.7922 56.5542 58.7904L52.8785 62.4237L51.1084 61.4863C43.2956 57.349 33.0241 47.0079 29.2067 39.4359L28.5241 38.0821L31.9408 34.6371C35.5833 30.9643 36.4588 29.8574 37.047 28.1821C37.8407 25.921 37.6808 23.7453 36.5525 21.4588C35.9706 20.2795 35.3693 19.6242 29.3228 13.5794C22.4406 6.69899 21.8864 6.23563 19.7945 5.61445C18.5214 5.23641 16.2487 5.26289 14.9734 5.67079ZM18.9572 10.8422C20.0703 11.3652 31.5546 22.905 32.0459 23.9938C32.9696 26.0413 32.581 26.7165 27.699 31.5475C25.5259 33.6981 23.6086 35.7321 23.4387 36.0676C22.9397 37.0528 23.1515 38.8536 23.9716 40.5984C26.2567 45.46 29.9589 50.3612 35.6009 55.9938C40.2311 60.6161 44.992 64.1959 49.8063 66.6747C51.8195 67.7115 52.0927 67.8046 53.0944 67.7962C53.7952 67.7906 54.41 67.6702 54.809 67.4609C55.1512 67.2813 57.2307 65.3561 59.4301 63.1828C61.6296 61.0093 63.702 59.0921 64.0352 58.9221C64.9239 58.4695 66.4792 58.6164 67.3757 59.2376C68.633 60.1091 79.44 71.1245 79.8676 71.9707C80.3886 73.0015 80.3877 74.165 79.8651 75.1927C79.4814 75.9475 73.7546 81.9533 71.7837 83.6677C68.9348 86.1459 64.9317 86.445 58.3637 84.6707C53.5659 83.3745 46.1598 79.7842 40.0571 75.7964C27.0775 67.3148 15.207 53.5722 9.20541 40.0789C5.34697 31.4042 4.39574 24.7529 6.42227 20.6168C6.78751 19.8714 7.87276 18.6545 10.9932 15.4908C13.5828 12.8655 15.379 11.188 15.8852 10.9223C16.8798 10.4003 17.9574 10.3722 18.9572 10.8422ZM48.4534 16.8835C47.2379 17.6245 46.8081 19.2271 47.5141 20.3851C48.0132 21.2034 48.4479 21.4239 50.5964 21.9482C55.5258 23.1511 59.4794 25.4105 62.8472 28.9496C66.0173 32.2806 68.1711 36.2859 69.1188 40.6119C69.486 42.288 69.7442 42.8502 70.3752 43.3464C71.8148 44.4789 74.125 43.6441 74.4576 41.8716C74.7103 40.5238 73.375 35.8904 71.8449 32.8057C67.8794 24.8123 60.6895 19.0558 52.0541 16.9607C49.898 16.4376 49.209 16.4228 48.4534 16.8835Z" fill="#DA9C17"/>
<path d="M18.9572 10.8422C20.0703 11.3652 31.5546 22.905 32.0459 23.9938C32.9696 26.0413 32.581 26.7165 27.699 31.5475C25.5259 33.6981 23.6086 35.7321 23.4387 36.0676C22.9397 37.0528 23.1515 38.8536 23.9716 40.5984C26.2567 45.46 29.9589 50.3612 35.6009 55.9938C40.2311 60.6161 44.992 64.1959 49.8063 66.6747C51.8195 67.7115 52.0927 67.8046 53.0944 67.7962C53.7952 67.7906 54.41 67.6702 54.809 67.4609C55.1512 67.2813 57.2307 65.3561 59.4301 63.1828C61.6296 61.0093 63.702 59.0921 64.0352 58.9221C64.9239 58.4695 66.4792 58.6164 67.3757 59.2376C68.633 60.1091 79.44 71.1245 79.8676 71.9707C80.3886 73.0015 80.3877 74.165 79.8651 75.1927C79.4814 75.9475 73.7546 81.9533 71.7837 83.6677C68.9348 86.1459 64.9317 86.445 58.3637 84.6707C53.5659 83.3745 46.1598 79.7842 40.0571 75.7964C27.0775 67.3148 15.207 53.5722 9.20541 40.0789C5.34697 31.4042 4.39574 24.7529 6.42227 20.6168C6.78751 19.8714 7.87276 18.6545 10.9932 15.4908C13.5828 12.8655 15.379 11.188 15.8852 10.9223C16.8798 10.4003 17.9574 10.3722 18.9572 10.8422Z" fill="#DA9C17"/>
</g>
<defs>
<clipPath id="clip0_1_112">
<rect width="91" height="91" fill="white"/>
</clipPath>
</defs>
</svg>
