<svg width="100" height="100" viewBox="0 0 100 100" fill="none" xmlns="http://www.w3.org/2000/svg">
<circle cx="50" cy="50" r="50" fill="#333333"/>
<g clip-path="url(#clip0_1_371)">
<path fill-rule="evenodd" clip-rule="evenodd" d="M47.9038 21.4448C42.5317 22.3562 37.8063 25.863 35.3971 30.7262C34.1614 33.2206 33.6462 35.4544 33.6444 38.3259C33.6416 42.8812 35.2063 46.8362 38.2977 50.0872C44.0937 56.1823 53.2483 57.1793 60.3512 52.4888C60.8927 52.1312 61.9774 51.2034 62.7615 50.4268C65.3483 47.8658 66.9197 44.8787 67.611 41.2092C67.8337 40.0273 67.833 36.6122 67.6098 35.4627C66.3649 29.0518 62.0969 24.0954 56.0873 22.0821C53.6946 21.2805 50.3897 21.0231 47.9038 21.4448ZM61.3458 28.1516C59.0872 25.8081 56.35 24.3405 53.1874 23.7767C51.999 23.5651 48.9984 23.6125 47.8334 23.8614C41.129 25.2942 36.3427 30.8598 35.9903 37.6329C35.5836 45.4492 41.5744 52.3497 49.337 53.0061C56.6459 53.6241 63.1269 49.0659 65.0148 41.9795C65.3455 40.7384 65.3887 40.3162 65.3887 38.3259C65.3887 36.35 65.3444 35.9089 65.0245 34.7103C64.3453 32.1647 63.1366 30.0096 61.3458 28.1516Z" fill="#ECBF1D"/>
<path d="M50.0838 27.3067C49.5896 27.5771 49.4509 27.8821 49.4509 28.6992V29.4971L48.828 29.735C47.0175 30.4265 45.6534 32.4313 45.6534 34.4006C45.6534 35.9011 46.6361 37.7243 47.8709 38.5146C48.8001 39.1094 49.2201 39.2515 50.4816 39.3979C51.731 39.5427 52.2172 39.7503 52.7273 40.3567C54.205 42.1127 53.0026 44.7254 50.7167 44.7254C49.3036 44.7254 48.2906 43.8121 48.0557 42.3265C47.8476 41.0107 46.8751 40.5284 46.0645 41.339C45.589 41.8145 45.5549 42.1736 45.869 43.3948C46.2559 44.8995 47.5755 46.3568 48.9938 46.8456C49.4346 46.9977 49.4509 47.0307 49.4509 47.7724C49.4509 48.7038 49.5896 48.9922 50.1488 49.2239C50.4921 49.3661 50.6601 49.3661 51.0034 49.2239C51.5559 48.995 51.7013 48.7035 51.7013 47.8244C51.7013 47.2663 51.7559 47.0897 51.9474 47.0265C54.6984 46.1205 56.2451 43.5235 55.5801 40.9274C55.0258 38.764 53.4644 37.4163 51.1758 37.1261C49.8086 36.9528 49.0488 36.4623 49.0488 36.4623C49.0488 36.4623 47.9582 32.3681 50.119 31.7933C51.664 31.3822 53.3754 32.6916 53.386 34.293C53.3899 34.8826 54.0408 35.5832 54.5846 35.5832C55.0954 35.5832 55.7801 34.8814 55.7801 34.3577C55.7801 33.5853 55.3455 32.273 54.8494 31.5471C54.2455 30.6637 53.6003 30.1521 52.5564 29.7288L51.7716 29.4107L51.7335 28.7346C51.6866 27.9053 51.4948 27.5048 51.0463 27.3004C50.6243 27.1083 50.4446 27.1094 50.0838 27.3067Z" fill="white"/>
<path fill-rule="evenodd" clip-rule="evenodd" d="M53.1874 23.7767C56.35 24.3405 59.0872 25.8081 61.3458 28.1516C63.1366 30.0096 64.3453 32.1647 65.0245 34.7103C65.3444 35.9089 65.3887 36.35 65.3887 38.3259C65.3887 40.3162 65.3455 40.7384 65.0148 41.9795C63.1269 49.0659 56.6459 53.6241 49.337 53.0061C41.5744 52.3497 35.5836 45.4492 35.9903 37.6329C36.3427 30.8598 41.129 25.2942 47.8334 23.8614C48.9984 23.6125 51.999 23.5651 53.1874 23.7767ZM49.4509 28.6992C49.4509 27.8821 49.5896 27.5771 50.0838 27.3067C50.4446 27.1094 50.6243 27.1083 51.0463 27.3004C51.4948 27.5048 51.6866 27.9053 51.7335 28.7346L51.7716 29.4107L52.5564 29.7288C53.6003 30.1521 54.2455 30.6637 54.8494 31.5471C55.3455 32.273 55.7801 33.5853 55.7801 34.3577C55.7801 34.8814 55.0954 35.5832 54.5846 35.5832C54.0408 35.5832 53.3899 34.8826 53.386 34.293C53.3754 32.6916 51.664 31.3822 50.119 31.7933C47.9582 32.3681 49.0488 36.4623 49.0488 36.4623C49.0488 36.4623 49.8086 36.9528 51.1758 37.1261C53.4644 37.4163 55.0258 38.764 55.5801 40.9274C56.2451 43.5235 54.6984 46.1205 51.9474 47.0265C51.7559 47.0897 51.7013 47.2663 51.7013 47.8244C51.7013 48.7035 51.5559 48.995 51.0034 49.2239C50.6601 49.3661 50.4921 49.3661 50.1488 49.2239C49.5896 48.9922 49.4509 48.7038 49.4509 47.7724C49.4509 47.0307 49.4346 46.9977 48.9938 46.8456C47.5755 46.3568 46.2559 44.8995 45.869 43.3948C45.5549 42.1736 45.589 41.8145 46.0645 41.339C46.8751 40.5284 47.8476 41.0107 48.0557 42.3265C48.2906 43.8121 49.3036 44.7254 50.7167 44.7254C53.0026 44.7254 54.205 42.1127 52.7273 40.3567C52.2172 39.7503 51.731 39.5427 50.4816 39.3979C49.2201 39.2515 48.8001 39.1094 47.8709 38.5146C46.6361 37.7243 45.6534 35.9011 45.6534 34.4006C45.6534 32.4313 47.0175 30.4265 48.828 29.735L49.4509 29.4971V28.6992Z" fill="#FFDC37"/>
<path d="M44.0798 59.4125C42.9339 58.8677 41.6245 58.3646 40.8449 58.1698C38.299 57.5337 35.7966 57.6292 33.3681 58.4552C32.5771 58.7243 30.7254 59.6226 30.477 59.8578C30.4461 59.887 30.3671 62.0519 30.2917 64.535L30.1612 71.863C30.2744 71.8467 30.7142 71.6596 31.2169 71.4109C33.8018 70.1329 34.1134 70.1697 43.5437 72.8664L51.0684 75.0182L53.3891 75.0161C55.5043 75.0144 55.8196 74.9806 56.9506 74.6356C57.6331 74.4273 58.4243 74.1381 58.7087 73.993C59.5257 73.5758 78.6305 61.189 78.68 61.0441C78.743 60.8606 77.4774 60.2538 76.8178 60.1514C76.5142 60.1043 75.99 60.1277 75.6528 60.2032C75.3155 60.2789 72.8423 61.3823 70.1568 62.6554L65.2739 64.9701L65.3221 65.8718C65.3666 66.7009 65.3377 66.81 64.9638 67.2286L64.557 67.6838L58.094 67.5236C50.3473 67.3316 49.6969 67.2892 49.2792 66.951C48.8184 66.578 48.8375 65.6158 49.3135 65.2258C49.6517 64.9486 49.7803 64.9429 53.7407 65.0306C55.984 65.0803 58.9429 65.1619 60.316 65.212L60.5465 65.2205L60.7388 65.2278C62.095 65.2791 62.6505 65.3001 62.7651 65.0856C62.8446 64.9368 62.712 64.6747 62.4874 64.2307L62.4864 64.2289C62.4549 64.1666 62.4216 64.1007 62.3868 64.0311C61.8736 63.0039 60.962 62.1297 59.8835 61.6304C59.0073 61.2247 58.743 61.2031 51.1387 60.9152C47.0928 60.762 46.7767 60.6948 44.0798 59.4125Z" fill="#FFDDA9"/>
<path d="M30.1117 74.6435L31.7299 73.8042C31.7924 73.7718 31.8529 73.7402 31.9117 73.7094L32.0294 73.6476L32.0305 73.6471C32.5195 73.3903 32.8876 73.197 33.2789 73.0838C34.4698 72.7392 35.8755 73.1365 41.5597 74.7428C41.9237 74.8457 42.3052 74.9535 42.7054 75.0664C46.8471 76.2351 50.7664 77.2688 51.4151 77.3636C52.6955 77.5508 55.0572 77.4792 56.3427 77.2143C58.6801 76.7323 59.5724 76.3033 63.4834 73.7814C77.8791 64.4988 80.9299 62.5113 81.2727 62.1921C81.7945 61.7062 81.7791 61.129 81.2222 60.288C80.6673 59.4503 79.8286 58.7623 78.7663 58.2734C77.6771 57.7719 75.738 57.6476 74.6488 58.0095C74.258 58.1392 71.7989 59.2582 69.1841 60.496C64.9656 62.4931 64.4141 62.7197 64.2893 62.5077C63.2331 60.714 61.2887 59.3552 59.1692 58.9294C58.8136 58.858 56.2673 58.7334 53.5107 58.6525C47.7312 58.4832 47.2704 58.4075 44.96 57.248C42.0583 55.7919 39.9791 55.3294 36.8859 55.4524C34.841 55.5337 33.5989 55.8036 31.6262 56.5957L30.4245 57.0781L30.2917 64.535C30.3671 62.0519 30.4461 59.887 30.477 59.8578C30.7254 59.6226 32.5771 58.7243 33.3681 58.4552C35.7966 57.6292 38.299 57.5337 40.8449 58.1698C41.6245 58.3646 42.9339 58.8677 44.0798 59.4125C46.7767 60.6948 47.0928 60.762 51.1387 60.9152C58.743 61.2031 59.0073 61.2247 59.8835 61.6304C60.962 62.1297 61.8736 63.0039 62.3868 64.0311C62.4216 64.1007 62.4549 64.1666 62.4864 64.2289L62.4874 64.2307C62.712 64.6747 62.8446 64.9368 62.7651 65.0856C62.6505 65.3001 62.095 65.2791 60.7388 65.2278L60.5465 65.2205L60.316 65.212C58.9429 65.1619 55.984 65.0803 53.7407 65.0306C49.7803 64.9429 49.6517 64.9486 49.3135 65.2258C48.8375 65.6158 48.8184 66.578 49.2792 66.951C49.6969 67.2892 50.3473 67.3316 58.094 67.5236L64.557 67.6838L64.9638 67.2286C65.3377 66.81 65.3666 66.7009 65.3221 65.8718L65.2739 64.9701L70.1568 62.6554C72.8423 61.3823 75.3155 60.2789 75.6528 60.2032C75.99 60.1277 76.5142 60.1043 76.8178 60.1514C77.4774 60.2538 78.743 60.8606 78.68 61.0441C78.6305 61.189 59.5257 73.5758 58.7087 73.993C58.4243 74.1381 57.6331 74.4273 56.9506 74.6356C55.8196 74.9806 55.5043 75.0144 53.3891 75.0161L51.0684 75.0182L43.5437 72.8664C34.1134 70.1697 33.8018 70.1329 31.2169 71.4109C30.7142 71.6596 30.2744 71.8467 30.1612 71.863L30.1117 74.6435Z" fill="#FFDDA9"/>
<path d="M28.1414 56.2956C28.1513 56.314 28.0495 60.1264 27.9151 64.7678C27.7806 69.4092 27.666 73.4858 27.6605 73.8267L27.6503 74.4467L24.1765 74.3495C22.2658 74.2962 20.6898 74.2387 20.6742 74.2219C20.6518 74.1978 21.1438 56.3541 21.1731 56.1306C21.1807 56.0715 28.1082 56.2356 28.1414 56.2956Z" fill="white"/>
<path fill-rule="evenodd" clip-rule="evenodd" d="M19.2329 53.9867C19.0704 54.1493 18.9064 54.4263 18.8687 54.6024C18.7177 55.3071 18.2487 75.5667 18.3757 75.9006C18.6242 76.554 19.0726 76.6158 24.3451 76.7234L29.2678 76.8238L29.5983 76.4681C29.8159 76.2338 29.9599 75.8618 30.0203 75.3779L30.1117 74.6435L30.1612 71.863C30.1467 71.8651 30.1375 71.8644 30.1343 71.8606C30.0951 71.8144 30.19 67.885 30.2917 64.535L30.4245 57.0781L30.5078 56.0857C30.6145 54.8124 30.3997 54.2393 29.7386 54.0324C29.4778 53.9507 27.0951 53.8418 24.3981 53.7881C19.5736 53.692 19.5258 53.6938 19.2329 53.9867ZM27.9151 64.7678C28.0495 60.1264 28.1513 56.314 28.1414 56.2956C28.1082 56.2356 21.1807 56.0715 21.1731 56.1306C21.1438 56.3541 20.6518 74.1978 20.6742 74.2219C20.6898 74.2387 22.2658 74.2962 24.1765 74.3495L27.6503 74.4467L27.6605 73.8267C27.666 73.4858 27.7806 69.4092 27.9151 64.7678Z" fill="white"/>
<path fill-rule="evenodd" clip-rule="evenodd" d="M18.7137 37.7694L19.0589 38.1147L25.1589 38.1147L31.259 38.1147L31.5883 37.7642C31.7833 37.5566 31.9175 37.2407 31.9175 36.9895C31.9175 36.7383 31.7833 36.4224 31.5883 36.2148L31.259 35.8643L25.1589 35.8643L19.0589 35.8643L18.7137 36.2096C18.496 36.4272 18.3684 36.7155 18.3684 36.9895C18.3684 37.2635 18.496 37.5518 18.7137 37.7694ZM24.621 46.6303L24.9661 46.9756L28.1126 46.9756L31.259 46.9756L31.5883 46.6251C31.7833 46.4175 31.9175 46.1016 31.9175 45.8504C31.9175 45.5992 31.7833 45.2833 31.5883 45.0757L31.259 44.7252L28.1126 44.7252L24.9661 44.7252L24.621 45.0705C24.4032 45.2881 24.2757 45.5764 24.2757 45.8504C24.2757 46.1244 24.4032 46.4127 24.621 46.6303ZM24.6209 28.9086L24.9661 29.2538L28.102 29.2493C31.47 29.2446 31.5891 29.2209 31.8613 28.5052C32.0258 28.0721 31.9433 27.7635 31.544 27.3199C31.2646 27.0097 31.1974 27.0035 28.1126 27.0035L24.9661 27.0035L24.6209 27.3488C24.4032 27.5663 24.2757 27.8547 24.2757 28.1287C24.2757 28.4026 24.4032 28.691 24.6209 28.9086Z" fill="#FFDC37"/>
</g>
<defs>
<clipPath id="clip0_1_371">
<rect width="74" height="74" fill="white" transform="translate(13 13)"/>
</clipPath>
</defs>
</svg>
