<svg width="100" height="100" viewBox="0 0 100 100" fill="none" xmlns="http://www.w3.org/2000/svg">
<circle cx="50" cy="50" r="50" fill="#333333"/>
<path d="M24.5039 47.7896L24.5762 54.4543L27.8281 59.3456C29.6167 62.036 31.2657 64.4513 31.4926 64.7134C32.0398 65.3454 32.8632 65.3859 33.3995 64.8072C34.1011 64.0501 34.021 63.8737 30.7188 58.9025C27.9449 54.7267 27.6836 54.2798 27.6836 53.7107C27.6836 52.552 28.6911 51.8547 29.8286 52.226C30.3063 52.382 30.619 52.789 33.0648 56.439C34.5539 58.6613 35.9197 60.5613 36.0999 60.6613C36.2803 60.7613 36.7529 60.9511 37.1504 61.0831C40.0256 62.0373 42.1176 64.1731 42.9422 66.9963C43.2785 68.1479 43.2813 69.8719 42.9494 71.5129L42.679 72.8498L36.5905 72.8434L30.502 72.8369L25.5503 65.4362L20.5988 58.0353L20.6001 49.71L20.6016 41.3847L20.9297 40.8936C21.27 40.384 22.058 39.8972 22.5432 39.8969C22.697 39.8968 23.0872 40.025 23.4104 40.1817C23.6366 40.2914 23.8124 40.3629 23.9498 40.4797C24.456 40.9098 24.4406 41.954 24.5039 47.7896Z" fill="#FFDDA9"/>
<path fill-rule="evenodd" clip-rule="evenodd" d="M21.0648 37.56C20.6439 37.7103 20.0586 38.0257 19.764 38.2611C19.105 38.7878 18.3466 39.8832 18.1493 40.5937C18.0562 40.9287 18.0013 44.4095 18.0009 50.0124L18 58.8996L22.7926 66.0915C26.1503 71.13 27.1602 72.6668 27.3907 73.2659H45.4248C45.3407 73.211 45.3797 72.7352 45.5257 72.0374C46.2557 68.5478 45.7106 65.5238 43.8825 62.9218C42.5393 61.0099 40.7898 59.6522 38.6067 58.8275L37.584 58.4412L35.0402 54.625C32.2813 50.4859 31.8785 50.0465 30.4687 49.6366C29.5616 49.373 28.3698 49.4422 27.6804 49.7986L27.2686 50.0117L27.2163 45.4961C27.1564 40.3074 27.1208 40.1221 25.9368 38.8265C24.7021 37.4756 22.7343 36.9641 21.0648 37.56ZM24.5762 54.4543L24.5039 47.7896C24.4406 41.954 24.456 40.9098 23.9498 40.4797C23.8124 40.3629 23.6366 40.2914 23.4104 40.1817C23.0872 40.025 22.697 39.8968 22.5432 39.8969C22.058 39.8972 21.27 40.384 20.9297 40.8936L20.6016 41.3847L20.6001 49.71L20.5988 58.0353L25.5503 65.4362L30.502 72.8369L36.5905 72.8434L42.679 72.8498L42.9494 71.5129C43.2813 69.8719 43.2785 68.1479 42.9422 66.9963C42.1176 64.1731 40.0256 62.0373 37.1504 61.0831C36.7529 60.9511 36.2803 60.7613 36.0999 60.6613C35.9197 60.5613 34.5539 58.6613 33.0648 56.439C30.619 52.789 30.3063 52.382 29.8286 52.226C28.6911 51.8547 27.6836 52.552 27.6836 53.7107C27.6836 54.2798 27.9449 54.7267 30.7188 58.9025C34.021 63.8737 34.1011 64.0501 33.3995 64.8072C32.8632 65.3859 32.0398 65.3454 31.4926 64.7134C31.2657 64.4513 29.6167 62.036 27.8281 59.3456L24.5762 54.4543Z" fill="#FFDDA9"/>
<path fill-rule="evenodd" clip-rule="evenodd" d="M27.4176 73.6516C27.3032 73.9028 27.25 75.3016 27.25 78.0574V82.0952L27.6716 82.5672L28.0933 83.0392L36.2024 83.08C41.6285 83.1073 44.5014 83.0697 44.8853 82.9662C45.8623 82.7032 45.8945 82.5436 45.8945 77.9783C45.8945 74.0929 45.839 73.5366 45.4248 73.2659H27.3907C27.4689 73.4689 27.4575 73.5642 27.4176 73.6516ZM43.293 80.3654V77.9806V75.5959H36.5723H29.8516V77.9806V80.3654H36.5723H43.293Z" fill="white"/>
<path d="M43.293 77.9806V80.3654H36.5723H29.8516V77.9806V75.5959H36.5723H43.293V77.9806Z" fill="white"/>
<path fill-rule="evenodd" clip-rule="evenodd" d="M53.4086 73.464C53.1412 73.9025 53.1221 74.201 53.1217 77.9517C53.1209 82.5105 53.1568 82.6945 54.0976 82.9696C54.4696 83.0785 57.1772 83.1141 62.7654 83.0836L70.8921 83.0392L71.2927 82.6387L71.6934 82.2382L71.7389 78.3028C71.7691 75.6787 71.7301 74.1832 71.6215 73.815L71.4588 73.2626H53.5255C53.4943 73.3223 53.4553 73.3873 53.4086 73.464ZM69.1641 80.3654V77.9806V75.5959H62.4434H55.7227V77.9806V80.3654H62.4434H69.1641Z" fill="white"/>
<path d="M69.1641 77.9806V80.3654H62.4434H55.7227V77.9806V75.5959H62.4434H69.1641V77.9806Z" fill="white"/>
<path d="M77.5469 40.3119C77.7456 40.4525 78.022 40.7906 78.1609 41.0632C78.3927 41.5177 78.4136 42.2382 78.4138 49.7713L78.4141 57.9839L73.4834 65.4168L68.5526 72.8498H62.4546H56.3569L56.112 71.5727C55.431 68.0204 56.2197 65.1979 58.4826 63.0884C59.5146 62.1264 60.1354 61.7613 61.7879 61.1443L63.166 60.6298L65.8734 56.5929C67.3625 54.3726 68.7283 52.4742 68.9085 52.374C69.0889 52.274 69.5078 52.1898 69.8395 52.1869C70.7058 52.1796 71.332 52.8154 71.332 53.7023C71.332 54.2823 71.0863 54.7032 68.2969 58.9025C64.9815 63.8935 64.8861 64.1045 65.6166 64.8348C66.1642 65.3826 66.9892 65.33 67.5231 64.7134C67.75 64.4513 69.3989 62.036 71.1875 59.3456L74.4395 54.4543L74.5117 47.7896L74.5198 47.0384C74.5752 41.8325 74.5856 40.8573 75.0716 40.4507C75.1837 40.357 75.321 40.2935 75.4899 40.2153C75.5239 40.1996 75.5591 40.1833 75.5957 40.1661C76.2562 39.8542 76.9761 39.9081 77.5469 40.3119Z" fill="#FFDDA9"/>
<path fill-rule="evenodd" clip-rule="evenodd" d="M40.1855 20.8743C44.1602 19.1577 47.8674 17.5672 48.4238 17.3398C48.9863 17.11 49.5639 16.9627 49.7246 17.0083C49.8836 17.0533 53.5908 18.6257 57.9629 20.5024C63.2717 22.7813 66.0441 24.0449 66.3096 24.3066L66.707 24.6986V31.3981C66.707 35.1501 66.641 38.6365 66.5569 39.3223C66.1342 42.7683 64.7739 45.8658 62.5023 48.5539C61.6151 49.6038 50.3493 59.084 49.8356 59.213C49.6554 59.2582 49.3616 59.2565 49.1826 59.2092C48.612 59.0585 37.6795 49.8411 36.5634 48.5698C34.2738 45.9619 32.8848 42.8335 32.4576 39.3223C32.3751 38.6441 32.3086 35.1167 32.3086 31.4173V24.7371L32.6338 24.3662C32.8595 24.1088 35.1694 23.0407 40.1855 20.8743ZM64.0332 26.0082L57.0234 22.9736C53.1681 21.3046 49.8511 19.9103 49.6523 19.8752C49.3373 19.8195 44.1408 21.9924 36.1025 25.5409L34.9102 26.0673L34.9103 31.5728C34.9103 34.6009 34.9763 37.7733 35.0568 38.623C35.3549 41.766 36.4579 44.3882 38.5057 46.8214C38.8677 47.2517 41.4914 49.5454 44.3359 51.9188L49.5078 56.2339L54.6797 51.9188C57.5242 49.5454 60.1479 47.2517 60.51 46.8214C62.5961 44.3426 63.6769 41.7313 63.9672 38.4691C64.0494 37.5451 64.0978 34.3636 64.075 31.3988L64.0332 26.0082Z" fill="white"/>
<path fill-rule="evenodd" clip-rule="evenodd" d="M75.2344 37.4217C73.9307 37.8507 72.722 38.9124 72.17 40.1134C71.8499 40.8101 71.8362 40.9984 71.7909 45.3527C71.7651 47.8369 71.7 49.8683 71.6464 49.8671C71.5928 49.866 71.2887 49.7712 70.9707 49.6567C70.2141 49.3841 69.3909 49.384 68.4741 49.6563C67.125 50.0568 66.7017 50.5246 63.9722 54.6312L61.4316 58.4534L60.6778 58.7036C59.0376 59.2479 57.8672 59.9999 56.4392 61.4267C55.2704 62.5947 54.9562 63.0143 54.3785 64.1779C54.0037 64.9331 53.5863 65.9737 53.4509 66.4904C53.1194 67.7565 53.1204 70.6782 53.4529 72.0187C53.6478 72.804 53.6797 72.9681 53.5255 73.2626H71.4588L76.2413 66.038L81.0239 58.8133L80.9837 49.6801L80.9434 40.547L80.612 39.9263C79.7501 38.3121 78.3826 37.4265 76.6325 37.3487C76.0623 37.3234 75.4331 37.3562 75.2344 37.4217ZM78.1609 41.0632C78.022 40.7906 77.7456 40.4525 77.5469 40.3119C76.9761 39.9081 76.2562 39.8542 75.5957 40.1661C75.5591 40.1833 75.5239 40.1996 75.4899 40.2153C75.321 40.2935 75.1837 40.357 75.0716 40.4507C74.5856 40.8573 74.5752 41.8325 74.5198 47.0384L74.5117 47.7896L74.4395 54.4543L71.1875 59.3456C69.3989 62.036 67.75 64.4513 67.5231 64.7134C66.9892 65.33 66.1642 65.3826 65.6166 64.8348C64.8861 64.1045 64.9815 63.8935 68.2969 58.9025C71.0863 54.7032 71.332 54.2823 71.332 53.7023C71.332 52.8154 70.7058 52.1796 69.8395 52.1869C69.5078 52.1898 69.0889 52.274 68.9085 52.374C68.7283 52.4742 67.3625 54.3726 65.8734 56.5929L63.166 60.6298L61.7879 61.1443C60.1354 61.7613 59.5146 62.1264 58.4826 63.0884C56.2197 65.1979 55.431 68.0204 56.112 71.5727L56.3569 72.8498H62.4546H68.5526L73.4834 65.4168L78.4141 57.9839L78.4138 49.7713C78.4136 42.2382 78.3927 41.5177 78.1609 41.0632Z" fill="#FFDDA9"/>
<path fill-rule="evenodd" clip-rule="evenodd" d="M57.0234 22.9736L64.0332 26.0082L64.075 31.3988C64.0978 34.3636 64.0494 37.5451 63.9672 38.4691C63.6769 41.7313 62.5961 44.3426 60.51 46.8214C60.1479 47.2517 57.5242 49.5454 54.6797 51.9188L49.5078 56.2339L44.3359 51.9188C41.4914 49.5454 38.8677 47.2517 38.5057 46.8214C36.4579 44.3882 35.3549 41.766 35.0568 38.623C34.9763 37.7733 34.9103 34.6009 34.9103 31.5728L34.9102 26.0673L36.1025 25.5409C44.1408 21.9924 49.3373 19.8195 49.6523 19.8752C49.8511 19.9103 53.1681 21.3046 57.0234 22.9736ZM47.5504 37.5831L51.2455 33.898C54.5728 30.5799 54.9877 30.2131 55.415 30.2131C56.0373 30.2131 56.7344 30.883 56.7344 31.481C56.7344 32.1248 56.2226 32.7124 52.0903 36.8136C48.2897 40.5858 47.8944 40.8983 47.1592 40.7134C46.9803 40.6684 45.8095 39.5999 44.5576 38.3389C42.4782 36.2445 42.2813 36.0018 42.2813 35.5338C42.2813 34.5182 43.2636 33.8635 44.1135 34.3128C44.3379 34.4315 45.203 35.2159 46.036 36.0559L47.5504 37.5831Z" fill="#F03D00"/>
<path d="M51.2455 33.898L47.5504 37.5831L46.036 36.0559C45.203 35.2159 44.3379 34.4315 44.1135 34.3128C43.2636 33.8635 42.2813 34.5182 42.2813 35.5338C42.2813 36.0018 42.4782 36.2445 44.5576 38.3389C45.8095 39.5999 46.9803 40.6684 47.1592 40.7134C47.8944 40.8983 48.2897 40.5858 52.0903 36.8136C56.2226 32.7124 56.7344 32.1248 56.7344 31.481C56.7344 30.883 56.0373 30.2131 55.415 30.2131C54.9877 30.2131 54.5728 30.5799 51.2455 33.898Z" fill="#F03D00"/>
<path fill-rule="evenodd" clip-rule="evenodd" d="M48.4986 27.0754C48.0561 27.2561 47.749 27.753 47.749 28.2889C47.749 28.6943 47.7098 28.7843 47.5331 28.7843C47.1288 28.7843 45.923 29.4573 45.3533 30.0011C45.0355 30.3043 44.6237 30.8685 44.419 31.281C44.0926 31.9389 44.0529 32.1294 44.0529 33.0424C44.0529 33.9677 44.0895 34.1382 44.4332 34.8134C45.1958 36.3114 46.6652 37.2364 48.5548 37.4079C49.7702 37.5181 50.5011 37.7922 50.9472 38.305C51.8138 39.3011 51.5929 40.6052 50.4316 41.3484C49.985 41.6343 49.8373 41.665 48.9117 41.665C47.9591 41.665 47.8506 41.6406 47.3788 41.3198C46.8137 40.9358 46.3459 40.2364 46.3429 39.7715C46.3381 39.0061 45.8171 38.491 45.0686 38.5116C44.7486 38.5203 44.5633 38.6127 44.3056 38.8916C43.9884 39.235 43.969 39.3087 44.0237 39.9677C44.1449 41.4278 45.1284 42.765 46.6074 43.4807C47.059 43.6992 47.5006 43.878 47.5888 43.878C47.6974 43.878 47.749 44.0237 47.749 44.3301C47.749 44.956 48.2334 45.4833 48.8234 45.4994C49.5842 45.5203 50.0958 45.0023 50.0958 44.2111C50.0958 44.0052 50.157 43.878 50.2561 43.878C50.3442 43.878 50.7858 43.6992 51.2375 43.4807C52.22 43.0053 53.0338 42.2096 53.4755 41.2926C53.7413 40.7409 53.7882 40.4905 53.7882 39.6223C53.7882 38.7525 53.7416 38.504 53.4737 37.948C52.7426 36.4301 51.2765 35.4497 49.427 35.2418C48.1494 35.0981 47.6835 34.9651 47.1789 34.6C46.7297 34.2749 46.3473 33.5513 46.3436 33.019C46.3291 31.0004 49.5364 30.1011 50.9509 31.7271C51.2593 32.0815 51.4314 32.5094 51.557 33.2338C51.6823 33.9564 52.58 34.3586 53.2703 34.0013C54.2578 33.4901 53.8828 31.4529 52.5503 30.0903C51.9552 29.4817 50.7598 28.7843 50.3117 28.7843C50.1342 28.7843 50.0958 28.6939 50.0958 28.2754C50.0958 27.4184 49.2378 26.7738 48.4986 27.0754Z" fill="white"/>
</svg>
