<svg width="100" height="100" viewBox="0 0 100 100" fill="none" xmlns="http://www.w3.org/2000/svg">
<circle cx="50" cy="50" r="50" fill="#333333"/>
<path d="M40.9567 34.7796C40.6345 35.2035 40.1673 35.2486 36.0887 35.2486H43.559C43.3355 35.0862 43.1589 34.954 43.0712 34.8824C42.6899 34.5706 42.3179 33.8727 42.1765 33.2684H36.9405C40.4787 33.2684 40.5583 33.2738 40.839 33.5374C41.1599 33.8391 41.2166 34.4374 40.9567 34.7796Z" fill="#C97629"/>
<path d="M76.3225 39.2089C76.3611 39.2089 76.4014 39.2104 76.4434 39.2133C75.6133 39.0142 74.73 38.8456 73.8704 38.7065C73.9854 38.765 74.072 38.8313 74.1385 38.9068C74.2916 39.0806 74.417 39.3557 74.417 39.5183C74.417 39.8794 73.9501 40.4348 73.6125 40.475C73.5375 40.4839 73.2462 40.469 72.8491 40.4384C73.9057 40.5566 75.2343 40.7637 76.1726 41.0736C75.9518 40.9695 75.769 40.8637 75.6855 40.7861C75.1145 40.2551 75.537 39.2089 76.3225 39.2089Z" fill="#FFDC37"/>
<path d="M52.3946 45.0294C52.3823 45.0228 52.3673 45.0112 52.35 44.9949C53.3852 46.579 54.6211 48.5581 54.6261 48.9111C54.6207 48.3353 54.6207 47.6436 54.6207 46.8054V46.7583C54.6207 46.4153 54.6209 46.0992 54.6213 45.8076C54.369 45.2576 54.0629 44.6126 53.8727 44.217C54.021 44.8642 53.0494 45.3799 52.3946 45.0294Z" fill="#C97629"/>
<path d="M38.2849 73.7191C38.2332 73.7214 38.1761 73.7232 38.1142 73.7244C39.4811 73.7608 41.0432 73.7686 42.3 73.6942C41.8829 73.0675 41.5205 72.4062 41.2166 71.719C40.5119 71.7493 39.6508 71.7743 38.8469 71.7699C39.2697 71.7946 39.3873 71.8651 39.5839 72.0618C39.9683 72.4461 39.9705 72.8856 39.5903 73.3275C39.3181 73.6441 39.2075 73.6772 38.2849 73.7191Z" fill="#C97629"/>
<path fill-rule="evenodd" clip-rule="evenodd" d="M70.3947 38.2764C71.3224 38.3536 72.5694 38.4961 73.8704 38.7065C73.3965 38.4655 72.4384 38.3558 70.3947 38.2764ZM71.7288 40.3366C72.0253 40.3561 72.4141 40.3897 72.8491 40.4384C72.5259 40.4134 72.1326 40.3781 71.7288 40.3366ZM76.1726 41.0736C76.3964 41.1476 76.598 41.2274 76.7684 41.3132C76.5672 41.2461 76.3567 41.1605 76.1726 41.0736ZM76.4434 39.2133C77.0427 39.357 77.6144 39.5165 78.1295 39.6921C77.4981 39.4276 76.8815 39.2435 76.4434 39.2133ZM54.6261 48.9111C54.6311 49.4483 54.6407 49.8847 54.6595 50.2449L54.6261 48.9111ZM67.8122 57.1608C67.352 57.1608 66.9083 57.1658 66.5115 57.1746C67.016 57.1783 67.4657 57.1719 67.8122 57.1608ZM69.7141 61.0061C69.1525 61.0354 68.6117 61.0706 68.1557 61.1061C68.7368 61.07 69.2859 61.0345 69.7141 61.0061ZM69.2883 64.9008L69.0512 64.9129C69.1356 64.9093 69.2149 64.9053 69.2883 64.9008ZM69.0953 68.851C68.6306 68.8719 68.2585 68.8934 67.9594 68.9221C68.3838 68.9001 68.7809 68.8744 69.0953 68.851ZM67.3381 70.7842L67.3159 70.7754C67.824 70.8126 68.3239 70.8347 68.7594 70.8293C68.0234 70.8488 67.4761 70.8376 67.3381 70.7842ZM43.1829 73.6214C42.9132 73.6515 42.6163 73.6754 42.3 73.6942C41.8829 73.0675 41.5205 72.4062 41.2166 71.719C41.686 71.6988 42.086 71.6762 42.3535 71.6582C42.7871 72.0677 43.56 73.0337 43.1829 73.6214ZM44.7248 59.2897C44.8321 59.0924 45.0249 58.815 45.3037 58.5057C45.1672 58.7207 44.9763 58.9762 44.7248 59.2897ZM47.3831 56.9318C47.6732 56.7854 47.9863 56.6515 48.3225 56.5366C47.9253 56.7265 47.6238 56.8571 47.3831 56.9318Z" fill="#ECBF1D"/>
<path d="M46.3796 56.7266C46.0057 56.3529 45.9844 55.8138 46.3287 55.4442C45.6 55.9161 44.6807 56.6928 44.3122 57.0222C44.6403 56.8933 45.1765 57.0657 45.412 57.3756C45.647 57.6849 45.6436 57.9703 45.3037 58.5057C45.763 57.9962 46.4554 57.4 47.3831 56.9318C46.8961 57.0828 46.6579 57.005 46.3796 56.7266Z" fill="#ECBF1D"/>
<path d="M51.8925 53.5108C51.7224 53.5399 51.1933 53.6268 50.7168 53.7039C49.1849 53.9515 46.8604 54.8736 46.3287 55.4442C45.9844 55.8138 46.0057 56.3529 46.3796 56.7266C46.6579 57.005 46.8961 57.0828 47.3831 56.9318C47.6732 56.7854 47.9863 56.6515 48.3225 56.5366C50.0022 55.7337 51.0482 55.5067 53.0683 55.5067C55.1676 55.5067 56.1767 55.7391 58.0187 56.6473C60.2079 57.7265 61.8029 59.3239 62.912 61.5477C63.7904 63.309 64.0489 64.3937 64.0622 66.3744C64.0707 67.6473 64.016 68.2108 63.8003 69.0725C62.7624 73.2188 59.4844 76.3973 55.3488 77.2672C54.0661 77.5371 51.8186 77.5057 50.5444 77.2002C47.3454 76.4334 44.6857 74.3013 43.1829 71.299C41.9451 68.8265 41.7341 65.7012 42.6247 63.0328C43.0987 61.6129 43.6518 60.6271 44.7248 59.2897C44.8321 59.0924 45.0249 58.815 45.3037 58.5057C45.6436 57.9703 45.647 57.6849 45.412 57.3756C45.1765 57.0657 44.6403 56.8933 44.3122 57.0222C43.4718 57.352 41.772 59.7278 41.0041 61.6457C39.6635 64.9936 39.8457 68.6195 41.2166 71.719C41.686 71.6988 42.086 71.6762 42.3535 71.6582C42.7871 72.0677 43.56 73.0337 43.1829 73.6214C42.9132 73.6515 42.6163 73.6754 42.3 73.6942C43.6533 75.7273 45.5833 77.3959 47.9655 78.4006C49.8505 79.1955 50.7276 79.361 53.0683 79.3633C54.9768 79.3652 55.2834 79.3345 56.3697 79.0324C60.7078 77.8259 63.9473 74.7715 65.372 70.5756C65.0255 70.531 64.7227 70.4875 64.4931 70.4514C64.4931 69.8234 64.5724 68.6241 64.8899 68.851C64.9928 68.9245 65.3375 68.9603 65.7996 68.9719C65.9116 68.3786 65.9824 67.7529 66.0117 67.1171C65.6847 67.1127 65.4319 67.0923 65.2945 67.0498C64.6534 66.8516 64.8828 65.5345 65.0777 64.9008C65.3089 64.9071 65.6097 64.914 65.9477 64.92C65.8926 64.3988 65.8086 63.8883 65.6956 63.401C65.6773 63.3225 65.6583 63.2441 65.6384 63.166C65.4747 62.5221 65.2546 61.8912 64.9842 61.2798C64.6404 60.5023 64.2151 59.7564 63.7206 59.0561C63.0956 58.171 62.3601 57.3587 61.5388 56.6473C60.4052 55.6653 59.1082 54.8754 57.7127 54.3513C57.3997 54.2337 57.0089 54.1045 56.6358 53.9926C56.2823 53.8866 55.9445 53.7961 55.7035 53.7454C55.4639 53.695 55.1242 53.6479 54.7437 53.6077C53.6882 53.4963 52.3178 53.4381 51.8925 53.5108Z" fill="#ECBF1D"/>
<path d="M53.0683 55.5067C51.0482 55.5067 50.0022 55.7337 48.3225 56.5366C47.9253 56.7265 47.6238 56.8571 47.3831 56.9318C46.4554 57.4 45.763 57.9962 45.3037 58.5057C45.1672 58.7207 44.9763 58.9762 44.7248 59.2897C43.6518 60.6271 43.0987 61.6129 42.6247 63.0328C41.7341 65.7012 41.9451 68.8265 43.1829 71.299C44.6857 74.3013 47.3454 76.4334 50.5444 77.2002C51.8186 77.5057 54.0661 77.5371 55.3488 77.2672C59.4844 76.3973 62.7624 73.2188 63.8003 69.0725C64.016 68.2108 64.0707 67.6473 64.0622 66.3744C64.0489 64.3937 63.7904 63.309 62.912 61.5477C61.8029 59.3239 60.2079 57.7265 58.0187 56.6473C56.1767 55.7391 55.1676 55.5067 53.0683 55.5067Z" fill="#FFDC37"/>
<path fill-rule="evenodd" clip-rule="evenodd" d="M66.0012 38.23C60.1083 38.483 55.7822 39.9427 54.8466 41.9935C54.66 42.4024 54.6259 42.8093 54.6213 45.8076C54.6209 46.0992 54.6207 46.4153 54.6207 46.7583V46.8054C54.6207 47.6436 54.6207 48.3353 54.6261 48.9111L54.6595 50.2449C54.7355 51.7083 54.9607 51.9151 55.6275 52.5272L55.6374 52.5363C55.9082 52.785 56.2409 53.0206 56.6327 53.2421L56.6202 50.1927C56.5998 49.8013 56.6068 49.481 56.6358 49.481C56.6647 49.481 57.0078 49.6224 57.3983 49.795C60.0719 50.9774 64.1358 51.544 69.086 51.4247C73.5393 51.3173 76.2804 50.8021 79.2194 49.5199C79.3439 49.4656 79.3721 49.6154 79.3431 50.1768C79.3061 50.892 79.2956 50.9109 78.7229 51.2938C77.635 52.0207 75.7251 52.6134 73.1122 53.0347C71.1585 53.3498 64.8043 53.3498 62.8507 53.0347C60.2377 52.6134 58.3278 52.0207 57.24 51.2938C56.6698 50.9126 56.6566 50.8891 56.6202 50.1927L56.6327 53.2421C58.0738 54.0568 60.3144 54.6816 63.2166 55.0702C64.8784 55.2927 71.0752 55.2935 72.7462 55.0714C75.2528 54.7383 77.2117 54.2223 79.1508 53.3847C79.342 53.3022 79.3674 53.37 79.3674 53.9635C79.3674 54.7571 79.2065 54.9495 78.0679 55.5177C75.8588 56.6199 72.4862 57.1603 67.8122 57.1608C67.4657 57.1719 67.016 57.1783 66.5115 57.1746C65.6248 57.1943 64.972 57.2328 64.8899 57.2766C64.5471 57.4601 64.3317 58.0985 64.4931 58.4527C64.791 59.1065 65.0202 59.1529 67.9428 59.1515C72.4467 59.1492 76.1309 58.5762 78.4872 57.5115C78.9221 57.315 79.298 57.1542 79.3226 57.1542C79.3472 57.1542 79.3674 57.4556 79.3674 57.8239C79.3674 58.4272 79.3275 58.5272 78.9652 58.8335C77.6408 59.9526 74.1363 60.7756 69.7141 61.0061C69.2859 61.0345 68.7368 61.07 68.1557 61.1061C67.4786 61.1588 66.9888 61.2123 66.8966 61.2485C66.2427 61.5051 66.24 62.3994 66.8918 62.8846C67.216 63.1259 67.2984 63.1289 69.8002 62.9895C73.9071 62.7606 76.8604 62.1923 78.6517 61.2861C78.9727 61.1237 79.2651 60.9908 79.3014 60.9908C79.3377 60.9908 79.3674 61.2867 79.3674 61.6483C79.3674 62.4559 79.0784 62.7814 77.8818 63.3222C75.9575 64.1917 73.1483 64.7077 69.2883 64.9008C69.2149 64.9053 69.1356 64.9093 69.0512 64.9129C67.6935 64.9836 67.5245 65.0255 67.2772 65.2729C66.8858 65.6642 66.913 66.1295 67.3531 66.5696C67.7732 66.9897 67.848 66.9952 70.5804 66.8021C73.9082 66.567 76.2809 66.1017 78.313 65.2858L79.3674 64.8624V65.5785C79.3674 66.2553 79.342 66.3155 78.9033 66.6775C77.5518 67.7927 73.7162 68.6427 69.0953 68.851C68.7809 68.8744 68.3838 68.9001 67.9594 68.9221C66.9848 69.0155 66.7851 69.1844 66.6818 69.6549C66.581 70.1134 66.8485 70.5834 67.3159 70.7754C67.824 70.8126 68.3239 70.8347 68.7594 70.8293C68.8675 70.8265 68.9797 70.823 69.0953 70.8189C70.5214 70.7679 72.4616 70.6221 73.6029 70.4514C77.3709 69.8879 80.0489 68.7568 80.9144 67.3631L81.2857 66.7652L81.32 54.6888C81.3586 41.0517 81.4257 42.0146 80.368 41.0253C79.8765 40.5655 79.0223 40.0721 78.1855 39.7158L78.1295 39.6921C77.6144 39.5165 77.0427 39.357 76.4434 39.2133C76.4014 39.2104 76.3611 39.2089 76.3225 39.2089C75.537 39.2089 75.1145 40.2551 75.6855 40.7861C75.769 40.8637 75.9518 40.9695 76.1726 41.0736C76.3964 41.1476 76.598 41.2274 76.7684 41.3132C77.8391 41.6703 78.9793 42.286 79.2035 42.6282C79.4477 43.0009 79.2678 43.3204 78.5917 43.7138C76.6642 44.8353 73.3749 45.491 69.0953 45.6066C64.139 45.7404 59.6954 45.0409 57.4859 43.779C56.676 43.3164 56.4531 42.9155 56.7923 42.5318C57.4099 41.8334 60.0449 40.9249 62.6749 40.5036C64.4973 40.2116 69.5941 40.1177 71.7288 40.3366C72.0253 40.3561 72.4141 40.3897 72.8491 40.4384C73.2462 40.469 73.5375 40.4839 73.6125 40.475C73.9501 40.4348 74.417 39.8794 74.417 39.5183C74.417 39.3557 74.2916 39.0806 74.1385 38.9068C74.072 38.8313 73.9854 38.765 73.8704 38.7065C72.5694 38.4961 71.3224 38.3536 70.3947 38.2764C69.4418 38.2392 68.495 38.1952 68.2908 38.1784C68.0866 38.1614 67.0563 38.1847 66.0012 38.23ZM78.4558 45.9581C74.1583 47.9436 64.1132 48.1921 58.7617 46.4452C58.2459 46.2768 57.5474 45.9989 57.2097 45.8278L56.5954 45.5165V46.205C56.5954 46.7644 56.6504 46.9483 56.8892 47.1871C57.8087 48.1066 60.9594 49.019 64.3745 49.3549C65.0795 49.4244 66.7026 49.481 67.9814 49.481C69.2602 49.481 70.8834 49.4244 71.5883 49.3549C75.0035 49.019 78.1542 48.1066 79.0736 47.1871C79.3113 46.9494 79.3674 46.7639 79.3674 46.2151V45.5368L78.4558 45.9581Z" fill="#ECBF1D"/>
<path d="M66.6818 69.6549C66.7851 69.1844 66.9848 69.0155 67.9594 68.9221C67.2256 68.9602 66.4101 68.9872 65.7996 68.9719C65.7353 69.3129 65.6574 69.6432 65.566 69.9586C65.5056 70.1669 65.4409 70.3726 65.372 70.5756C65.9452 70.6493 66.6378 70.7257 67.3159 70.7754C66.8485 70.5834 66.581 70.1134 66.6818 69.6549Z" fill="#ECBF1D"/>
<path d="M64.8899 68.851C64.5724 68.6241 64.4931 69.8234 64.4931 70.4514C64.7227 70.4875 65.0255 70.531 65.372 70.5756C65.4409 70.3726 65.5056 70.1669 65.566 69.9586C65.6574 69.6432 65.7353 69.3129 65.7996 68.9719C65.3375 68.9603 64.9928 68.9245 64.8899 68.851Z" fill="#ECBF1D"/>
<path d="M65.0777 64.9008C64.8828 65.5345 64.6534 66.8516 65.2945 67.0498C65.4319 67.0923 65.6847 67.1127 66.0117 67.1171C66.0454 66.3868 66.0243 65.6432 65.9477 64.92C65.6097 64.914 65.3089 64.9071 65.0777 64.9008Z" fill="#ECBF1D"/>
<path d="M67.3531 66.5696C66.913 66.1295 66.8858 65.6642 67.2772 65.2729C67.5245 65.0255 67.6935 64.9836 69.0512 64.9129C68.23 64.9474 66.9311 64.9375 65.9477 64.92C66.0243 65.6432 66.0454 66.3868 66.0117 67.1171C67.2102 67.1329 69.406 66.9318 70.5804 66.8021C67.848 66.9952 67.7732 66.9897 67.3531 66.5696Z" fill="#ECBF1D"/>
<path d="M66.8918 62.8846C66.24 62.3994 66.2427 61.5051 66.8966 61.2485C66.9888 61.2123 67.4786 61.1588 68.1557 61.1061C66.9862 61.1788 65.687 61.2541 64.9842 61.2798C65.2546 61.8912 65.4747 62.5221 65.6384 63.166C66.8714 63.21 68.7366 63.0864 69.8002 62.9895C67.2984 63.1289 67.216 63.1259 66.8918 62.8846Z" fill="#ECBF1D"/>
<path d="M64.4931 58.4527C64.3317 58.0985 64.5471 57.4601 64.8899 57.2766C64.972 57.2328 65.6248 57.1943 66.5115 57.1746C64.8846 57.1629 62.6875 57.0467 61.5388 56.6473C62.3601 57.3587 63.0956 58.171 63.7206 59.0561C65.3147 59.1549 67.0343 59.1654 67.9428 59.1515C65.0202 59.1529 64.791 59.1065 64.4931 58.4527Z" fill="#ECBF1D"/>
<path d="M54.7437 53.6077C55.1242 53.6479 55.4639 53.695 55.7035 53.7454C55.9445 53.7961 56.2823 53.8866 56.6358 53.9926L56.6327 53.2421C56.2409 53.0206 55.9082 52.785 55.6374 52.5363L55.6275 52.5272C54.9607 51.9151 54.7355 51.7083 54.6595 50.2449L54.7437 53.6077Z" fill="#ECBF1D"/>
<path d="M79.2035 42.6282C78.9793 42.286 77.8391 41.6703 76.7684 41.3132C76.5672 41.2461 76.3567 41.1605 76.1726 41.0736C75.2343 40.7637 73.9057 40.5566 72.8491 40.4384C72.5259 40.4134 72.1326 40.3781 71.7288 40.3366C69.5941 40.1177 64.4973 40.2116 62.6749 40.5036C60.0449 40.9249 57.4099 41.8334 56.7923 42.5318C56.4531 42.9155 56.676 43.3164 57.4859 43.779C59.6954 45.0409 64.139 45.7404 69.0953 45.6066C73.3749 45.491 76.6642 44.8353 78.5917 43.7138C79.2678 43.3204 79.4477 43.0009 79.2035 42.6282Z" fill="#FFDC37"/>
<path d="M58.7617 46.4452C64.1132 48.1921 74.1583 47.9436 78.4558 45.9581L79.3674 45.5368V46.2151C79.3674 46.7639 79.3113 46.9494 79.0736 47.1871C78.1542 48.1066 75.0035 49.019 71.5883 49.3549C70.8834 49.4244 69.2602 49.481 67.9814 49.481C66.7026 49.481 65.0795 49.4244 64.3745 49.3549C60.9594 49.019 57.8087 48.1066 56.8892 47.1871C56.6504 46.9483 56.5954 46.7644 56.5954 46.205V45.5165L57.2097 45.8278C57.5474 45.9989 58.2459 46.2768 58.7617 46.4452Z" fill="#FFDC37"/>
<path d="M69.086 51.4247C64.1358 51.544 60.0719 50.9774 57.3983 49.795C57.0078 49.6224 56.6647 49.481 56.6358 49.481C56.6068 49.481 56.5998 49.8013 56.6202 50.1927C56.6566 50.8891 56.6698 50.9126 57.24 51.2938C58.3278 52.0207 60.2377 52.6134 62.8507 53.0347C64.8043 53.3498 71.1585 53.3498 73.1122 53.0347C75.7251 52.6134 77.635 52.0207 78.7229 51.2938C79.2956 50.9109 79.3061 50.892 79.3431 50.1768C79.3721 49.6154 79.3439 49.4656 79.2194 49.5199C76.2804 50.8021 73.5393 51.3173 69.086 51.4247Z" fill="#FFDC37"/>
<path d="M72.7462 55.0714C71.0752 55.2935 64.8784 55.2927 63.2166 55.0702C60.3144 54.6816 58.0738 54.0568 56.6327 53.2421L56.6358 53.9926C57.0089 54.1045 57.3997 54.2337 57.7127 54.3513C59.1082 54.8754 60.4052 55.6653 61.5388 56.6473C62.6875 57.0467 64.8846 57.1629 66.5115 57.1746C66.9083 57.1658 67.352 57.1608 67.8122 57.1608C72.4862 57.1603 75.8588 56.6199 78.0679 55.5177C79.2065 54.9495 79.3674 54.7571 79.3674 53.9635C79.3674 53.37 79.342 53.3022 79.1508 53.3847C77.2117 54.2223 75.2528 54.7383 72.7462 55.0714Z" fill="#FFDC37"/>
<path d="M78.4872 57.5115C76.1309 58.5762 72.4467 59.1492 67.9428 59.1515C67.0343 59.1654 65.3147 59.1549 63.7206 59.0561C64.2151 59.7564 64.6404 60.5023 64.9842 61.2798C65.687 61.2541 66.9862 61.1788 68.1557 61.1061C68.6117 61.0706 69.1525 61.0354 69.7141 61.0061C74.1363 60.7756 77.6408 59.9526 78.9652 58.8335C79.3275 58.5272 79.3674 58.4272 79.3674 57.8239C79.3674 57.4556 79.3472 57.1542 79.3226 57.1542C79.298 57.1542 78.9221 57.315 78.4872 57.5115Z" fill="#FFDC37"/>
<path d="M78.6517 61.2861C76.8604 62.1923 73.9071 62.7606 69.8002 62.9895C68.7366 63.0864 66.8714 63.21 65.6384 63.166C65.6583 63.2441 65.6773 63.3225 65.6956 63.401C65.8086 63.8883 65.8926 64.3988 65.9477 64.92C66.9311 64.9375 68.23 64.9474 69.0512 64.9129L69.2883 64.9008C73.1483 64.7077 75.9575 64.1917 77.8818 63.3222C79.0784 62.7814 79.3674 62.4559 79.3674 61.6483C79.3674 61.2867 79.3377 60.9908 79.3014 60.9908C79.2651 60.9908 78.9727 61.1237 78.6517 61.2861Z" fill="#FFDC37"/>
<path d="M78.313 65.2858C76.2809 66.1017 73.9082 66.567 70.5804 66.8021C69.406 66.9318 67.2102 67.1329 66.0117 67.1171C65.9824 67.7529 65.9116 68.3786 65.7996 68.9719C66.4101 68.9872 67.2256 68.9602 67.9594 68.9221C68.2585 68.8934 68.6306 68.8719 69.0953 68.851C73.7162 68.6427 77.5518 67.7927 78.9033 66.6775C79.342 66.3155 79.3674 66.2553 79.3674 65.5785V64.8624L78.313 65.2858Z" fill="#FFDC37"/>
<path d="M33.3284 33.2684H36.9405H42.1765C42.1384 33.1055 42.117 32.9495 42.1167 32.8096L42.1154 32.2891L42.9627 30.2981L43.7794 28.8251C45.164 26.3281 46.4858 23.2412 46.265 23.0204C46.139 22.8945 43.9507 23.2224 42.412 23.5977C39.0589 24.4157 36.5688 24.4448 33.6997 23.6997C31.8407 23.2168 30.5621 22.9963 29.6228 22.9963C29.098 22.9963 28.9968 23.033 28.9968 23.2234C28.9968 24.03 30.3269 26.8999 31.8521 29.3842C33.2062 31.5896 33.3284 31.8568 33.3284 32.6086V33.2684Z" fill="#C97629"/>
<path d="M27.9213 21.2731C27.4352 21.5845 27.0166 22.4153 27.0166 23.0688C27.0166 24.4047 28.2342 27.2395 30.2118 30.5083C31.4501 32.555 31.565 32.9493 31.0621 33.4287C30.9048 33.5788 30.2683 34.0535 29.6478 34.4839C23.5627 38.7026 18.4132 48.3368 18.0207 56.2365C17.7992 60.6952 19.3603 64.8258 22.4375 67.9229C25.7423 71.2492 30.1067 73.1309 35.6541 73.6214C36.2489 73.6572 37.131 73.6982 38.1142 73.7244C38.1761 73.7232 38.2332 73.7214 38.2849 73.7191C39.2075 73.6772 39.3181 73.6441 39.5903 73.3275C39.9705 72.8856 39.9683 72.4461 39.5839 72.0618C39.3873 71.8651 39.2697 71.7946 38.8469 71.7699C38.6004 71.7685 38.3593 71.7644 38.1297 71.7569C30.2193 71.7497 24.0528 68.5819 21.3877 63.1566C20.2894 60.9206 19.8699 58.839 20.0039 56.2879C20.377 49.1813 24.8064 40.5907 30.196 36.5215C32.0392 35.1296 31.4888 35.2486 36.0887 35.2486C40.1673 35.2486 40.6345 35.2035 40.9567 34.7796C41.2166 34.4374 41.1599 33.8391 40.839 33.5374C40.5583 33.2738 40.4787 33.2684 36.9405 33.2684H33.3284V32.6086C33.3284 31.8568 33.2062 31.5896 31.8521 29.3842C30.3269 26.8999 28.9968 24.03 28.9968 23.2234C28.9968 23.033 29.098 22.9963 29.6228 22.9963C30.5621 22.9963 31.8407 23.2168 33.6997 23.6997C36.5688 24.4448 39.0589 24.4157 42.412 23.5977C43.9507 23.2224 46.139 22.8945 46.265 23.0204C46.4858 23.2412 45.164 26.3281 43.7794 28.8251L42.9627 30.2981L42.1154 32.2891L42.1167 32.8096C42.117 32.9495 42.1384 33.1055 42.1765 33.2684C42.3179 33.8727 42.6899 34.5706 43.0712 34.8824C43.1589 34.954 43.3355 35.0862 43.559 35.2486C43.8575 35.4655 44.2397 35.7364 44.605 35.9887C46.1114 37.0289 48.9595 39.8713 50.0637 41.4366C50.5199 42.0833 51.1804 43.1292 51.5316 43.7608C51.7638 44.1053 52.0484 44.5334 52.35 44.9949C52.3673 45.0112 52.3823 45.0228 52.3946 45.0294C53.0494 45.3799 54.021 44.8642 53.8727 44.217C53.6952 43.7608 52.5954 41.5246 51.3522 39.8605C50.0823 38.1609 47.8644 35.9471 46.1995 34.7175C45.4848 34.1897 44.719 33.6174 44.4978 33.446C43.8524 32.9455 43.9293 32.5763 45.105 30.5271C46.9624 27.2896 48.0798 24.6936 48.2541 23.2109C48.354 22.3615 48.0231 21.5676 47.4213 21.212C47.0761 21.0082 46.863 20.9896 45.655 21.0579C44.8994 21.1007 43.6686 21.2781 42.9199 21.4521C39.7281 22.1936 39.7691 22.188 37.66 22.1827C35.7429 22.1778 35.5272 22.1526 34.1329 21.7703C31.228 20.9739 28.704 20.7718 27.9213 21.2731Z" fill="#C97629"/>
<path d="M21.3877 63.1566C24.0528 68.5819 30.2193 71.7497 38.1297 71.7569C38.4406 71.7571 38.6703 71.7595 38.8469 71.7699C39.6508 71.7743 40.5119 71.7493 41.2166 71.719C39.8457 68.6195 39.6635 64.9936 41.0041 61.6457C41.772 59.7278 43.4718 57.352 44.3122 57.0222C44.6807 56.6928 45.6 55.9161 46.3287 55.4442C46.8604 54.8736 49.1849 53.9515 50.7168 53.7039C51.1933 53.6268 51.7224 53.5399 51.8925 53.5108C52.3178 53.4381 53.6882 53.4963 54.7437 53.6077L54.6595 50.2449C54.6407 49.8847 54.6311 49.4483 54.6261 48.9111C54.6211 48.5581 53.3852 46.579 52.35 44.9949C52.0484 44.5334 51.7638 44.1053 51.5316 43.7608C51.1804 43.1292 50.5199 42.0833 50.0637 41.4366C48.9595 39.8713 46.1114 37.0289 44.605 35.9887C44.2397 35.7364 43.8575 35.4655 43.559 35.2486H36.0887C31.4888 35.2486 32.0392 35.1296 30.196 36.5215C24.8064 40.5907 20.377 49.1813 20.0039 56.2879C19.8699 58.839 20.2894 60.9206 21.3877 63.1566Z" fill="#C97629"/>
<path fill-rule="evenodd" clip-rule="evenodd" d="M52.9893 57.7557C52.5826 57.9249 52.3003 58.3903 52.3003 58.8922C52.3003 59.2719 52.2643 59.3562 52.1018 59.3562C51.7301 59.3562 50.6218 59.9865 50.098 60.4958C49.8059 60.7798 49.4273 61.3081 49.2392 61.6945C48.9391 62.3106 48.9027 62.4891 48.9027 63.3442C48.9027 64.2108 48.9363 64.3705 49.2522 65.0028C49.9532 66.4058 51.304 67.2722 53.041 67.4328C54.1582 67.536 54.8301 67.7927 55.2402 68.273C56.0369 69.2059 55.8338 70.4272 54.7663 71.1233C54.3557 71.391 54.2199 71.4198 53.3691 71.4198C52.4934 71.4198 52.3937 71.397 51.96 71.0965C51.4405 70.7368 51.0105 70.0819 51.0077 69.6464C51.0033 68.9296 50.5244 68.4472 49.8363 68.4664C49.5422 68.4746 49.3719 68.5611 49.1349 68.8224C48.8433 69.144 48.8255 69.213 48.8758 69.8302C48.9872 71.1977 49.8913 72.4501 51.2508 73.1203C51.666 73.3249 52.072 73.4925 52.153 73.4925C52.2529 73.4925 52.3003 73.6289 52.3003 73.9159C52.3003 74.5021 52.7456 74.9959 53.2879 75.011C53.9873 75.0305 54.4576 74.5455 54.4576 73.8044C54.4576 73.6116 54.5139 73.4925 54.6049 73.4925C54.6859 73.4925 55.0919 73.3249 55.5071 73.1203C56.4103 72.6751 57.1583 71.9299 57.5644 71.071C57.8087 70.5543 57.8519 70.3199 57.8519 69.5067C57.8519 68.6921 57.809 68.4593 57.5627 67.9386C56.8906 66.517 55.543 65.5988 53.8427 65.404C52.6683 65.2695 52.24 65.1449 51.7762 64.803C51.3633 64.4985 51.0118 63.8208 51.0083 63.3223C50.9951 61.4317 53.9434 60.5894 55.2437 62.1123C55.5271 62.4443 55.6853 62.845 55.8008 63.5234C55.916 64.2002 56.7412 64.5769 57.3758 64.2422C58.2835 63.7635 57.9388 61.8555 56.7139 60.5793C56.1668 60.0093 55.068 59.3562 54.656 59.3562C54.4928 59.3562 54.4576 59.2716 54.4576 58.8796C54.4576 58.0769 53.6689 57.4732 52.9893 57.7557Z" fill="white"/>
</svg>
