<svg width="100" height="100" viewBox="0 0 100 100" fill="none" xmlns="http://www.w3.org/2000/svg">
<circle cx="50" cy="50" r="50" fill="#333333"/>
<g clip-path="url(#clip0_1_349)">
<path d="M21.4674 52.311V67.9981V68.0204H25.5591H29.6507V67.9981V52.311V36.6016H25.5591H21.4674V52.311Z" fill="#F03D00"/>
<path d="M38.1263 57.9372V67.9981V68.0204H42.1449H46.1634V67.9981V57.9372V47.854H42.1449H38.1263V57.9372Z" fill="white"/>
<path d="M54.4929 57.0604V67.9981V68.0204H58.5845H62.6762V67.9981V57.1579C62.6762 51.1833 62.6323 46.2513 62.5787 46.1978C62.5252 46.1442 60.684 46.1003 58.4871 46.1003H54.4929V57.0604Z" fill="#F03D00"/>
<path d="M71.0056 60.4215C71.0056 63.3803 71.0056 65.0392 71.0056 67.9981V68.0204H75.0973H79.1889V67.9981V60.4215V52.8225H75.0973H71.0056V60.4215Z" fill="white"/>
<path d="M31.4576 34.5664L31.8427 34.8692V51.4449C31.8427 57.9093 31.8427 61.5337 31.8427 67.9981H29.6507V52.311V36.6016H25.5591H21.4674V52.311V67.9981H19.2754V51.4895V34.9809L19.6342 34.6223L19.9928 34.2635H25.5327C30.916 34.2635 31.0835 34.2721 31.4576 34.5664Z" fill="#F03D00"/>
<path d="M35.7882 57.083C35.7882 46.1495 35.7883 46.1455 36.0958 45.8673C36.3872 45.6035 36.7028 45.5889 42.083 45.5889H47.7627L48.0956 45.9216L48.4285 46.2545L48.4695 57.1374L48.5104 67.9981H46.1634V57.9372V47.854H42.1449H38.1263V57.9372V67.9981H35.7882V57.083Z" fill="white"/>
<path d="M52.3009 56.2566C52.3009 44.6877 52.3057 44.4881 52.5932 44.2006C52.8754 43.9184 53.0802 43.9083 58.5739 43.9083H64.2624L64.5652 44.2934C64.8659 44.6757 64.8681 44.7635 64.8681 56.3494V67.9981H62.6762V57.1579C62.6762 51.1833 62.6323 46.2513 62.5787 46.1978C62.5252 46.1442 60.684 46.1003 58.4871 46.1003H54.4929V57.0604V67.9981H52.3009V56.2566Z" fill="#F03D00"/>
<path d="M68.6675 59.7707C68.6675 53.9507 68.7162 51.4144 68.8327 51.1588C69.1324 50.5007 69.4273 50.4714 75.2992 50.5158L80.8224 50.5574L81.1016 50.9024C81.3693 51.2331 81.3809 51.5957 81.3809 59.6339V67.9981H79.1889V60.4215V52.8225H75.0973H71.0056V60.4215C71.0056 63.3803 71.0056 65.0392 71.0056 67.9981H68.6675V59.7707Z" fill="white"/>
<path d="M37.7229 33.6059C40.9027 36.1377 43.5813 38.2091 43.6754 38.2091C43.7695 38.2091 47.1751 36.8242 51.2434 35.1315C56.3747 32.9965 58.7418 32.0792 58.9713 32.137C59.3396 32.2293 75.2099 43.4995 75.4991 43.8739C75.5997 44.0039 75.6818 44.3232 75.6818 44.5833C75.6818 45.1931 75.0682 45.7219 74.4937 45.607C74.28 45.5642 70.6407 43.0539 66.4066 40.0283C61.4911 36.5159 58.6199 34.5524 58.4638 34.5964C58.3292 34.6342 54.9478 36.0215 50.9494 37.6792C46.9511 39.337 43.5182 40.6934 43.3209 40.6934C43.075 40.6934 41.8223 39.7896 39.3386 37.8201C37.3456 36.2397 34.6301 34.0928 33.304 33.0493C31.9778 32.0056 30.7777 31.0225 30.6371 30.8647C30.2696 30.4523 30.3095 29.7057 30.7195 29.3204C31.4575 28.6271 31.5107 28.6597 37.7229 33.6059Z" fill="white"/>
<path d="M31.8427 68.0204H33.8154H35.7882V67.9981H38.1263V68.0204H42.1449H46.1634V67.9981H48.5104L48.5104 68.0204H50.4058H52.3009V67.9981H54.4929V68.0204H58.5845H62.6762V67.9981H64.8681V68.0204H66.7678H68.6675V67.9981H71.0056V68.0204H75.0973H79.1889V67.9981H81.3809V68.0204H84.0017C85.4614 68.0204 86.7995 68.0876 87.0219 68.1722C87.8613 68.4914 88.0706 69.3812 87.4519 69.9998L87.0932 70.3586H50.4012H13.7092L13.3506 69.9998C12.9151 69.5645 12.8822 68.9188 13.271 68.4385C13.5445 68.1004 13.6076 68.0925 16.4128 68.0458L19.2754 67.9981H21.4674V68.0204H25.5591H29.6507V67.9981H31.8427V68.0204Z" fill="#F03D00"/>
</g>
<defs>
<clipPath id="clip0_1_349">
<rect width="74" height="74" fill="white" transform="translate(13 13)"/>
</clipPath>
</defs>
</svg>
