<svg width="100" height="100" viewBox="0 0 100 100" fill="none" xmlns="http://www.w3.org/2000/svg">
<circle cx="50" cy="50" r="49" fill="#333333" stroke="#EDEDED" stroke-width="2"/>
<path d="M27.4113 39.1263C27.4113 40.4822 27.4082 40.4964 27.1582 40.2704C26.8222 39.9665 26.5916 39.2379 26.6846 38.7732C26.77 38.347 27.1265 37.7533 27.2971 37.7533C27.36 37.7533 27.4113 38.3712 27.4113 39.1263Z" fill="#FFDDA9"/>
<path d="M34.4037 22.7095C34.4068 24.3287 35.0313 25.7628 36.1969 26.827C36.587 27.183 37.0975 27.5654 37.3313 27.6768C37.5649 27.7881 37.7562 27.9203 37.7562 27.9703C37.7562 28.0204 37.4177 28.3745 37.0041 28.757C35.1519 30.4698 32.8266 31.5318 30.4077 31.77L29.5 31.8593V31.1662C29.5001 29.1068 30.5331 26.1912 31.9142 24.3524C32.4281 23.6681 34.1446 21.9042 34.2966 21.9042C34.3546 21.9042 34.4028 22.2667 34.4037 22.7095Z" fill="#C97629"/>
<path d="M54.6308 35.144C54.6306 42.3832 54.5821 43.1039 53.9689 44.9656C52.6257 49.0437 49.2549 52.2294 45.0761 53.37C44.1459 53.6238 43.6985 53.6652 41.9887 53.6557C40.2016 53.6456 39.8658 53.6072 38.8281 53.2936C37.2608 52.82 36.0241 52.2085 34.8099 51.307C32.4792 49.5765 30.9309 47.3329 30.0361 44.3893C29.685 43.2345 29.6833 43.2098 29.6342 38.5785L29.5849 33.9274L30.6588 33.8489C33.8165 33.6184 36.8284 32.1409 39.2796 29.6203L40.5051 28.3599L47.568 28.3535L54.631 28.3469L54.6308 35.144Z" fill="#FFDDA9"/>
<path d="M51.7062 19.3721C54.6183 20.2037 56.9197 22.5201 57.6567 25.361C57.7664 25.7835 57.856 26.1658 57.856 26.2105C57.856 26.2552 53.6619 26.2759 48.5356 26.2563L39.2151 26.2208L38.6346 25.9167C37.8483 25.5049 37.379 25.0468 37.0167 24.3379C35.9507 22.2511 37.12 19.7486 39.3991 19.2398C39.9273 19.1219 41.5562 19.0895 45.5362 19.1182C50.1238 19.1514 51.0695 19.1903 51.7062 19.3721Z" fill="#C97629"/>
<path d="M57.3506 38.623C57.5303 39.167 57.3521 39.9052 56.9542 40.265C56.6962 40.4982 56.695 40.493 56.695 39.1063C56.695 37.7304 56.6981 37.7162 56.9481 37.9422C57.0874 38.0681 57.2686 38.3744 57.3506 38.623Z" fill="#FFDDA9"/>
<path d="M48.5405 55.5559L48.5033 56.7361L45.3529 58.7019L42.2025 60.6677L41.4686 60.1954C41.065 59.9357 39.7137 59.0562 38.4657 58.2412L36.1968 56.7594L36.1902 55.6825C36.1842 54.7177 36.2045 54.6161 36.4032 54.6916C36.4052 54.6924 36.4073 54.6932 36.4093 54.694C38.4202 55.4801 40.0651 55.806 42.0532 55.812C44.1638 55.8185 46.0392 55.4272 47.9228 54.587C48.1711 54.4763 48.42 54.3834 48.476 54.3806C48.5318 54.3779 48.5609 54.9067 48.5405 55.5559Z" fill="#E7C48F"/>
<path d="M37.9573 60.4383L41.0856 62.501V68.1023V73.7038H30.6364H20.1871L20.1891 69.6126C20.1905 66.4002 20.2333 65.3416 20.388 64.6839C20.9766 62.1816 22.8762 59.9925 25.3473 58.9686C26.6168 58.4426 27.0453 58.3992 31.0879 58.3869L34.829 58.3755L37.9573 60.4383Z" fill="white"/>
<path d="M53.7248 63.4276C53.7253 66.3462 53.7831 68.8394 53.8615 69.3227C54.0347 70.3912 54.5372 71.8688 55.0775 72.8984L55.5 73.7038H49.3859H43.2718L43.3053 68.0809L43.339 62.458L46.5641 60.4236L49.7892 58.3891L51.7565 58.3796L53.7238 58.3701L53.7248 63.4276Z" fill="white"/>
<path fill-rule="evenodd" clip-rule="evenodd" d="M79.5285 62.7453C79.5285 68.3792 79.5124 68.806 79.267 69.6907C78.7319 71.6194 77.5353 73.5909 76.2098 74.7278C75.871 75.0183 73.8117 76.4664 71.6332 77.9459L67.6724 80.6358L63.6995 77.9309C61.5144 76.4431 59.481 75.0254 59.1808 74.7803C57.6387 73.5216 56.2431 70.9218 55.9232 68.7122C55.8539 68.233 55.796 65.3441 55.7946 62.2925L55.792 56.7442L61.7522 53.8413L67.7123 50.9386L73.6204 53.8406L79.5285 56.7425V62.7453ZM69.0803 64.6088C70.6762 63.0084 72.098 61.6494 72.2399 61.5889C72.3818 61.5283 72.5751 61.5041 72.6697 61.5351C72.7641 61.5661 72.8925 61.5914 72.9549 61.5914C73.227 61.5914 73.5944 62.1787 73.5944 62.6138C73.5944 63.0421 73.3634 63.3025 70.0721 66.584C66.6644 69.9815 66.5333 70.0958 66.0455 70.0958C65.5678 70.0958 65.4404 69.9951 63.6337 68.1905C61.8529 66.4119 61.7261 66.2529 61.7261 65.8009C61.7261 65.4584 61.8189 65.2238 62.0428 65.0003C62.678 64.3657 63.2012 64.6145 64.7358 66.2814C65.3622 66.962 65.9432 67.5187 66.0268 67.5187C66.1104 67.5187 67.4846 66.2093 69.0803 64.6088Z" fill="#F03D00"/>
<path d="M72.2399 61.5889C72.098 61.6494 70.6762 63.0084 69.0803 64.6088C67.4846 66.2093 66.1104 67.5187 66.0268 67.5187C65.9432 67.5187 65.3622 66.962 64.7358 66.2814C63.2012 64.6145 62.678 64.3657 62.0428 65.0003C61.8189 65.2238 61.7261 65.4584 61.7261 65.8009C61.7261 66.2529 61.8529 66.4119 63.6337 68.1905C65.4404 69.9951 65.5678 70.0958 66.0455 70.0958C66.5333 70.0958 66.6644 69.9815 70.0721 66.584C73.3634 63.3025 73.5944 63.0421 73.5944 62.6138C73.5944 62.1787 73.227 61.5914 72.9549 61.5914C72.8925 61.5914 72.7641 61.5661 72.6697 61.5351C72.5751 61.5041 72.3818 61.5283 72.2399 61.5889Z" fill="white"/>
<path fill-rule="evenodd" clip-rule="evenodd" d="M57.2382 75.8977L57.902 76.4609C58.2669 76.7705 60.5393 78.3679 62.9516 80.0106C66.6591 82.5349 67.3976 82.9899 67.7248 82.9509C68.2842 82.8843 76.7565 77.1003 77.954 75.9675C79.5187 74.4875 80.7247 72.4231 81.367 70.1247C81.6353 69.165 81.6454 68.8887 81.6512 62.4005C81.657 55.838 81.6508 55.6654 81.3991 55.4183C81.2572 55.2789 78.1554 53.7064 74.5063 51.924C69.323 49.392 67.796 48.6982 67.5256 48.7522C66.9515 48.8669 54.197 55.1389 53.9537 55.4261C53.8295 55.5728 53.7279 55.8022 53.7279 55.9361L53.7279 55.9383L53.7238 58.3701L53.7248 63.4276C53.7253 66.3462 53.7831 68.8394 53.8615 69.3227C54.0347 70.3912 54.5372 71.8688 55.0775 72.8984L55.5 73.7038L57.2382 75.8977ZM79.267 69.6907C79.5124 68.806 79.5285 68.3792 79.5285 62.7453V56.7425L73.6204 53.8406L67.7123 50.9386L61.7522 53.8413L55.792 56.7442L55.7946 62.2925C55.796 65.3441 55.8539 68.233 55.9232 68.7122C56.2431 70.9218 57.6387 73.5216 59.1808 74.7803C59.481 75.0254 61.5144 76.4431 63.6995 77.9309L67.6724 80.6358L71.6332 77.9459C73.8117 76.4664 75.871 75.0183 76.2098 74.7278C77.5353 73.5909 78.7319 71.6194 79.267 69.6907Z" fill="#E8E8E8"/>
<path fill-rule="evenodd" clip-rule="evenodd" d="M56.7595 28.4114L54.631 28.3469L54.6308 35.144C54.6306 42.3832 54.5821 43.1039 53.9689 44.9656C52.6257 49.0437 49.2549 52.2294 45.0761 53.37C44.1459 53.6238 43.6985 53.6652 41.9887 53.6557C40.2016 53.6456 39.8658 53.6072 38.8281 53.2936C37.2608 52.82 36.0241 52.2085 34.8099 51.307C32.4792 49.5765 30.9309 47.3329 30.0361 44.3893C29.685 43.2345 29.6833 43.2098 29.6342 38.5785L29.5849 33.9274C28.861 33.9585 27.4167 33.8696 27.4123 33.2665L27.4113 35.2748L26.7106 35.6173C24.5028 36.6962 23.8739 39.6606 25.4601 41.5116C25.9433 42.0754 26.689 42.5932 27.2038 42.7222C27.46 42.7865 27.5512 42.9097 27.6123 43.275C28.0103 45.6494 29.017 47.9787 30.5269 50.0184C31.2079 50.9385 33.0987 52.798 33.7348 53.1734L34.1195 53.4003C34.7495 53.7799 36.082 54.5658 36.4032 54.6916L36.4093 54.694C38.4202 55.4801 40.0651 55.806 42.0532 55.812C44.1638 55.8185 46.0392 55.4272 47.9228 54.587C48.1711 54.4763 48.42 54.3834 48.476 54.3806C49.0021 54.0771 50.0699 53.4201 50.8666 52.8132L51.4043 52.3702C53.9008 50.3143 55.7777 47.0872 56.442 43.7089C56.5994 42.9084 56.6079 42.8967 57.2311 42.6288C58.1095 42.2514 59.0369 41.2091 59.3343 40.265C59.9154 38.4192 59.027 36.3987 57.2716 35.5745L56.6908 35.3017L56.7252 31.8566L56.7595 28.4114ZM27.4113 39.1263C27.4113 40.4822 27.4082 40.4964 27.1582 40.2704C26.8222 39.9665 26.5916 39.2379 26.6846 38.7732C26.77 38.347 27.1265 37.7533 27.2971 37.7533C27.36 37.7533 27.4113 38.3712 27.4113 39.1263ZM57.3506 38.623C57.5303 39.167 57.3521 39.9052 56.9542 40.265C56.6962 40.4982 56.695 40.493 56.695 39.1063C56.695 37.7304 56.6981 37.7162 56.9481 37.9422C57.0874 38.0681 57.2686 38.3744 57.3506 38.623Z" fill="#FFDDA9"/>
<path fill-rule="evenodd" clip-rule="evenodd" d="M38.7636 17.1907C37.9665 17.4215 34.8972 18.9694 33.797 19.6955C31.7728 21.0313 29.7037 23.5447 28.685 25.9049C27.7231 28.1334 27.4142 29.9194 27.4124 33.2606L27.4123 33.2665C27.4167 33.8696 28.861 33.9585 29.5849 33.9274L30.6588 33.8489C33.8165 33.6184 36.8284 32.1409 39.2796 29.6203L40.5051 28.3599L47.568 28.3535L54.631 28.3469L56.7595 28.4114L58.1423 28.3469C59.9304 28.2636 59.9904 28.2115 59.9688 26.7629C59.9344 24.4437 58.9127 22.074 57.1621 20.2526C55.805 18.8404 54.35 17.9575 52.4159 17.3726C51.5046 17.0969 51.2513 17.0854 45.4072 17.0546C40.7267 17.03 39.2117 17.0609 38.7636 17.1907ZM57.6567 25.361C56.9197 22.5201 54.6183 20.2037 51.7062 19.3721C51.0695 19.1903 50.1238 19.1514 45.5362 19.1182C41.5562 19.0895 39.9273 19.1219 39.3991 19.2398C37.12 19.7486 35.9507 22.2511 37.0167 24.3379C37.379 25.0468 37.8483 25.5049 38.6346 25.9167L39.2151 26.2208L48.5356 26.2563C53.6619 26.2759 57.856 26.2552 57.856 26.2105C57.856 26.1658 57.7664 25.7835 57.6567 25.361ZM36.1969 26.827C35.0313 25.7628 34.4068 24.3287 34.4037 22.7095C34.4028 22.2667 34.3546 21.9042 34.2966 21.9042C34.1446 21.9042 32.4281 23.6681 31.9142 24.3524C30.5331 26.1912 29.5001 29.1068 29.5 31.1662V31.8593L30.4077 31.77C32.8266 31.5318 35.1519 30.4698 37.0041 28.757C37.4177 28.3745 37.7562 28.0204 37.7562 27.9703C37.7562 27.9203 37.5649 27.7881 37.3313 27.6768C37.0975 27.5654 36.587 27.183 36.1969 26.827Z" fill="#C97629"/>
<path fill-rule="evenodd" clip-rule="evenodd" d="M34.1195 56.1481L30.5396 56.2127C26.4113 56.2869 25.7125 56.409 23.7347 57.4019C21.7194 58.4134 20.2051 59.9362 19.1621 61.9996C18.1135 64.0741 18.0586 64.4818 18.0586 70.1894V75.115L18.4163 75.4724L18.7739 75.8299L38.0061 75.8638L57.2382 75.8977L55.5 73.7038H49.3859H43.2718L43.3053 68.0809L43.339 62.458L46.5641 60.4236L49.7892 58.3891L51.7565 58.3796L53.7238 58.3701L53.7279 55.9383C53.7272 56.1614 53.607 56.1795 52.1799 56.1795H50.6319L42.2025 60.6677L34.1195 56.1481ZM41.0856 62.501L37.9573 60.4383L34.829 58.3755L31.0879 58.3869C27.0453 58.3992 26.6168 58.4426 25.3473 58.9686C22.8762 59.9925 20.9766 62.1816 20.388 64.6839C20.2333 65.3416 20.1905 66.4002 20.1891 69.6126L20.1871 73.7038H30.6364H41.0856V68.1023V62.501Z" fill="white"/>
<path d="M50.6319 56.1795V54.593V53.0065L50.8666 52.8132C50.0699 53.4201 49.0021 54.0771 48.476 54.3806C48.5318 54.3779 48.5609 54.9067 48.5405 55.5559L48.5033 56.7361L45.3529 58.7019L42.2025 60.6677L50.6319 56.1795Z" fill="#E7C48F"/>
<path d="M34.1195 53.4003V54.7743V56.1481L42.2025 60.6677L41.4686 60.1954C41.065 59.9357 39.7137 59.0562 38.4657 58.2412L36.1968 56.7594L36.1902 55.6825C36.1842 54.7177 36.2045 54.6161 36.4032 54.6916C36.082 54.5658 34.7495 53.7799 34.1195 53.4003Z" fill="#E7C48F"/>
</svg>
