<svg width="100" height="100" viewBox="0 0 100 100" fill="none" xmlns="http://www.w3.org/2000/svg">
<circle cx="50" cy="50" r="50" fill="#333333"/>
<path fill-rule="evenodd" clip-rule="evenodd" d="M79.0106 58.5022L75.9196 58.4653C75.1417 58.4559 74.5573 58.4477 74.1136 58.4362H68.419L68.4155 58.4402L53.726 58.4362C42.374 58.4333 38.9916 58.398 38.8397 58.2812C38.4099 57.9511 38.3549 57.6101 38.3549 55.277V52.9654L37.9928 52.603C37.5207 52.1305 37.1384 52.1434 36.469 52.6547C34.2573 54.3445 22.2548 63.8635 22.0332 64.1037C21.6945 64.4707 21.6649 65.1286 21.9713 65.4835C22.1363 65.6748 29.8804 71.8237 36.3913 76.9335C37.0923 77.4835 37.5231 77.5187 37.9783 77.0632L38.3549 76.6862V74.3766C38.3549 72.549 38.3943 71.9907 38.5439 71.7012C38.6479 71.5001 38.7454 71.3221 38.7607 71.3057C38.776 71.2895 47.8385 71.2475 58.8994 71.2127L79.0103 71.1495L79.3093 70.8015L79.6083 70.4536V64.8258V59.1981L79.3094 58.8501L79.0106 58.5022ZM75.3962 65.5894C75.4526 64.3647 75.4841 64.224 75.7506 64.0085C76.1836 63.6582 76.7122 63.706 77.1401 64.1343L77.5022 64.4967V66.2961C77.5022 67.2857 77.4468 68.2413 77.3791 68.4195C77.1788 68.9471 76.5975 69.1036 74.8387 69.1036C73.0601 69.1036 72.4994 68.9491 72.2914 68.4014C72.1456 68.0175 72.2015 67.6728 72.4692 67.3057C72.625 67.0918 72.8348 67.0491 73.9921 66.9957L75.3343 66.9337L75.3962 65.5894Z" fill="#F03D00"/>
<path d="M75.7506 64.0085C75.4841 64.224 75.4526 64.3647 75.3962 65.5894L75.3343 66.9337L73.9921 66.9957C72.8348 67.0491 72.625 67.0918 72.4692 67.3057C72.2015 67.6728 72.1456 68.0175 72.2914 68.4014C72.4994 68.9491 73.0601 69.1036 74.8387 69.1036C76.5975 69.1036 77.1788 68.9471 77.3791 68.4195C77.4468 68.2413 77.5022 67.2857 77.5022 66.2961V64.4967L77.1401 64.1343C76.7122 63.706 76.1836 63.6582 75.7506 64.0085Z" fill="#F03D00"/>
<path d="M36.3197 50.3095C36.0522 50.4091 35.6619 50.617 35.4526 50.7716C34.4526 51.51 20.8994 62.239 20.5507 62.5683C19.3366 63.7147 19.3284 65.9721 20.5343 67.0762C20.6944 67.2226 24.1869 69.9978 28.2954 73.2431C34.8514 78.4215 35.8505 79.1683 36.4596 79.3455C37.6924 79.7042 38.7902 79.3661 39.6807 78.3536C40.3472 77.5957 40.4609 77.1176 40.4609 75.0718V73.3193H59.6404C76.1982 73.3193 78.9042 73.2943 79.4363 73.1362C80.181 72.9149 81.0049 72.237 81.3778 71.5392C81.6508 71.0284 81.6523 70.9893 81.6523 64.8258C81.6523 58.6948 81.6493 58.6206 81.3825 58.1218C80.9913 57.3901 80.2236 56.7496 79.4692 56.5253L75.9196 58.4362H74.1136C74.5573 58.4477 75.1417 58.4559 75.9196 58.4653L79.0106 58.5022L79.3094 58.8501L79.6083 59.1981V64.8258V70.4536L79.3093 70.8015L79.0103 71.1495L58.8994 71.2127C47.8385 71.2475 38.776 71.2895 38.7607 71.3057C38.7454 71.3221 38.6479 71.5001 38.5439 71.7012C38.3943 71.9907 38.3549 72.549 38.3549 74.3766V76.6862L37.9783 77.0632C37.5231 77.5187 37.0923 77.4835 36.3913 76.9335C29.8804 71.8237 22.1363 65.6748 21.9713 65.4835C21.6649 65.1286 21.6945 64.4707 22.0332 64.1037C22.2548 63.8635 34.2573 54.3445 36.469 52.6547C37.1384 52.1434 37.5207 52.1305 37.9928 52.603L38.3549 52.9654V55.277C38.3549 57.6101 38.4099 57.9511 38.8397 58.2812C38.9916 58.398 42.374 58.4333 53.726 58.4362H68.419L68.6664 58.1612C68.8044 58.0078 68.953 57.7814 68.9965 57.6583C69.1192 57.3111 68.7608 56.5948 68.3946 56.4556C68.3802 56.4501 68.3422 56.4447 68.2809 56.4396L54.2745 56.3323H40.478L40.4385 54.3794C40.395 52.2306 40.3031 51.8894 39.5637 51.1323C38.7349 50.284 37.3396 49.9301 36.3197 50.3095Z" fill="#F03D00"/>
<path d="M72.5653 58.1828C72.0268 57.6806 72.1433 56.8226 72.7946 56.4928C72.807 56.4865 72.8225 56.4804 72.841 56.4745L68.2809 56.4396C68.3422 56.4447 68.3802 56.4501 68.3946 56.4556C68.7608 56.5948 69.1192 57.3111 68.9965 57.6583C68.953 57.7814 68.8044 58.0078 68.6664 58.1612L68.419 58.4362H74.1136C72.9143 58.4051 72.7444 58.3498 72.5653 58.1828Z" fill="#F03D00"/>
<path d="M72.7946 56.4928C72.1433 56.8226 72.0268 57.6806 72.5653 58.1828C72.7444 58.3498 72.9143 58.4051 74.1136 58.4362H75.9196L79.4692 56.5253L72.841 56.4745C72.8225 56.4804 72.807 56.4865 72.7946 56.4928Z" fill="#F03D00"/>
<path fill-rule="evenodd" clip-rule="evenodd" d="M45.7198 26.6981L32.2215 26.815C33.5489 26.6965 36.5644 26.6969 43.6013 26.6979H43.6056L45.7198 26.6981ZM54.2745 56.3323L68.2809 56.4396C67.4623 56.3706 62.4978 56.3323 54.2745 56.3323ZM53.726 58.4362H68.419L68.4155 58.4402L53.726 58.4362ZM72.841 56.4745L79.4692 56.5253C78.6388 56.2785 73.5499 56.2475 72.841 56.4745Z" fill="#777777"/>
<path d="M31.3335 28.527C30.9768 28.1303 30.9134 27.875 31.0645 27.4418C31.0778 27.4033 31.0887 27.3669 31.0989 27.3323C31.1798 27.0597 31.2261 26.9039 32.2215 26.815L27.2054 26.8585C27.8567 27.1883 27.9732 28.0464 27.4347 28.5485C27.2478 28.7228 27.0708 28.7755 25.7224 28.8059H31.5845L31.3335 28.527Z" fill="#EDEDED"/>
<path d="M27.4347 28.5485C27.9732 28.0464 27.8567 27.1883 27.2054 26.8585L24.1126 28.8059H25.7224C27.0708 28.7755 27.2478 28.7228 27.4347 28.5485Z" fill="#EDEDED"/>
<path d="M61.8921 20.6142C60.93 20.9072 59.9434 21.8423 59.6847 22.7064C59.6028 22.9798 59.5391 23.9609 59.5391 24.9456V26.6981H45.7198L32.2215 26.815C31.2261 26.9039 31.1798 27.0597 31.0989 27.3323C31.0887 27.3669 31.0778 27.4033 31.0645 27.4418C30.9134 27.875 30.9768 28.1303 31.3335 28.527L31.5845 28.8059H46.2331C54.2897 28.8059 60.9718 28.7712 61.082 28.7289C61.5529 28.548 61.6451 28.0424 61.6451 25.6408V23.3312L62.0217 22.9542C62.3357 22.6399 62.4631 22.5903 62.7878 22.6553C63.0021 22.6982 63.2646 22.8069 63.3713 22.8969C63.478 22.9871 66.7429 25.5599 70.6267 28.6144C74.5104 31.6689 77.8134 34.3039 77.9668 34.4698C78.1417 34.659 78.2455 34.928 78.2455 35.1916C78.2455 35.4543 78.1411 35.726 77.9668 35.9166C77.7426 36.1619 65.8817 45.5678 63.5867 47.3203C62.8624 47.8734 62.4881 47.8957 62.0072 47.4144L61.6451 47.052V44.7544C61.6451 42.3498 61.576 41.9603 61.105 41.7136C60.9132 41.613 55.3304 41.5664 40.9147 41.545L20.9897 41.5152L20.6907 41.1673L20.3917 40.8193V35.1916V29.5638L20.6906 29.2159L20.9894 28.8679L24.0804 28.831C24.766 28.8228 25.3013 28.8154 25.7224 28.8059H24.1126L27.2054 26.8585C26.7321 26.619 21.3847 26.6372 20.5637 26.8812C19.819 27.1025 18.9951 27.7804 18.6222 28.4782C18.3493 28.989 18.3477 29.0281 18.3477 35.1916C18.3477 41.3226 18.3506 41.3968 18.6175 41.8956C18.7658 42.1731 19.1109 42.6024 19.3843 42.8496C19.4402 42.9002 19.4886 42.9477 19.5341 42.9923C19.5854 43.0427 19.6331 43.0895 19.6836 43.1329C20.3304 43.6879 21.4528 43.6878 36.9336 43.6854H36.9515C38.018 43.6852 39.1525 43.6851 40.3596 43.6851H59.5391V45.4609C59.5391 47.5244 59.6839 48.1083 60.371 48.8164C61.0955 49.5628 61.691 49.8176 62.6981 49.8114C63.3362 49.8076 63.6961 49.7367 64.0608 49.543C64.5336 49.2919 78.8107 38.0688 79.5104 37.3983C80.6937 36.2642 80.6404 34.0203 79.403 32.8843C79.2092 32.7065 75.7189 29.9324 71.6467 26.7199C65.4711 21.8478 64.1367 20.8473 63.6029 20.6886C62.9183 20.4852 62.3914 20.4622 61.8921 20.6142Z" fill="white"/>
<path fill-rule="evenodd" clip-rule="evenodd" d="M46.2331 28.8059H31.5845H25.7224C25.3013 28.8154 24.766 28.8228 24.0804 28.831L20.9894 28.8679L20.6906 29.2159L20.3917 29.5638V35.1916V40.8193L20.6907 41.1673L20.9897 41.5152L40.9147 41.545C55.3304 41.5664 60.9132 41.613 61.105 41.7136C61.576 41.9603 61.6451 42.3498 61.6451 44.7544V47.052L62.0072 47.4144C62.4881 47.8957 62.8624 47.8734 63.5867 47.3203C65.8817 45.5678 77.7426 36.1619 77.9668 35.9166C78.1411 35.726 78.2455 35.4543 78.2455 35.1916C78.2455 34.928 78.1417 34.659 77.9668 34.4698C77.8134 34.3039 74.5104 31.6689 70.6267 28.6144C66.7429 25.5599 63.478 22.9871 63.3713 22.8969C63.2646 22.8069 63.0021 22.6982 62.7878 22.6553C62.4631 22.5903 62.3357 22.6399 62.0217 22.9542L61.6451 23.3312V25.6408C61.6451 28.0424 61.5529 28.548 61.082 28.7289C60.9718 28.7712 54.2897 28.8059 46.2331 28.8059ZM22.4807 34.8796L22.8513 34.5086C23.2658 34.0937 23.577 34.0486 24.1126 34.3258C24.5452 34.5498 24.5944 34.7246 24.6348 36.1835L24.6657 37.2994L25.7807 37.3304C27.2454 37.3711 27.4126 37.4193 27.6445 37.8682C27.9173 38.3962 27.7777 38.9288 27.2865 39.2347C26.9352 39.4533 26.7047 39.4744 25.0095 39.4427C22.4586 39.3949 22.5731 39.5136 22.5202 36.8614L22.4807 34.8796Z" fill="white"/>
<path d="M22.8513 34.5086L22.4807 34.8796L22.5202 36.8614C22.5731 39.5136 22.4586 39.3949 25.0095 39.4427C26.7047 39.4744 26.9352 39.4533 27.2865 39.2347C27.7777 38.9288 27.9173 38.3962 27.6445 37.8682C27.4126 37.4193 27.2454 37.3711 25.7807 37.3304L24.6657 37.2994L24.6348 36.1835C24.5944 34.7246 24.5452 34.5498 24.1126 34.3258C23.577 34.0486 23.2658 34.0937 22.8513 34.5086Z" fill="white"/>
</svg>
