<svg width="100" height="100" viewBox="0 0 100 100" fill="none" xmlns="http://www.w3.org/2000/svg">
<circle cx="50" cy="50" r="50" fill="#333333"/>
<path d="M38.8924 42.3206C34.9904 46.1504 31.7156 49.4397 31.615 49.6303C31.1457 50.5203 31.7611 51.5299 32.773 51.5299C32.9364 51.5299 33.2963 51.3627 33.5729 51.1583C34.563 50.4267 47.6622 37.2293 47.7484 36.8766C47.8584 36.4267 47.5054 35.6929 47.088 35.5037C47.0564 35.4894 47.0262 35.4752 46.9973 35.4615C46.8936 35.4128 46.8041 35.3707 46.71 35.351C46.1181 35.2273 45.341 35.9902 39.6772 41.5502C39.4254 41.7974 39.164 42.0541 38.8924 42.3206Z" fill="#777777"/>
<path fill-rule="evenodd" clip-rule="evenodd" d="M32.7863 33.8066C31.6534 34.1186 30.7162 34.8793 30.1704 35.93C29.6791 36.8758 29.6837 38.2187 30.1818 39.2321C30.8176 40.5257 31.9487 41.2659 33.431 41.3589C35.1026 41.4635 36.5035 40.6306 37.199 39.1186C37.4842 38.4984 37.5172 38.2821 37.4684 37.3542C37.4065 36.1804 37.1121 35.5188 36.3112 34.7544C35.4794 33.9603 33.8345 33.5181 32.7863 33.8066ZM34.5371 38.4478C35.1629 37.825 35.0323 36.8413 34.2718 36.4498C33.4683 36.0362 32.5549 36.477 32.3887 37.3585C32.1662 38.539 33.6762 39.3047 34.5371 38.4478Z" fill="#777777"/>
<path fill-rule="evenodd" clip-rule="evenodd" d="M44.1116 45.7076C43.3371 45.9807 42.466 46.8006 42.046 47.6519C41.5454 48.6665 41.5412 50.007 42.0356 50.9523C42.7345 52.2889 43.9882 53.0908 45.4124 53.1122C47.0124 53.1364 48.2592 52.392 48.9613 50.9935C49.2926 50.3335 49.357 50.0555 49.357 49.2837C49.357 47.0988 47.733 45.4873 45.5528 45.5088C45.0563 45.5136 44.4078 45.6031 44.1116 45.7076ZM45.1849 50.5066C46.3811 50.9216 47.3221 49.3498 46.4314 48.4244C46.1611 48.1436 45.9696 48.0653 45.5609 48.0682C44.9111 48.0731 44.6433 48.2229 44.3807 48.7281C43.998 49.465 44.3357 50.2119 45.1849 50.5066Z" fill="#777777"/>
<path d="M67.9265 48.0682V41.4097V30.7566V28.5647V26.3728H61.2208C56.9418 26.3728 54.5225 26.4489 54.5225 26.5288C54.6433 26.637 54.7559 26.7436 54.8586 26.8476C55.5 27.5 57.4531 29.5703 58.3708 30.9319C62.8071 37.5141 63.4204 45.9372 59.9827 53.0701C58.7119 55.707 57.384 57.5251 55.195 59.6254C53.512 61.2402 52.0359 62.3093 50.0144 63.3773L49.4748 63.6625L48.6854 64.0797L54.1941 69.9341C57.2237 73.1541 59.7464 75.7885 59.7996 75.7885C59.853 75.7885 64.1194 71.2977 69.2806 65.8091L78.6646 55.8297L73.7146 55.7655C68.408 55.6967 68.3682 55.6915 68.0646 55.0284C67.9721 54.8263 67.9265 52.5287 67.9265 48.0682Z" fill="white"/>
<path d="M44.1343 65.4519C44.9854 65.2666 45.7714 65.105 45.8809 65.093C45.9936 65.0806 48.6467 67.8044 51.9857 71.3604C59.5055 79.3685 59.1257 78.9973 59.8005 78.9973C60.2673 78.9973 60.4187 78.9179 60.9615 78.3877C62.9254 76.4693 82.8993 55.0488 82.9642 54.7913C83.0752 54.3508 82.9243 53.8675 82.5635 53.5083L82.2522 53.1985H76.3788H70.5056V47.4162L70.3109 30.8677C70.601 30.3093 70.5951 25.1204 70.3037 24.5595C69.904 23.7904 70.117 23.8058 59.9032 23.8053C51.4265 23.8049 50.6469 23.8 50.2438 23.596C51.2636 24.1753 53.3053 25.4377 54.5225 26.5288C54.5225 26.4489 56.9418 26.3728 61.2208 26.3728H67.9265V28.5647V30.7566V41.4097V48.0682C67.9265 52.5287 67.9721 54.8263 68.0646 55.0284C68.3682 55.6915 68.408 55.6967 73.7146 55.7655L78.6646 55.8297L69.2806 65.8091C64.1194 71.2977 59.853 75.7885 59.7996 75.7885C59.7464 75.7885 57.2237 73.1541 54.1941 69.9341L48.6854 64.0797L49.4748 63.6625C47.863 64.4434 45.3192 65.1642 44.1343 65.4519Z" fill="white"/>
<path fill-rule="evenodd" clip-rule="evenodd" d="M36.9128 21.0702C24.4448 22.6736 15.5846 33.9744 17.1873 46.2288C18.5476 56.6285 26.6467 64.5547 37.176 65.7906C39.1214 66.0191 42.2234 65.868 44.1343 65.4519C45.3192 65.1642 47.863 64.4434 49.4748 63.6625L50.0144 63.3773C52.0359 62.3093 53.512 61.2402 55.195 59.6254C57.384 57.5251 58.7119 55.707 59.9827 53.0701C63.4204 45.9372 62.8071 37.5141 58.3708 30.9319C57.4531 29.5703 55.5 27.5 54.8586 26.8476C54.7559 26.7436 54.6433 26.637 54.5225 26.5288C53.3053 25.4377 51.2636 24.1753 50.2438 23.596C50.2132 23.5804 50.1847 23.5638 50.1552 23.5459C49.4466 23.1158 47.174 22.1938 45.9397 21.8356C43.8256 21.2221 41.9602 20.98 39.5114 21.0013C38.2949 21.0118 37.1256 21.0429 36.9128 21.0702ZM57.5474 34.6516C54.8548 29.2146 49.9916 25.3974 43.9419 23.9726C42.7862 23.7004 42.2075 23.6473 40.0077 23.6109C38.5892 23.5876 37.2836 23.5952 37.1063 23.6278C34.0665 24.1865 32.8834 24.5473 30.8519 25.5348C24.7295 28.5112 20.6513 34.143 19.7609 40.8511C19.2407 44.77 19.8189 48.3451 21.5629 51.9944C24.2712 57.6616 29.3009 61.5841 35.6439 62.9761C36.7109 63.2102 37.3335 63.2554 39.5564 63.2598C41.8121 63.2644 42.3904 63.2238 43.4979 62.9833C47.5931 62.0938 50.8018 60.3684 53.6869 57.5042C59.8393 51.3962 61.3655 42.3616 57.5474 34.6516Z" fill="#FFDC37"/>
<path fill-rule="evenodd" clip-rule="evenodd" d="M43.9419 23.9726C49.9916 25.3974 54.8548 29.2146 57.5474 34.6516C61.3655 42.3616 59.8393 51.3962 53.6869 57.5042C50.8018 60.3684 47.5931 62.0938 43.4979 62.9833C42.3904 63.2238 41.8121 63.2644 39.5564 63.2598C37.3335 63.2554 36.7109 63.2102 35.6439 62.9761C29.3009 61.5841 24.2712 57.6616 21.5629 51.9944C19.8189 48.3451 19.2407 44.77 19.7609 40.8511C20.6513 34.143 24.7295 28.5112 30.8519 25.5348C32.8834 24.5473 34.0665 24.1865 37.1063 23.6278C37.2836 23.5952 38.5892 23.5876 40.0077 23.6109C42.2075 23.6473 42.7862 23.7004 43.9419 23.9726ZM27.0555 31.4534C29.6846 28.7364 32.9117 27.0088 36.6549 26.3142C37.404 26.1752 38.3223 26.1356 40.0077 26.1698C42.082 26.2118 42.4893 26.2581 43.8364 26.6049C50.5163 28.3249 55.5723 33.7268 56.7738 40.4274C57.2031 42.8215 57.0156 45.9589 56.2984 48.3853C54.0677 55.9314 46.8672 61.0457 38.9116 60.7348C34.3969 60.5585 30.5301 58.8638 27.2982 55.6454C24.7796 53.137 23.264 50.3589 22.5133 46.8751C22.1378 45.1327 22.1065 41.8669 22.4495 40.2509C23.2074 36.6811 24.6344 33.9554 27.0555 31.4534Z" fill="#FFDC37"/>
<path fill-rule="evenodd" clip-rule="evenodd" d="M36.6549 26.3142C32.9117 27.0088 29.6846 28.7364 27.0555 31.4534C24.6344 33.9554 23.2074 36.6811 22.4495 40.2509C22.1065 41.8669 22.1378 45.1327 22.5133 46.8751C23.264 50.3589 24.7796 53.137 27.2982 55.6454C30.5301 58.8638 34.3969 60.5585 38.9116 60.7348C46.8672 61.0457 54.0677 55.9314 56.2984 48.3853C57.0156 45.9589 57.2031 42.8215 56.7738 40.4274C55.5723 33.7268 50.5163 28.3249 43.8364 26.6049C42.4893 26.2581 42.082 26.2118 40.0077 26.1698C38.3223 26.1356 37.404 26.1752 36.6549 26.3142ZM53.9362 39.6254C52.4622 34.1134 47.7919 29.8499 42.1567 28.8717C40.64 28.6085 38.0993 28.6418 36.6549 28.944C33.8875 29.5229 31.5234 30.7441 29.4625 32.6599C23.3332 38.3572 23.1716 47.984 29.1069 53.8402C32.2004 56.8925 36.0186 58.3651 40.3223 58.1659C49.7435 57.7296 56.3657 48.7109 53.9362 39.6254Z" fill="#FFDC37"/>
<path fill-rule="evenodd" clip-rule="evenodd" d="M42.1567 28.8717C47.7919 29.8499 52.4622 34.1134 53.9362 39.6254C56.3657 48.7109 49.7435 57.7296 40.3223 58.1659C36.0186 58.3651 32.2004 56.8925 29.1069 53.8402C23.1716 47.984 23.3332 38.3572 29.4625 32.6599C31.5234 30.7441 33.8875 29.5229 36.6549 28.944C38.0993 28.6418 40.64 28.6085 42.1567 28.8717ZM30.1704 35.93C30.7162 34.8793 31.6534 34.1186 32.7863 33.8066C33.8345 33.5181 35.4794 33.9603 36.3112 34.7544C37.1121 35.5188 37.4065 36.1804 37.4684 37.3542C37.5172 38.2821 37.4842 38.4984 37.199 39.1186C36.5035 40.6306 35.1026 41.4635 33.431 41.3589C31.9487 41.2659 30.8176 40.5257 30.1818 39.2321C29.6837 38.2187 29.6791 36.8758 30.1704 35.93ZM31.615 49.6303C31.7156 49.4397 34.9904 46.1504 38.8924 42.3206C39.164 42.0541 39.4254 41.7974 39.6772 41.5502C45.341 35.9902 46.1181 35.2273 46.71 35.351C46.8041 35.3707 46.8936 35.4128 46.9973 35.4615C47.0262 35.4752 47.0564 35.4894 47.088 35.5037C47.5054 35.6929 47.8584 36.4267 47.7484 36.8766C47.6622 37.2293 34.563 50.4267 33.5729 51.1583C33.2963 51.3627 32.9364 51.5299 32.773 51.5299C31.7611 51.5299 31.1457 50.5203 31.615 49.6303ZM42.046 47.6519C42.466 46.8006 43.3371 45.9807 44.1116 45.7076C44.4078 45.6031 45.0563 45.5136 45.5528 45.5088C47.733 45.4873 49.357 47.0988 49.357 49.2837C49.357 50.0555 49.2926 50.3335 48.9613 50.9935C48.2592 52.392 47.0124 53.1364 45.4124 53.1122C43.9882 53.0908 42.7345 52.2889 42.0356 50.9523C41.5412 50.007 41.5454 48.6665 42.046 47.6519Z" fill="#FFDC37"/>
<path fill-rule="evenodd" clip-rule="evenodd" d="M32.7863 33.8066C31.6534 34.1186 30.7162 34.8793 30.1704 35.93C29.6791 36.8758 29.6837 38.2187 30.1818 39.2321C30.8176 40.5257 31.9487 41.2659 33.431 41.3589C35.1026 41.4635 36.5035 40.6306 37.199 39.1186C37.4842 38.4984 37.5172 38.2821 37.4684 37.3542C37.4065 36.1804 37.1121 35.5188 36.3112 34.7544C35.4794 33.9603 33.8345 33.5181 32.7863 33.8066ZM38.8924 42.3206C34.9904 46.1504 31.7156 49.4397 31.615 49.6303C31.1457 50.5203 31.7611 51.5299 32.773 51.5299C32.9364 51.5299 33.2963 51.3627 33.5729 51.1583C34.563 50.4267 47.6622 37.2293 47.7484 36.8766C47.8584 36.4267 47.5054 35.6929 47.088 35.5037C47.0564 35.4894 47.0262 35.4752 46.9973 35.4615C46.8936 35.4128 46.8041 35.3707 46.71 35.351C46.1181 35.2273 45.341 35.9902 39.6772 41.5502L38.8924 42.3206ZM44.1116 45.7076C43.3371 45.9807 42.466 46.8006 42.046 47.6519C41.5454 48.6665 41.5412 50.007 42.0356 50.9523C42.7345 52.2889 43.9882 53.0908 45.4124 53.1122C47.0124 53.1364 48.2592 52.392 48.9613 50.9935C49.2926 50.3335 49.357 50.0555 49.357 49.2837C49.357 47.0988 47.733 45.4873 45.5528 45.5088C45.0563 45.5136 44.4078 45.6031 44.1116 45.7076ZM34.2718 36.4498C35.0323 36.8413 35.1629 37.825 34.5371 38.4478C33.6762 39.3047 32.1662 38.539 32.3887 37.3585C32.5549 36.477 33.4683 36.0362 34.2718 36.4498ZM45.1849 50.5066C46.3811 50.9216 47.3221 49.3498 46.4314 48.4244C46.1611 48.1436 45.9696 48.0653 45.5609 48.0682C44.9111 48.0731 44.6433 48.2229 44.3807 48.7281C43.998 49.465 44.3357 50.2119 45.1849 50.5066Z" fill="white"/>
<path d="M46.4314 48.4244C47.3221 49.3498 46.3811 50.9216 45.1849 50.5066C44.3357 50.2119 43.998 49.465 44.3807 48.7281C44.6433 48.2229 44.9111 48.0731 45.5609 48.0682C45.9696 48.0653 46.1611 48.1436 46.4314 48.4244Z" fill="#FFDC37"/>
<path d="M34.2718 36.4498C35.0323 36.8413 35.1629 37.825 34.5371 38.4478C33.6762 39.3047 32.1662 38.539 32.3887 37.3585C32.5549 36.477 33.4683 36.0362 34.2718 36.4498Z" fill="#FFDC37"/>
</svg>
