<svg width="100" height="100" viewBox="0 0 100 100" fill="none" xmlns="http://www.w3.org/2000/svg">
<circle cx="50" cy="50" r="50" fill="#333333"/>
<path d="M26.2417 50.4374C25.785 46.6966 25.7409 46.4505 25.4784 46.1866C25.0299 45.7357 24.2992 45.8813 23.9774 46.4859C23.8896 46.6509 23.9839 48.2309 24.3295 52.3855L24.8015 58.0598L30.5086 63.8226C33.6476 66.9922 36.2722 69.6976 36.3412 69.8347C36.4143 69.9801 36.4665 70.7291 36.4665 71.632V73.1801H42.2546H48.0428V68.0159V62.8516L43.0737 57.8563C39.6401 54.4044 38.0007 52.8328 37.7679 52.7695C36.8924 52.5316 35.899 53.254 35.899 54.1286C35.899 54.3847 35.9576 54.7064 36.0291 54.8435C36.1006 54.9806 37.0091 56.1198 38.048 57.3751C39.0868 58.6303 40.0243 59.7844 40.1311 59.9396C40.4083 60.3423 40.3752 60.8158 40.0466 61.146L39.7681 61.4262H36.448H33.128L30.0274 58.3165C27.5958 55.8777 26.9052 55.1207 26.8267 54.8075C26.7716 54.5878 26.5085 52.6212 26.2417 50.4374Z" fill="#FFDDA9"/>
<path d="M77.6536 52.3889C78.152 46.3222 78.1517 46.2904 77.59 46.0331C77.1555 45.8341 76.8109 45.8829 76.5089 46.1866C76.2464 46.4505 76.2022 46.6966 75.7455 50.4374C75.4788 52.6212 75.2156 54.5878 75.1606 54.8075C75.082 55.1207 74.3914 55.8777 71.9598 58.3165L68.8593 61.4262H65.5393H62.2192L61.9406 61.146C61.6119 60.8155 61.5789 60.342 61.8569 59.9396C61.964 59.7844 62.9334 58.5922 64.0109 57.2903C65.0884 55.9883 66.0029 54.7916 66.043 54.6309C66.3187 53.5265 65.2915 52.4781 64.2194 52.7695C63.9866 52.8328 62.3472 54.4044 58.9135 57.8563L53.9445 62.8516V68.0159V73.1801H59.7326H65.5208V71.632C65.5208 70.7291 65.573 69.9801 65.6461 69.8347C65.7151 69.6976 68.3401 66.9922 71.4795 63.8226L77.1877 58.0598L77.6536 52.3889Z" fill="#FFDDA9"/>
<path d="M76.1606 44.1233C75.5343 44.3569 74.9851 44.8197 74.648 45.398C74.3783 45.8609 74.3013 46.2996 73.8301 50.0663L73.3101 54.2236L70.6881 56.8581L68.0662 59.4926L66.4115 59.4609L64.7566 59.4291L66.1032 57.7988C67.6906 55.877 67.9193 55.4717 67.9921 54.4519C68.0712 53.3431 67.8046 52.6349 67.0064 51.8331C66.2603 51.0836 65.6035 50.8134 64.5289 50.8134H64.5245C64.2798 50.8134 64.0775 50.8134 63.8799 50.8439C62.9377 50.9891 62.1023 51.8269 57.2837 56.6591L57.2641 56.6787L52.0151 61.9427V70.1734C52.0151 71.3298 52.0152 72.3243 52.0162 73.1801H53.9445V68.0159V62.8516L58.9135 57.8563C62.3472 54.4044 63.9866 52.8328 64.2194 52.7695C65.2915 52.4781 66.3187 53.5265 66.043 54.6309C66.0029 54.7916 65.0884 55.9883 64.0109 57.2903C62.9334 58.5922 61.964 59.7844 61.8569 59.9396C61.5789 60.342 61.6119 60.8155 61.9406 61.146L62.2192 61.4262H65.5393H68.8593L71.9598 58.3165C74.3914 55.8777 75.082 55.1207 75.1606 54.8075C75.2156 54.5878 75.4788 52.6212 75.7455 50.4374C76.2022 46.6966 76.2464 46.4505 76.5089 46.1866C76.8109 45.8829 77.1555 45.8341 77.59 46.0331C78.1517 46.2904 78.152 46.3222 77.6536 52.3889L77.1877 58.0598L71.4795 63.8226C68.3401 66.9922 65.7151 69.6976 65.6461 69.8347C65.573 69.9801 65.5208 70.7291 65.5208 71.632V73.1801H67.4502V71.8967V70.6133L73.2517 64.7791L79.0534 58.9448L79.554 52.9677C79.8294 49.6802 80.0285 46.7721 79.9966 46.5052C79.8859 45.5775 79.2179 44.6522 78.3578 44.2349C77.8251 43.9763 76.7067 43.9196 76.1606 44.1233Z" fill="#FFDDA9"/>
<path d="M48.0428 76.09V77.06H41.2899H34.5371V76.09V75.1201H41.2899H48.0428V76.09Z" fill="white"/>
<path fill-rule="evenodd" clip-rule="evenodd" d="M34.5371 73.1801H33.8716C33.3039 73.1801 33.1621 73.2243 32.9069 73.4809L32.6077 73.7818L32.6113 76.077C32.6151 78.4792 32.6377 78.5987 33.1393 78.8673C33.321 78.9645 35.4991 79 41.2881 79C49.6531 79 49.7049 78.9969 49.9017 78.4813C49.9312 78.4041 49.9566 76.2073 49.9671 73.1801H48.0428H42.2546H36.4665H34.5371ZM48.0428 77.06V76.09V75.1201H41.2899H34.5371V76.09V77.06H41.2899H48.0428Z" fill="white"/>
<path d="M67.4502 76.09V77.06H60.6973H53.9445V76.09V75.1201H60.6973H67.4502V76.09Z" fill="white"/>
<path fill-rule="evenodd" clip-rule="evenodd" d="M52.232 78.6735L52.449 78.9429L60.488 78.9738C66.0863 78.9952 68.6177 78.9669 68.8252 78.8804C69.3193 78.6747 69.3796 78.3603 69.3796 75.9861V73.7818L69.0804 73.4809C68.8252 73.2243 68.6834 73.1801 68.1157 73.1801H67.4502H65.5208H59.7326H53.9445H52.0162C52.0216 78.1953 52.0534 78.4517 52.232 78.6735ZM67.4502 77.06V76.09V75.1201H60.6973H53.9445V76.09V77.06H60.6973H67.4502Z" fill="white"/>
<path d="M23.9127 44.1108C22.9928 44.4778 22.2868 45.261 22.0378 46.1907C21.9401 46.5553 22.0189 47.8966 22.4255 52.7975L22.9359 58.9469L28.7364 64.78L34.5371 70.6133V71.8967V73.1801H36.4665V71.632C36.4665 70.7291 36.4143 69.9801 36.3412 69.8347C36.2722 69.6976 33.6476 66.9922 30.5086 63.8226L24.8015 58.0598L24.3295 52.3855C23.9839 48.2309 23.8896 46.6509 23.9774 46.4859C24.2992 45.8813 25.0299 45.7357 25.4784 46.1866C25.7409 46.4505 25.785 46.6966 26.2417 50.4374C26.5085 52.6212 26.7716 54.5878 26.8267 54.8075C26.9052 55.1207 27.5958 55.8777 30.0274 58.3165L33.128 61.4262H36.448H39.7681L40.0466 61.146C40.3752 60.8158 40.4083 60.3423 40.1311 59.9396C40.0243 59.7844 39.0868 58.6303 38.048 57.3751C37.0091 56.1198 36.1006 54.9806 36.0291 54.8435C35.9576 54.7064 35.899 54.3847 35.899 54.1286C35.899 53.254 36.8924 52.5316 37.7679 52.7695C38.0007 52.8328 39.6401 54.4044 43.0737 57.8563L48.0428 62.8516V68.0159V73.1801H49.9671C49.9704 72.2286 49.9722 71.1951 49.9722 70.1196V61.9427L44.7231 56.6787C38.8073 50.7461 38.8576 50.7862 37.3543 50.8004C36.0814 50.8124 35.0186 51.4556 34.3322 52.6297C34.0613 53.0931 34.0264 53.27 34.0264 54.1798C34.0264 55.5873 34.0364 55.6049 36.5594 58.6271L37.2767 59.4862H35.5938H33.9111L31.2854 56.833L28.6597 54.1798L28.1876 50.2999C27.928 48.1659 27.6356 46.1698 27.5376 45.8642C27.3444 45.2609 26.7311 44.5599 26.1171 44.2406C25.6492 43.9973 24.384 43.9229 23.9127 44.1108Z" fill="#FFDDA9"/>
<path fill-rule="evenodd" clip-rule="evenodd" d="M50.1655 28.8417C48.0224 29.231 46.4675 31.4938 46.8283 33.6984C47.0921 35.3107 48.203 36.594 49.79 37.1199C50.6188 37.3946 51.847 37.3027 52.6908 36.9027C55.3715 35.6318 56.0235 32.1881 53.9849 30.0677C53.0171 29.0612 51.5499 28.5902 50.1655 28.8417ZM53.4671 33.0292C53.4709 32.0355 53.0356 31.28 52.1912 30.8145C50.1083 29.666 47.7985 31.7318 48.6486 33.983C48.8658 34.5584 49.6157 35.2768 50.1768 35.4471C51.8573 35.9572 53.4606 34.779 53.4671 33.0292Z" fill="#47A047"/>
<path fill-rule="evenodd" clip-rule="evenodd" d="M30.9157 21.0323C29.4796 21.0647 29.4774 21.0651 29.2388 21.3463L29 21.6279V32.9693C29 44.6707 28.9966 44.5673 29.3876 44.8713C29.5101 44.9666 34.2826 44.9943 50.9624 44.9968L72.3798 45L72.6578 44.758C72.9356 44.5163 72.9358 44.5148 72.9679 43.052L73 41.5878L72.9853 30.8966C72.9853 20.9919 73.0071 21.3475 72.3868 21.1285L30.9157 21.0323ZM71.3021 43.2939L71.2769 33.0324L71.2517 22.7708L50.9679 22.7455L30.6841 22.7201V33.0071V43.2939H50.9932H71.3021Z" fill="#47A047"/>
<path fill-rule="evenodd" clip-rule="evenodd" d="M37.2576 24.4962C36.8961 24.5678 36.7042 24.8958 36.5714 25.6692C36.4174 26.5669 36.0824 27.2631 35.5716 27.748C34.9002 28.3854 34.4575 28.5755 33.1496 28.7881C32.9527 28.8202 32.7075 28.9405 32.6047 29.0555C32.43 29.2511 32.4159 29.5005 32.3893 32.8876C32.37 35.3619 32.3956 36.5954 32.4702 36.7778C32.6097 37.1189 32.8602 37.2449 33.6416 37.367C34.4448 37.4926 35.0284 37.7806 35.5802 38.3238C36.1561 38.8909 36.4066 39.4115 36.5485 40.3365C36.6363 40.9081 36.7253 41.1571 36.9079 41.3421L37.1505 41.5878H50.9512H64.7518L65.0189 41.355C65.2321 41.1693 65.3034 40.992 65.3717 40.4769C65.6058 38.7116 66.7784 37.5469 68.5401 37.3298C68.9524 37.279 69.1591 37.195 69.3327 37.0079L69.5676 36.7548L69.5989 33.2753C69.6199 30.9399 69.5942 29.6723 69.5208 29.4201C69.3902 28.9717 69.097 28.7957 68.3353 28.7085C66.868 28.5404 65.5713 27.2475 65.3997 25.7815C65.3097 25.0135 65.1646 24.7199 64.7985 24.5649C64.5261 24.4496 62.2344 24.429 50.9711 24.4404C43.5456 24.4479 37.3745 24.473 37.2576 24.4962ZM67.2395 30.2089C65.5928 29.6658 64.4455 28.5036 63.9092 26.8353L63.6996 26.183L51.012 26.1575C44.0338 26.1435 38.3035 26.1662 38.278 26.208C38.2526 26.2496 38.135 26.5773 38.0166 26.9358C37.8983 27.2945 37.6673 27.8012 37.5034 28.0619C36.8627 29.0807 35.4481 30.109 34.4239 30.3006L34.0524 30.3702V33.0087V35.6472L34.733 35.8566C35.5504 36.1081 36.4782 36.7142 37.0267 37.355C37.4527 37.8524 38.0503 39.0109 38.162 39.5556L38.2289 39.8818H50.9895H63.7501L63.8187 39.5119C63.927 38.9267 64.4714 37.8899 64.9592 37.3397C65.5454 36.6787 66.4242 36.1114 67.2618 35.8537L67.9362 35.6462L67.9098 33.0338L67.8834 30.4213L67.2395 30.2089Z" fill="#96D696"/>
<path d="M52.1912 30.8145C53.0356 31.28 53.4709 32.0355 53.4671 33.0292C53.4606 34.779 51.8573 35.9572 50.1768 35.4471C49.6157 35.2768 48.8658 34.5584 48.6486 33.983C47.7985 31.7318 50.1083 29.666 52.1912 30.8145Z" fill="#47A047"/>
<path fill-rule="evenodd" clip-rule="evenodd" d="M63.9092 26.8353C64.4455 28.5036 65.5928 29.6658 67.2395 30.2089L67.8834 30.4213L67.9098 33.0338L67.9362 35.6462L67.2618 35.8537C66.4242 36.1114 65.5454 36.6787 64.9592 37.3397C64.4714 37.8899 63.927 38.9267 63.8187 39.5119L63.7501 39.8818H50.9895H38.2289L38.162 39.5556C38.0503 39.0109 37.4527 37.8524 37.0267 37.355C36.4782 36.7142 35.5504 36.1081 34.733 35.8566L34.0524 35.6472V33.0087V30.3702L34.4239 30.3006C35.4481 30.109 36.8627 29.0807 37.5034 28.0619C37.6673 27.8012 37.8983 27.2945 38.0166 26.9358C38.135 26.5773 38.2526 26.2496 38.278 26.208C38.3035 26.1662 44.0338 26.1435 51.012 26.1575L63.6996 26.183L63.9092 26.8353ZM46.8283 33.6984C46.4675 31.4938 48.0224 29.231 50.1655 28.8417C51.5499 28.5902 53.0171 29.0612 53.9849 30.0677C56.0235 32.1881 55.3715 35.6318 52.6908 36.9027C51.847 37.3027 50.6188 37.3946 49.79 37.1199C48.203 36.594 47.0921 35.3107 46.8283 33.6984Z" fill="#96D696"/>
<path fill-rule="evenodd" clip-rule="evenodd" d="M71.2769 33.0324L71.3021 43.2939H50.9932H30.6841V33.0071V22.7201L50.9679 22.7455L71.2517 22.7708L71.2769 33.0324ZM36.5714 25.6692C36.7042 24.8958 36.8961 24.5678 37.2576 24.4962C37.3745 24.473 43.5456 24.4479 50.9711 24.4404C62.2344 24.429 64.5261 24.4496 64.7985 24.5649C65.1646 24.7199 65.3097 25.0135 65.3997 25.7815C65.5713 27.2475 66.868 28.5404 68.3353 28.7085C69.097 28.7957 69.3902 28.9717 69.5208 29.4201C69.5942 29.6723 69.6199 30.9399 69.5989 33.2753L69.5676 36.7548L69.3327 37.0079C69.1591 37.195 68.9524 37.279 68.5401 37.3298C66.7784 37.5469 65.6058 38.7116 65.3717 40.4769C65.3034 40.992 65.2321 41.1693 65.0189 41.355L64.7518 41.5878H50.9512H37.1505L36.9079 41.3421C36.7253 41.1571 36.6363 40.9081 36.5485 40.3365C36.4066 39.4115 36.1561 38.8909 35.5802 38.3238C35.0284 37.7806 34.4448 37.4926 33.6416 37.367C32.8602 37.2449 32.6097 37.1189 32.4702 36.7778C32.3956 36.5954 32.37 35.3619 32.3893 32.8876C32.4159 29.5005 32.43 29.2511 32.6047 29.0555C32.7075 28.9405 32.9527 28.8202 33.1496 28.7881C34.4575 28.5755 34.9002 28.3854 35.5716 27.748C36.0824 27.2631 36.4174 26.5669 36.5714 25.6692Z" fill="#47A047"/>
</svg>
