<svg width="100" height="100" viewBox="0 0 100 100" fill="none" xmlns="http://www.w3.org/2000/svg">
<circle cx="50" cy="50" r="50" fill="#333333"/>
<path fill-rule="evenodd" clip-rule="evenodd" d="M41.5811 56.3446V61.6034H31.0068H20.4324V56.3446V51.0858H31.0068H41.5811V56.3446ZM28.9305 58.6497C27.2447 57.1293 27.6166 54.4255 29.6413 53.4822C31.8636 52.4469 34.407 54.2439 34.1224 56.6484C33.9343 58.2372 32.6506 59.4016 31.0686 59.4185C30.1751 59.428 29.5406 59.1998 28.9305 58.6497ZM23.648 57.3964V56.3446V55.2928H24.6993H25.7505V56.3446V57.3964H24.6993H23.648ZM36.263 57.3964V56.3446V55.2928H37.3143H38.3655V56.3446V57.3964H37.3143H36.263Z" fill="#96D696"/>
<path d="M41.5558 64.468C41.5096 65.1068 41.4464 65.2758 41.1631 65.5198L40.8252 65.8105H30.9903H21.1554L20.7939 65.4488C20.4808 65.1355 20.4324 64.9948 20.4324 64.397V63.7069H31.0216H41.6108L41.5558 64.468Z" fill="#96D696"/>
<path fill-rule="evenodd" clip-rule="evenodd" d="M75.389 51.6539C75.6162 53.3116 77.0497 54.8398 78.6291 55.1079C78.7137 55.1222 78.7907 55.1331 78.8606 55.1429C79.0678 55.1722 79.2133 55.1927 79.3154 55.2703C79.5564 55.4537 79.5551 55.9554 79.5511 57.6417C79.5505 57.8829 79.5498 58.1482 79.5498 58.4403V61.5712L79.0111 61.632C78.2297 61.7201 77.1795 62.2426 76.5816 62.8408C75.9838 63.4389 75.4615 64.4897 75.3734 65.2715L75.3127 65.8105H68.9751H62.6376L62.5794 65.2051C62.5187 64.5722 62.1808 63.808 61.6522 63.1083C61.087 62.3601 59.6163 61.6034 58.7269 61.6034H58.4011V58.4614C58.4011 58.3298 58.4011 58.2035 58.4011 58.0822C58.4003 55.9435 58.4001 55.3723 58.6518 55.2215C58.7435 55.1666 58.8687 55.1674 59.0394 55.1686C59.066 55.1688 59.0936 55.169 59.1224 55.169C59.6231 55.1689 60.877 54.5186 61.4172 53.9789C61.9839 53.4129 62.4924 52.3813 62.5776 51.6248L62.6383 51.0858H68.9748H75.3112L75.389 51.6539ZM65.8663 56.9494C66.0244 55.7948 66.836 54.8032 67.9469 54.4075C69.042 54.0172 70.3815 54.3116 71.1886 55.12C71.6238 55.556 72.1264 56.5917 72.128 57.0561L72.1292 57.3964H71.078C70.244 57.3964 70.0267 57.3594 70.0267 57.2177C70.0267 57.1193 69.8948 56.8855 69.7336 56.698C69.3575 56.2606 68.6675 56.2266 68.2684 56.6257C68.1208 56.7736 68.0245 56.9152 68.0548 56.9404C68.085 56.9656 68.9167 57.5874 69.9031 58.3222C70.8894 59.0569 71.7961 59.7756 71.9178 59.9192C72.3769 60.4607 72.0236 61.9008 71.2335 62.7094C69.4241 64.561 66.2803 63.5565 65.8711 60.9961L65.7901 60.4898H66.8548C67.8787 60.4898 67.9224 60.5013 67.9949 60.79C68.0939 61.1848 68.4095 61.4593 68.8706 61.5514C69.1606 61.6095 69.325 61.5561 69.6046 61.3134C69.9384 61.0233 69.9491 60.9886 69.7498 60.8379C69.6316 60.7485 68.7879 60.1186 67.8749 59.438C65.988 58.0315 65.7572 57.7456 65.8663 56.9494Z" fill="#96D696"/>
<path d="M60.5036 51.3768C60.5036 52.0448 59.4458 53.0656 58.7539 53.0656H58.4011V52.0757V51.0858H59.4524C60.4736 51.0858 60.5036 51.0941 60.5036 51.3768Z" fill="#96D696"/>
<path d="M59.341 63.9427C59.9333 64.2118 60.3662 64.7638 60.4656 65.3761L60.536 65.8105H59.4686H58.4011V64.7587C58.4011 63.564 58.4376 63.5322 59.341 63.9427Z" fill="#96D696"/>
<path d="M79.5498 64.7587V65.8105H78.4831H77.4164L77.494 65.4225C77.6197 64.7931 78.0357 64.2426 78.5943 63.9659C79.5025 63.5163 79.5498 63.5556 79.5498 64.7587Z" fill="#96D696"/>
<path d="M29.0673 35.3094L25.0221 42.053L20.9769 48.7967L23.3722 48.8585L23.5506 48.5801C23.6486 48.4271 25.3586 45.5821 27.3504 42.2582C29.3421 38.9344 31.0135 36.2617 31.0645 36.3188C31.1155 36.3761 32.8322 39.2211 34.8795 42.6408L38.6016 48.8585L41.0246 48.8505L36.9748 42.08L32.925 35.3094L33.0415 35.3088L29.0673 35.3094Z" fill="white"/>
<path d="M44.761 33.0202L44.7658 31.9685L44.7706 30.9167L35.7863 30.9336C30.8448 30.9428 26.6776 30.9744 26.526 31.0037C26.1491 31.0766 25.7505 31.6158 25.7505 32.0526C25.7505 32.27 25.8709 32.5332 26.0541 32.7165L26.3577 33.0202H35.5593H44.761Z" fill="#F4F4F4"/>
<path d="M51.0938 29.0885C51.6822 29.2677 52.5763 30.1288 52.8636 30.793C53.3773 31.9802 53.0672 33.4247 52.1137 34.2867C51.4389 34.8966 50.8576 35.1238 49.972 35.1238C48.2569 35.1238 46.8798 33.7461 46.8798 32.0304C46.8798 31.187 47.1558 30.5028 47.745 29.8857C48.6677 28.9194 49.7176 28.6694 51.0938 29.0885Z" fill="#FFDC37"/>
<path d="M73.9281 32.7165C74.3213 32.3232 74.3233 31.7794 73.9333 31.3258L73.6349 30.9786L64.4232 30.9446L55.2115 30.9107L55.2165 31.9654L55.2213 33.0202H64.423H73.6246L73.9281 32.7165Z" fill="#F4F4F4"/>
<path d="M55.995 73.5384C56.2504 73.7938 56.2986 73.9609 56.2986 74.5902V75.3382H49.9911H43.6836V74.5902C43.6836 73.9609 43.7319 73.7938 43.9873 73.5384L44.2908 73.2347H49.9911H55.6915L55.995 73.5384Z" fill="#F4F4F4"/>
<path d="M64.405 77.7455C64.6604 78.0009 64.7086 78.1679 64.7086 78.7972V79.5452H49.9911H35.2736V78.7972C35.2736 78.1679 35.3219 78.0009 35.5772 77.7455L35.8808 77.4417H49.9911H64.1015L64.405 77.7455Z" fill="#F4F4F4"/>
<path d="M79.5498 52.1246V53.1632L79.0956 53.0608C78.3008 52.8815 77.641 52.233 77.4952 51.4879L77.4164 51.0858H78.4831H79.5498V52.1246Z" fill="#96D696"/>
<path fill-rule="evenodd" clip-rule="evenodd" d="M46.7755 36.1639V53.6475V71.1311L45.3842 71.1339C44.253 71.1361 43.8887 71.1837 43.4363 71.3886C42.2076 71.9451 41.5843 72.9713 41.5824 74.4411L41.5811 75.3382L38.582 75.3409C35.8309 75.3434 35.5368 75.3645 35.0263 75.5961C33.6154 76.236 33.0474 77.3948 33.0474 79.6338C33.0474 80.7168 33.2771 81.3536 33.7298 81.5258C34.1731 81.6945 65.8091 81.6945 66.2525 81.5258C66.7983 81.3183 66.9752 80.6779 66.9043 79.1661C66.8117 77.1876 66.3072 76.2429 65.0178 75.633C64.421 75.3508 64.2952 75.3405 61.4003 75.3394L58.4011 75.3382L58.3984 74.4411C58.3941 73.0112 57.7752 71.9655 56.6129 71.424C56.0757 71.1737 55.797 71.1334 54.5981 71.1324L53.2067 71.1311V53.6475V36.1639C52.8306 36.695 51.6489 37.1059 51.1051 37.245L51.0738 54.1571L51.0424 71.0693H49.9911H48.9399L48.9085 54.1571L48.8772 37.245C48.2192 37.245 47.2019 36.5243 46.7755 36.1639ZM56.2986 74.5902C56.2986 73.9609 56.2504 73.7938 55.995 73.5384L55.6915 73.2347H49.9911H44.2908L43.9873 73.5384C43.7319 73.7938 43.6836 73.9609 43.6836 74.5902V75.3382H49.9911H56.2986V74.5902ZM64.7086 78.7972C64.7086 78.1679 64.6604 78.0009 64.405 77.7455L64.1015 77.4417H49.9911H35.8808L35.5772 77.7455C35.3219 78.0009 35.2736 78.1679 35.2736 78.7972V79.5452H49.9911H64.7086V78.7972Z" fill="#F4F4F4"/>
<path d="M67.0573 35.3094L63.0075 42.08L58.9577 48.8505L61.3816 48.8585L65.1656 42.548C67.2469 39.0772 68.9665 36.2374 68.9869 36.2374C69.0074 36.2374 70.6507 38.9519 72.6387 42.2696C74.6268 45.5873 76.3336 48.4269 76.4317 48.5801L76.61 48.8585L79.0054 48.7967L74.9602 42.053L70.915 35.3094H67.0573Z" fill="white"/>
<path fill-rule="evenodd" clip-rule="evenodd" d="M58.9577 48.8505L58.2775 48.8552C57.9033 48.8578 57.3886 48.9179 57.1337 48.9887C57.1172 48.9933 57.101 48.9977 57.0851 49.0018L57.0302 49.0161C56.92 49.0445 56.8262 49.0687 56.7465 49.1163C56.2905 49.389 56.2947 50.431 56.3226 57.4319L56.3271 58.5812L56.3605 67.3168L56.7075 67.6154L57.0546 67.914H68.9919H80.9293L81.2908 67.5523L81.6523 67.1906V58.4495C81.6523 52.7282 81.6087 49.6267 81.5258 49.4719C81.324 49.0945 80.9132 48.9387 79.9269 48.8652L79.0054 48.7967L76.61 48.8585H68.9959H61.3816L58.9577 48.8505ZM58.7539 53.0656C59.4458 53.0656 60.5036 52.0448 60.5036 51.3768C60.5036 51.0941 60.4736 51.0858 59.4524 51.0858H58.4011V52.0757V53.0656H58.7539ZM78.6291 55.1079C77.0497 54.8398 75.6162 53.3116 75.389 51.6539L75.3112 51.0858H68.9748H62.6383L62.5776 51.6248C62.4924 52.3813 61.9839 53.4129 61.4172 53.9789C60.877 54.5186 59.6231 55.1689 59.1224 55.169C59.0936 55.169 59.066 55.1688 59.0394 55.1686C58.8687 55.1674 58.7435 55.1666 58.6518 55.2215C58.4001 55.3723 58.4003 55.9435 58.4011 58.0822L58.4011 58.4614V61.6034H58.7269C59.6163 61.6034 61.087 62.3601 61.6522 63.1083C62.1808 63.808 62.5187 64.5722 62.5794 65.2051L62.6376 65.8105H68.9751H75.3127L75.3734 65.2715C75.4615 64.4897 75.9838 63.4389 76.5816 62.8408C77.1795 62.2426 78.2297 61.7201 79.0111 61.632L79.5498 61.5712V58.4403C79.5498 58.1482 79.5505 57.8829 79.5511 57.6417C79.5551 55.9554 79.5564 55.4537 79.3154 55.2703C79.2133 55.1927 79.0678 55.1722 78.8606 55.1429C78.7907 55.1331 78.7137 55.1222 78.6291 55.1079ZM79.5498 53.1632V52.1246V51.0858H78.4831H77.4164L77.4952 51.4879C77.641 52.233 78.3008 52.8815 79.0956 53.0608L79.5498 53.1632ZM60.4656 65.3761C60.3662 64.7638 59.9333 64.2118 59.341 63.9427C58.4376 63.5322 58.4011 63.564 58.4011 64.7587V65.8105H59.4686H60.536L60.4656 65.3761ZM79.5498 65.8105V64.7587C79.5498 63.5556 79.5025 63.5163 78.5943 63.9659C78.0357 64.2426 77.6197 64.7931 77.494 65.4225L77.4164 65.8105H78.4831H79.5498Z" fill="#47A047"/>
<path d="M51.0424 71.0693L51.0738 54.1571L51.1051 37.245H49.9911H48.8772L48.9085 54.1571L48.9399 71.0693H49.9911H51.0424Z" fill="#F4F4F4"/>
<path fill-rule="evenodd" clip-rule="evenodd" d="M73.3394 28.7513H68.0903L61.1177 28.7833L54.1451 28.8153C54.4973 29.2272 55.2037 30.2229 55.2115 30.9107L64.4232 30.9446L73.6349 30.9786L73.9333 31.3258C74.3233 31.7794 74.3213 32.3232 73.9281 32.7165L73.6246 33.0202H64.423H55.2213C55.2251 33.8641 54.5067 34.8552 54.147 35.2453L60.6021 35.2773L67.0573 35.3094H70.915L72.2951 35.234C74.0279 35.1395 74.5418 34.9963 75.2136 34.4209C76.6558 33.1859 76.696 30.9373 75.298 29.7092C74.8485 29.3142 74.1119 28.9369 73.7906 28.9369C73.7757 28.9369 73.6191 28.8723 73.3394 28.7513ZM31.8923 28.7513L26.1917 28.9369C25.8704 28.9369 25.1339 29.3142 24.6843 29.7092C23.2863 30.9373 23.3265 33.1859 24.7687 34.4209C25.4405 34.9963 25.9544 35.1395 27.6872 35.234L29.0673 35.3094L33.0415 35.3088L39.3802 35.2773L45.8352 35.2453C45.083 34.5104 44.8056 33.4557 44.761 33.0202H35.5593H26.3577L26.0541 32.7165C25.8709 32.5332 25.7505 32.27 25.7505 32.0526C25.7505 31.6158 26.1491 31.0766 26.526 31.0037C26.6776 30.9744 30.8448 30.9428 35.7863 30.9336L44.7706 30.9167C44.9701 30.3746 45.4626 29.1954 45.8372 28.8153L38.8647 28.7833L31.8923 28.7513Z" fill="#F4F4F4"/>
<path d="M49.1254 18.5892C48.7513 18.7502 43.475 21.1444 37.4002 23.9095C31.3341 26.6707 26.2954 28.9306 26.1917 28.9369L31.8923 28.7513L40.9108 24.6394C45.871 22.378 49.9517 20.5266 49.9791 20.5252C50.0066 20.524 54.0929 22.3742 59.0597 24.6371L68.0903 28.7513H73.3394C71.9259 28.1401 67.3676 26.0907 62.0541 23.6745C55.689 20.7803 50.3293 18.3862 50.1434 18.3544C49.9455 18.3205 49.524 18.4177 49.1254 18.5892Z" fill="white"/>
<path fill-rule="evenodd" clip-rule="evenodd" d="M29.6413 53.4822C27.6166 54.4255 27.2447 57.1293 28.9305 58.6497C29.5406 59.1998 30.1751 59.428 31.0686 59.4185C32.6506 59.4016 33.9343 58.2372 34.1224 56.6484C34.407 54.2439 31.8636 52.4469 29.6413 53.4822ZM30.9846 57.3221C32.0047 57.3221 32.3954 56.0824 31.5741 55.4515C31.236 55.1918 30.5927 55.2628 30.2591 55.5966C29.631 56.225 30.0923 57.3221 30.9846 57.3221Z" fill="#47A047"/>
<path d="M31.5741 55.4515C32.3954 56.0824 32.0047 57.3221 30.9846 57.3221C30.0923 57.3221 29.631 56.225 30.2591 55.5966C30.5927 55.2628 31.236 55.1918 31.5741 55.4515Z" fill="#96D696"/>
<path d="M23.648 56.3446V57.3964H24.6993H25.7505V56.3446V55.2928H24.6993H23.648V56.3446Z" fill="#47A047"/>
<path d="M36.263 56.3446V57.3964H37.3143H38.3655V56.3446V55.2928H37.3143H36.263V56.3446Z" fill="#47A047"/>
<path fill-rule="evenodd" clip-rule="evenodd" d="M20.9769 48.7967L20.0422 48.8635C19.022 48.9365 18.5013 49.179 18.3892 49.6335C18.3516 49.7857 18.3367 53.4461 18.3563 57.7676C18.3914 65.5366 18.3947 65.6304 18.6576 66.1214C19.0325 66.8219 19.5276 67.2854 20.2641 67.6258L20.8997 67.9196L31.1477 67.8858L41.3956 67.8521L41.8987 67.5826C42.6285 67.1919 43.2675 66.4251 43.4912 65.6716C43.7751 64.7149 43.7813 50.0251 43.4979 49.4769C43.28 49.0552 42.7237 48.8623 41.7048 48.8552L41.0246 48.8505L38.6016 48.8585H30.987H23.3722L20.9769 48.7967ZM41.5811 61.6034V56.3446V51.0858H31.0068H20.4324V56.3446V61.6034H31.0068H41.5811ZM41.1631 65.5198C41.4464 65.2758 41.5096 65.1068 41.5558 64.468L41.6108 63.7069H31.0216H20.4324V64.397C20.4324 64.9948 20.4808 65.1355 20.7939 65.4488L21.1554 65.8105H30.9903H40.8252L41.1631 65.5198Z" fill="#47A047"/>
<path fill-rule="evenodd" clip-rule="evenodd" d="M55.2213 33.0202C55.2251 33.8641 54.5067 34.8552 54.147 35.2453L53.6768 35.7046L53.2067 36.1639C52.8306 36.695 51.6489 37.1059 51.1051 37.245H49.9911H48.8772C48.2192 37.245 47.2019 36.5243 46.7755 36.1639L46.3054 35.7046L45.8352 35.2453C45.083 34.5104 44.8056 33.4557 44.761 33.0202L44.7658 31.9685L44.7706 30.9167C44.9701 30.3746 45.4626 29.1954 45.8372 28.8153L46.3897 28.2547C47.4663 27.1621 49.162 26.6112 50.7548 26.8365C51.7492 26.9771 52.9007 27.5526 53.5926 28.2547L54.1451 28.8153C54.4973 29.2272 55.2037 30.2229 55.2115 30.9107L55.2165 31.9654L55.2213 33.0202ZM51.0938 29.0885C51.6822 29.2677 52.5763 30.1288 52.8636 30.793C53.3773 31.9802 53.0672 33.4247 52.1137 34.2867C51.4389 34.8966 50.8576 35.1238 49.972 35.1238C48.2569 35.1238 46.8798 33.7461 46.8798 32.0304C46.8798 31.187 47.1558 30.5028 47.745 29.8857C48.6677 28.9194 49.7176 28.6694 51.0938 29.0885Z" fill="#FFDC37"/>
<path d="M67.9469 54.4075C66.836 54.8032 66.0244 55.7948 65.8663 56.9494C65.7572 57.7456 65.988 58.0315 67.8749 59.438C68.7879 60.1186 69.6316 60.7485 69.7498 60.8379C69.9491 60.9886 69.9384 61.0233 69.6046 61.3134C69.325 61.5561 69.1606 61.6095 68.8706 61.5514C68.4095 61.4593 68.0939 61.1848 67.9949 60.79C67.9224 60.5013 67.8787 60.4898 66.8548 60.4898H65.7901L65.8711 60.9961C66.2803 63.5565 69.4241 64.561 71.2335 62.7094C72.0236 61.9008 72.3769 60.4607 71.9178 59.9192C71.7961 59.7756 70.8894 59.0569 69.9031 58.3222C68.9167 57.5874 68.085 56.9656 68.0548 56.9404C68.0245 56.9152 68.1208 56.7736 68.2684 56.6257C68.6675 56.2266 69.3575 56.2606 69.7336 56.698C69.8948 56.8855 70.0267 57.1193 70.0267 57.2177C70.0267 57.3594 70.244 57.3964 71.078 57.3964H72.1292L72.128 57.0561C72.1264 56.5917 71.6238 55.556 71.1886 55.12C70.3815 54.3116 69.042 54.0172 67.9469 54.4075Z" fill="#47A047"/>
</svg>
