<svg width="100" height="100" viewBox="0 0 100 100" fill="none" xmlns="http://www.w3.org/2000/svg">
<circle cx="50" cy="50" r="50" fill="#333333"/>
<path fill-rule="evenodd" clip-rule="evenodd" d="M62.1788 31.5207C68.8681 36.1355 74.4591 40.0095 74.6032 40.1298C74.8622 40.3456 74.5697 40.3481 50 40.3467L25.1348 40.3451L25.4746 40.0745C25.8191 39.8002 49.9127 23.146 49.9798 23.1357C49.9999 23.1326 55.4894 26.9059 62.1788 31.5207ZM45.2431 34.2425C44.8807 31.678 46.7256 29.165 49.2402 28.7977C53.826 28.1278 56.6658 33.6832 53.3971 36.9293C50.6035 39.7036 45.7906 38.1178 45.2431 34.2425Z" fill="white"/>
<path d="M51.1907 30.9426C53.3972 31.8994 53.398 35.1748 51.1919 36.1773C50.5832 36.4539 49.4168 36.4539 48.8081 36.1773C47.0218 35.3655 46.5723 32.9229 47.9546 31.5401C48.8437 30.6505 50.0174 30.4338 51.1907 30.9426Z" fill="#F4F4F4"/>
<path d="M77.0742 43.2455V44.2088H50H22.9258V43.2455V42.2823H50H77.0742V43.2455Z" fill="white"/>
<path d="M34.4805 47.0986V48.0619H30.6289H26.7773V47.0986V46.1518V46.1354H30.6289H34.4805V46.1518V47.0986Z" fill="#F4F4F4"/>
<path d="M32.5547 59.6806V69.3727L30.6572 69.3417L28.7598 69.3106L28.7308 59.6495L28.7019 49.9885H30.6282H32.5547V59.6806Z" fill="#F4F4F4"/>
<path d="M63.4805 47.5556C63.4805 49.6523 63.6851 49.9885 64.9612 49.9885H65.5208L65.4919 59.6495L65.4629 69.3106L64.77 69.3439C64.1995 69.3715 64.0292 69.4281 63.8071 69.6645C63.5529 69.935 63.5348 70.0473 63.4981 71.5861L63.4592 73.2204H62.0538H60.6484L60.6475 66.4491C60.6464 58.3382 60.5885 57.6494 59.7358 55.6004C58.5939 52.8562 55.9225 50.4965 52.9994 49.6501C49.2134 48.5538 45.1398 49.6273 42.3929 52.4453C40.6953 54.1869 39.7528 56.2044 39.4642 58.7146C39.4032 59.2444 39.353 62.7249 39.3525 66.4491L39.3516 73.2204H37.9462H36.5408L36.5019 71.5861C36.4652 70.0473 36.4471 69.935 36.1929 69.6645C35.9708 69.4281 35.8005 69.3715 35.23 69.3439L34.5371 69.3106L34.5081 59.6495L34.4792 49.9885H35.0388C36.3149 49.9885 36.5195 49.6523 36.5195 47.5556V46.1518V46.1354H50H63.4805V47.5556Z" fill="#C2C2C2"/>
<path d="M71.2692 59.6495L71.2402 69.3106L69.3428 69.3417L67.4453 69.3727V59.6806V49.9885H69.3718H71.2981L71.2692 59.6495Z" fill="#F4F4F4"/>
<path d="M73.2227 47.0986V48.0619H69.3711H65.5195V47.0986V46.1382V46.1354H69.3711H73.2227V46.1491V47.0986Z" fill="#F4F4F4"/>
<path d="M73.2227 72.2571V73.2204H69.3711H65.5195V72.2571V71.2938H69.3711H73.2227V72.2571Z" fill="#F4F4F4"/>
<path d="M77.0742 76.1102V77.0735H63.5371H50H22.9258V76.1102V75.1469H50H77.0742V76.1102Z" fill="white"/>
<path d="M34.4805 72.2571V73.2204H30.6289H26.7773V72.2571V71.2938H30.6289H34.4805V72.2571Z" fill="#F4F4F4"/>
<path fill-rule="evenodd" clip-rule="evenodd" d="M58.3446 57.4113C57.4352 54.4503 55.1429 52.2185 52.209 51.4375C51.4366 51.2319 49.5493 51.086 48.9805 51.1879C47.9411 51.3741 47.0013 51.6536 46.3018 51.9845C44.0656 53.0424 42.3995 54.9883 41.6554 57.4113L41.342 58.4313L41.3031 65.8258L41.264 73.2204H50H58.736L58.6969 65.8258L58.658 58.4313L58.3446 57.4113ZM48.9805 58.3858C48.9805 58.0888 49.0164 57.8099 49.0602 57.766C49.1041 57.7221 49.55 57.7009 50.0514 57.7188L50.9629 57.7513L50.9969 58.3405C51.0243 58.8145 51.0755 58.9437 51.2592 59.0021C51.5823 59.1047 52.2154 59.6832 52.4888 60.1256C52.6162 60.332 52.7645 60.7363 52.8183 61.0243L52.9161 61.5477H51.9112C51.0802 61.5477 50.9062 61.5174 50.9062 61.3727C50.9062 61.0821 50.3782 60.6411 50.0304 60.6411C49.6742 60.6411 49.2049 60.9207 49.211 61.1292C49.2133 61.2036 49.9038 61.7744 50.7457 62.3977C52.7507 63.8822 52.8637 64.0038 52.8506 64.66C52.8319 65.5896 52.1855 66.6092 51.3311 67.0568C51.0549 67.2014 51.0195 67.2838 51.0195 67.7836V68.3473H50H48.9805V67.7836C48.9805 67.2838 48.9451 67.2014 48.6689 67.0568C48.2585 66.8418 47.6462 66.2315 47.4393 65.8311C47.3483 65.6551 47.2311 65.2823 47.1788 65.0026L47.0839 64.4942H48.0888C48.9558 64.4942 49.0938 64.5204 49.0938 64.6853C49.0938 65.03 49.5543 65.4008 49.9825 65.4008C50.3525 65.4008 50.793 65.1456 50.793 64.9313C50.793 64.8793 50.0066 64.2464 49.0455 63.5246C47.8439 62.6224 47.2637 62.1138 47.188 61.8965C47.0464 61.4901 47.205 60.6214 47.5112 60.1256C47.7865 59.6801 48.4184 59.1044 48.7464 59.0003C48.9398 58.9389 48.9805 58.8321 48.9805 58.3858Z" fill="#FFDC37"/>
<path fill-rule="evenodd" clip-rule="evenodd" d="M24.8516 73.2204L23.2373 73.224C22.1473 73.2264 21.5647 73.2724 21.4433 73.3656C21.0488 73.6686 21 73.9774 21 76.1681V78.3375L21.3311 78.6687L21.6622 79H50H78.3378L78.6689 78.6687L79 78.3375V76.1681C79 73.9774 78.9512 73.6686 78.5567 73.3656C78.4353 73.2724 77.8527 73.2264 76.7627 73.224L75.1484 73.2204H73.2227H69.3711H65.5195H63.4592H62.0538H60.6484H58.736H50H41.264H39.3516H37.9462H36.5408H34.4805H30.6289H26.7773H24.8516ZM77.0742 77.0735V76.1102V75.1469H50H22.9258V76.1102V77.0735H50H63.5371H77.0742Z" fill="white"/>
<path d="M60.6484 73.2204L60.6475 66.4491C60.6464 58.3382 60.5885 57.6494 59.7358 55.6004C58.5939 52.8562 55.9225 50.4965 52.9994 49.6501C49.2134 48.5538 45.1398 49.6273 42.3929 52.4453C40.6953 54.1869 39.7528 56.2044 39.4642 58.7146C39.4032 59.2444 39.353 62.7249 39.3525 66.4491L39.3516 73.2204H41.264L41.3031 65.8258L41.342 58.4313L41.6554 57.4113C42.3995 54.9883 44.0656 53.0424 46.3018 51.9845C47.0013 51.6536 47.9411 51.3741 48.9805 51.1879C49.5493 51.086 51.4366 51.2319 52.209 51.4375C55.1429 52.2185 57.4352 54.4503 58.3446 57.4113L58.658 58.4313L58.6969 65.8258L58.736 73.2204H60.6484Z" fill="#FFDC37"/>
<path fill-rule="evenodd" clip-rule="evenodd" d="M75.1484 73.2204V71.683C75.1484 69.6315 75.0082 69.3771 73.874 69.3709L73.2227 69.3673V59.6779V49.9885H73.8394C74.3277 49.9885 74.5222 49.9316 74.7739 49.7152C75.0914 49.4423 75.0918 49.4399 75.1284 47.797L75.1649 46.1518L73.2227 46.1491V47.0986V48.0619H69.3711H65.5195V47.0986V46.1382L63.4805 46.1354V47.5556C63.4805 49.6523 63.6851 49.9885 64.9612 49.9885H65.5208L65.4919 59.6495L65.4629 69.3106L64.77 69.3439C64.1995 69.3715 64.0292 69.4281 63.8071 69.6645C63.5529 69.935 63.5348 70.0473 63.4981 71.5861L63.4592 73.2204H65.5195V72.2571V71.2938H69.3711H73.2227V72.2571V73.2204H75.1484ZM71.2402 69.3106L71.2692 59.6495L71.2981 49.9885H69.3718H67.4453V59.6806V69.3727L69.3428 69.3417L71.2402 69.3106Z" fill="#F4F4F4"/>
<path fill-rule="evenodd" clip-rule="evenodd" d="M63.4805 46.1354L65.5195 46.1382V46.1354H63.4805Z" fill="#777777"/>
<path fill-rule="evenodd" clip-rule="evenodd" d="M35.5566 30.7242C27.7686 36.094 21.3073 40.5909 21.1982 40.7174C21.0238 40.9199 21 41.2177 21 43.1951C21 45.407 21.0043 45.4478 21.2731 45.7607C21.5459 46.0783 21.5484 46.0787 23.1906 46.1153L24.8351 46.1518H26.7773V46.1354H30.6289H34.4805V46.1518H36.5195V46.1354H50H63.4805H65.5195H69.3711H73.2227V46.1491L75.1649 46.1518L76.8094 46.1153C78.4516 46.0787 78.4541 46.0783 78.7269 45.7607C78.9957 45.4478 79 45.407 79 43.1951C79 41.2177 78.9762 40.9199 78.8018 40.7175C78.6927 40.591 72.2569 36.1118 64.5 30.7637C55.0732 24.2643 50.2838 21.0269 50.0566 21.0006C49.764 20.9667 47.7499 22.3174 35.5566 30.7242ZM74.6032 40.1298C74.4591 40.0095 68.8681 36.1355 62.1788 31.5207C55.4894 26.9059 49.9999 23.1326 49.9798 23.1357C49.9127 23.146 25.8191 39.8002 25.4746 40.0745L25.1348 40.3451L50 40.3467C74.5697 40.3481 74.8622 40.3456 74.6032 40.1298ZM77.0742 44.2088V43.2455V42.2823H50H22.9258V43.2455V44.2088H50H77.0742Z" fill="white"/>
<path fill-rule="evenodd" clip-rule="evenodd" d="M24.8351 46.1518L24.8716 47.797C24.9082 49.4399 24.9087 49.4423 25.2261 49.7152C25.4778 49.9316 25.6723 49.9885 26.1606 49.9885H26.7773V59.6779V69.3673L26.126 69.3709C24.9918 69.3771 24.8516 69.6315 24.8516 71.683V73.2204H26.7773V72.2571V71.2938H30.6289H34.4805V72.2571V73.2204H36.5408L36.5019 71.5861C36.4652 70.0473 36.4471 69.935 36.1929 69.6645C35.9708 69.4281 35.8005 69.3715 35.23 69.3439L34.5371 69.3106L34.5081 59.6495L34.4792 49.9885H35.0388C36.3149 49.9885 36.5195 49.6523 36.5195 47.5556V46.1518H34.4805V47.0986V48.0619H30.6289H26.7773V47.0986V46.1518H24.8351ZM32.5547 69.3727V59.6806V49.9885H30.6282H28.7019L28.7308 59.6495L28.7598 69.3106L30.6572 69.3417L32.5547 69.3727Z" fill="#F4F4F4"/>
<path d="M49.0602 57.766C49.0164 57.8099 48.9805 58.0888 48.9805 58.3858C48.9805 58.8321 48.9398 58.9389 48.7464 59.0003C48.4184 59.1044 47.7865 59.6801 47.5112 60.1256C47.205 60.6214 47.0464 61.4901 47.188 61.8965C47.2637 62.1138 47.8439 62.6224 49.0455 63.5246C50.0066 64.2464 50.793 64.8793 50.793 64.9313C50.793 65.1456 50.3525 65.4008 49.9825 65.4008C49.5543 65.4008 49.0938 65.03 49.0938 64.6853C49.0938 64.5204 48.9558 64.4942 48.0888 64.4942H47.0839L47.1788 65.0026C47.2311 65.2823 47.3483 65.6551 47.4393 65.8311C47.6462 66.2315 48.2585 66.8418 48.6689 67.0568C48.9451 67.2014 48.9805 67.2838 48.9805 67.7836V68.3473H50H51.0195V67.7836C51.0195 67.2838 51.0549 67.2014 51.3311 67.0568C52.1855 66.6092 52.8319 65.5896 52.8506 64.66C52.8637 64.0038 52.7507 63.8822 50.7457 62.3977C49.9038 61.7744 49.2133 61.2036 49.211 61.1292C49.2049 60.9207 49.6742 60.6411 50.0304 60.6411C50.3782 60.6411 50.9062 61.0821 50.9062 61.3727C50.9062 61.5174 51.0802 61.5477 51.9112 61.5477H52.9161L52.8183 61.0243C52.7645 60.7363 52.6162 60.332 52.4888 60.1256C52.2154 59.6832 51.5823 59.1047 51.2592 59.0021C51.0755 58.9437 51.0243 58.8145 50.9969 58.3405L50.9629 57.7513L50.0514 57.7188C49.55 57.7009 49.1041 57.7221 49.0602 57.766Z" fill="white"/>
<path fill-rule="evenodd" clip-rule="evenodd" d="M49.2402 28.7977C46.7256 29.165 44.8807 31.678 45.2431 34.2425C45.7906 38.1178 50.6035 39.7036 53.3971 36.9293C56.6658 33.6832 53.826 28.1278 49.2402 28.7977ZM51.1919 36.1773C53.398 35.1748 53.3972 31.8994 51.1907 30.9426C50.0174 30.4338 48.8437 30.6505 47.9546 31.5401C46.5723 32.9229 47.0218 35.3655 48.8081 36.1773C49.4168 36.4539 50.5832 36.4539 51.1919 36.1773Z" fill="#F4F4F4"/>
</svg>
