<svg width="100" height="100" viewBox="0 0 100 100" fill="none" xmlns="http://www.w3.org/2000/svg">
<circle cx="50" cy="50" r="50" fill="#333333"/>
<path fill-rule="evenodd" clip-rule="evenodd" d="M69.3433 42.2763L69.3721 53.8635H46.149H22.9258V42.2477V30.6318L46.1201 30.6605L69.3145 30.6891L69.3433 42.2763ZM29.6579 33.9619C29.8097 33.0886 30.0291 32.7182 30.4424 32.6373C30.5761 32.6111 37.6327 32.5828 46.1237 32.5743C59.0033 32.5615 61.6238 32.5847 61.9353 32.7149C62.3539 32.8899 62.5198 33.2215 62.6227 34.0888C62.819 35.7441 64.3018 37.204 65.9796 37.3938C66.8506 37.4923 67.1859 37.691 67.3352 38.1974C67.4191 38.4822 67.4485 39.9135 67.4245 42.5507L67.3887 46.4797L67.1201 46.7655C66.9216 46.9767 66.6852 47.0716 66.2138 47.1289C64.1992 47.3741 62.8584 48.6892 62.5908 50.6826C62.5126 51.2643 62.4311 51.4644 62.1874 51.6741L61.8818 51.9371H46.101H30.32L30.0426 51.6595C29.8338 51.4507 29.7321 51.1695 29.6317 50.524C29.4694 49.4795 29.183 48.8917 28.5244 48.2514C27.8934 47.6379 27.2261 47.3127 26.3077 47.1709C25.4141 47.033 25.1276 46.8908 24.9681 46.5056C24.8828 46.2996 24.8536 44.9067 24.8757 42.1129C24.9061 38.2881 24.9221 38.0065 25.122 37.7857C25.2396 37.6558 25.5199 37.5199 25.745 37.4838C27.2406 37.2437 27.7468 37.029 28.5146 36.3093C29.0987 35.7617 29.4817 34.9756 29.6579 33.9619Z" fill="#96D696"/>
<path fill-rule="evenodd" clip-rule="evenodd" d="M60.9184 35.2786C61.5317 37.1625 62.8436 38.4748 64.7266 39.0881L65.4629 39.3279L65.493 42.2779L65.5233 45.2278L64.7521 45.4621C63.7943 45.7532 62.7893 46.3937 62.1191 47.1401C61.5613 47.7613 60.9388 48.9321 60.8148 49.593L60.7365 50.0106H46.1448H31.5532L31.4767 49.6423C31.3489 49.0272 30.6656 47.7191 30.1785 47.1573C29.5513 46.4338 28.4904 45.7494 27.5556 45.4654L26.7773 45.2289V42.2496V39.2702L27.2021 39.1917C28.3734 38.9753 29.9909 37.8141 30.7236 36.6637C30.911 36.3694 31.1751 35.7972 31.3104 35.3922C31.4458 34.9873 31.5802 34.6173 31.6094 34.5703C31.6385 34.5231 38.191 34.4975 46.1705 34.5133L60.6787 34.542L60.9184 35.2786ZM41.3865 43.0284C40.974 40.539 42.7519 37.9839 45.2025 37.5443C46.7856 37.2603 48.4633 37.7921 49.57 38.9286C51.9012 41.3229 51.1556 45.2116 48.0902 46.6466C47.1254 47.0983 45.7209 47.2021 44.7732 46.8919C42.9584 46.298 41.6882 44.849 41.3865 43.0284Z" fill="#47A047"/>
<path d="M47.5189 39.7719C48.4845 40.2976 48.9823 41.1507 48.978 42.2727C48.9705 44.2486 47.1372 45.579 45.2155 45.003C44.5738 44.8107 43.7164 43.9995 43.468 43.3497C42.4959 40.8078 45.1372 38.475 47.5189 39.7719Z" fill="#96D696"/>
<path fill-rule="evenodd" clip-rule="evenodd" d="M65.5195 61.3913C65.5195 59.3142 65.5224 59.2899 65.7976 59.0146C66.0964 58.7157 66.5213 58.6582 66.9068 58.8647C67.0385 58.9352 69.7572 60.952 72.9484 63.3464C77.0196 66.4012 78.7896 67.7944 78.8817 68.017C79.1645 68.6998 79.1579 68.7064 73.1226 73.7395C69.969 76.3694 67.2272 78.6401 67.0299 78.7855C66.7443 78.9959 66.5889 79.0344 66.2685 78.9743C65.5499 78.8395 65.5195 78.7118 65.5195 75.8228V73.2417H57.6975L56.6105 73.2418C50.4216 73.243 49.4659 73.2432 49.214 72.8222C49.168 72.7454 49.1454 72.6544 49.1188 72.5469C49.1106 72.514 49.1021 72.4795 49.0924 72.4434C49.0119 72.1442 48.9812 70.6403 49.0032 68.0837L49.0371 64.1808L49.3511 63.8666L49.6653 63.5526L57.5923 63.5213L65.5195 63.4901V61.3913ZM76.3945 68.4248C76.3945 68.3952 74.4447 66.9099 72.0615 65.1241C69.6783 63.3381 67.6697 61.8311 67.5979 61.775C67.5009 61.6996 67.4571 62.0835 67.428 63.2622C67.3894 64.8242 67.3834 64.8563 67.0747 65.1651L66.7605 65.4791L58.8901 65.5104L51.0195 65.5418V68.4284V71.3152H58.8862H66.7529L67.0708 71.5885L67.3887 71.8618L67.4264 73.855C67.4471 74.9512 67.4863 75.8481 67.5135 75.8481C67.5879 75.8481 76.3945 68.4869 76.3945 68.4248ZM21.1222 64.0459C21.1894 63.9202 21.4061 63.745 21.6037 63.6565C21.8811 63.5323 22.4488 63.5022 24.0969 63.5242L26.231 63.5526L26.5041 63.8706L26.7773 64.1886V68.412V72.6355L26.485 72.9103C26.1953 73.1826 26.1723 73.185 23.8698 73.185H21.5468L21.2733 72.867L21 72.5491V68.4117C21 65.6688 21.0412 64.1973 21.1222 64.0459ZM31.7707 64.0459C31.8378 63.9202 32.0546 63.7471 32.2521 63.6612C32.5088 63.5494 33.1539 63.5035 34.5124 63.5004C36.5387 63.4956 37.0641 63.5983 37.3034 64.0456C37.3847 64.1974 37.4258 65.6647 37.4258 68.4117V72.5491L37.1524 72.867L36.879 73.185H34.5371H32.1952L31.9218 72.867L31.6484 72.5491V68.4117C31.6484 65.6688 31.6897 64.1973 31.7707 64.0459ZM41.3016 68.5379C41.2656 63.9311 41.2795 63.8308 41.9868 63.6179C42.1885 63.5571 43.2798 63.5177 44.4121 63.5301C46.42 63.552 46.4777 63.5594 46.7626 63.8273L47.0547 64.1021V68.3672C47.0547 72.4729 47.0462 72.6414 46.8286 72.8751C46.5099 73.2173 46.1285 73.2617 43.8556 73.221C41.9433 73.1867 41.8374 73.1729 41.5917 72.927C41.3343 72.6693 41.334 72.6641 41.3016 68.5379ZM24.8516 71.3152V68.4255V65.5358H23.8887H22.9258V68.4255V71.3152H23.8887H24.8516ZM35.5 71.3152V68.4255V65.5358H34.5371H33.5742V68.4255V71.3152H34.5371H35.5ZM45.1289 71.3152V68.4255V65.5358H44.166H43.2031V68.4255V71.3152H44.166H45.1289Z" fill="white"/>
<path fill-rule="evenodd" clip-rule="evenodd" d="M29.0776 21.2732C28.7602 21.5461 28.7598 21.5486 28.7232 23.1914L28.6867 24.8365L27.0551 24.873L26.8645 24.8772C25.8912 24.8981 25.4044 24.9086 25.1558 25.1571C24.9071 25.4058 24.8967 25.8927 24.8758 26.8666L24.8716 27.0573L24.8351 28.6895L23.1906 28.726C21.5484 28.7626 21.5459 28.763 21.2731 29.0806L21 29.3986V42.2051L21 42.5407C21 54.5368 21 55.259 21.3585 55.577C21.3814 55.5974 21.4059 55.6161 21.4319 55.636L21.4433 55.6447C21.5833 55.7523 27.0406 55.7836 46.1138 55.7864L70.6045 55.79L70.9224 55.5168C71.24 55.2438 71.2402 55.2421 71.2769 53.5903L71.3136 51.9371H72.8849C74.382 51.9371 74.4711 51.9241 74.7739 51.6638C75.0916 51.3908 75.0918 51.3891 75.1285 49.7374L75.1652 48.0841H76.7515H78.3378L78.6689 47.7528L79 47.4216V34.542V21.6625L78.6689 21.3312L78.3378 21H53.8666H29.3955L29.0776 21.2732ZM77.0742 46.1576V34.542V22.9265H53.8516H30.6289V23.8888V24.8513L52.6023 24.8804L74.5758 24.9096L74.8337 25.1678L75.0918 25.4258L75.1218 35.7918L75.152 46.1576H76.113H77.0742ZM73.2227 50.0106V38.395V26.7794H50H26.7773V27.7427V28.7059H48.5105C64.434 28.7059 70.3421 28.7403 70.6124 28.8346C70.6365 28.843 70.6598 28.8506 70.6822 28.858C70.7523 28.8811 70.8144 28.9015 70.8694 28.934C71.2977 29.1864 71.2976 30.1655 71.2969 38.764L71.2969 39.8646V50.0106H72.2598H73.2227ZM69.3721 53.8635L69.3433 42.2763L69.3145 30.6891L46.1201 30.6605L22.9258 30.6318V42.2477V53.8635H46.149H69.3721Z" fill="#47A047"/>
<path fill-rule="evenodd" clip-rule="evenodd" d="M30.4424 32.6373C30.0291 32.7182 29.8097 33.0886 29.6579 33.9619C29.4817 34.9756 29.0987 35.7617 28.5146 36.3093C27.7468 37.029 27.2406 37.2437 25.745 37.4838C25.5199 37.5199 25.2396 37.6558 25.122 37.7857C24.9221 38.0065 24.9061 38.2881 24.8757 42.1129C24.8536 44.9067 24.8828 46.2996 24.9681 46.5056C25.1276 46.8908 25.4141 47.033 26.3077 47.1709C27.2261 47.3127 27.8934 47.6379 28.5244 48.2514C29.183 48.8917 29.4694 49.4795 29.6317 50.524C29.7321 51.1695 29.8338 51.4507 30.0426 51.6595L30.32 51.9371H46.101H61.8818L62.1874 51.6741C62.4311 51.4644 62.5126 51.2643 62.5908 50.6826C62.8584 48.6892 64.1992 47.3741 66.2138 47.1289C66.6852 47.0716 66.9216 46.9767 67.1201 46.7655L67.3887 46.4797L67.4245 42.5507C67.4485 39.9135 67.4191 38.4822 67.3352 38.1974C67.1859 37.691 66.8506 37.4923 65.9796 37.3938C64.3018 37.204 62.819 35.7441 62.6227 34.0888C62.5198 33.2215 62.3539 32.8899 61.9353 32.7149C61.6238 32.5847 59.0033 32.5615 46.1237 32.5743C37.6327 32.5828 30.5761 32.6111 30.4424 32.6373ZM64.7266 39.0881C62.8436 38.4748 61.5317 37.1625 60.9184 35.2786L60.6787 34.542L46.1705 34.5133C38.191 34.4975 31.6385 34.5231 31.6094 34.5703C31.5802 34.6173 31.4458 34.9873 31.3104 35.3922C31.1751 35.7972 30.911 36.3694 30.7236 36.6637C29.9909 37.8141 28.3734 38.9753 27.2021 39.1917L26.7773 39.2702V42.2496V45.2289L27.5556 45.4654C28.4904 45.7494 29.5513 46.4338 30.1785 47.1573C30.6656 47.7191 31.3489 49.0272 31.4767 49.6423L31.5532 50.0106H46.1448H60.7365L60.8148 49.593C60.9388 48.9321 61.5613 47.7613 62.1191 47.1401C62.7893 46.3937 63.7943 45.7532 64.7521 45.4621L65.5233 45.2278L65.493 42.2779L65.4629 39.3279L64.7266 39.0881Z" fill="#96D696"/>
<path fill-rule="evenodd" clip-rule="evenodd" d="M45.2025 37.5443C42.7519 37.9839 40.974 40.539 41.3865 43.0284C41.6882 44.849 42.9584 46.298 44.7732 46.8919C45.7209 47.2021 47.1254 47.0983 48.0902 46.6466C51.1556 45.2116 51.9012 41.3229 49.57 38.9286C48.4633 37.7921 46.7856 37.2603 45.2025 37.5443ZM48.978 42.2727C48.9823 41.1507 48.4845 40.2976 47.5189 39.7719C45.1372 38.475 42.4959 40.8078 43.468 43.3497C43.7164 43.9995 44.5738 44.8107 45.2155 45.003C47.1372 45.579 48.9705 44.2486 48.978 42.2727Z" fill="#96D696"/>
<path d="M73.2227 38.395V50.0106H72.2598H71.2969V39.8646L71.2969 38.764C71.2976 30.1655 71.2977 29.1864 70.8694 28.934C70.8144 28.9015 70.7523 28.8811 70.6822 28.858C70.6598 28.8506 70.6365 28.843 70.6124 28.8346C70.3421 28.7403 64.434 28.7059 48.5105 28.7059H26.7773V27.7427V26.7794H50H73.2227V38.395Z" fill="#96D696"/>
<path d="M77.0742 34.542V46.1576H76.113H75.152L75.1218 35.7918L75.0918 25.4258L74.8337 25.1678L74.5758 24.9096L52.6023 24.8804L30.6289 24.8513V23.8888V22.9265H53.8516H77.0742V34.542Z" fill="#96D696"/>
</svg>
