<svg width="100" height="100" viewBox="0 0 100 100" fill="none" xmlns="http://www.w3.org/2000/svg">
<circle cx="50" cy="50" r="50" fill="#333333"/>
<path d="M42.4494 26.6627C42.4525 28.2819 43.077 29.7159 44.2427 30.7801C44.6328 31.1361 45.1433 31.5186 45.377 31.6299C45.6107 31.7412 45.802 31.8734 45.802 31.9234C45.802 31.9735 45.4635 32.3276 45.0499 32.7101C43.1976 34.4229 40.8724 35.485 38.4534 35.7231L37.5458 35.8124V35.1193C37.5459 33.0599 38.5788 30.1443 39.9599 28.3056C40.4739 27.6212 42.1904 25.8573 42.3423 25.8573C42.4004 25.8573 42.4485 26.2198 42.4494 26.6627Z" fill="#C97629"/>
<path d="M59.6476 23.3252C62.5597 24.1568 64.8611 26.4733 65.5981 29.3141C65.7078 29.7366 65.7974 30.1189 65.7974 30.1637C65.7974 30.2084 61.6033 30.229 56.477 30.2094L47.1565 30.174L46.576 29.8699C45.7897 29.458 45.3204 29 44.9582 28.291C43.8921 26.2042 45.0614 23.7017 47.3405 23.1929C47.8687 23.075 49.4976 23.0426 53.4776 23.0714C58.0653 23.1045 59.011 23.1434 59.6476 23.3252Z" fill="#C97629"/>
<path fill-rule="evenodd" clip-rule="evenodd" d="M46.705 21.1438C45.9079 21.3746 42.8386 22.9225 41.7384 23.6486C39.7142 24.9845 37.6451 27.4978 36.6264 29.858C35.6645 32.0865 35.3556 33.8725 35.3538 37.2137C35.72 37.436 36.6672 37.8805 37.5263 37.8805L38.6003 37.802C41.7579 37.5715 44.7698 36.0941 47.221 33.5734L48.4465 32.3131L55.5094 32.3066L62.5724 32.3001L64.7009 32.3645L66.0837 32.3001C67.8718 32.2167 67.9318 32.1646 67.9102 30.7161C67.8758 28.3968 66.8541 26.0272 65.1035 24.2057C63.7464 22.7936 62.2914 21.9106 60.3573 21.3258C59.446 21.05 59.1927 21.0386 53.3486 21.0078C48.6682 20.9832 47.1531 21.0141 46.705 21.1438ZM65.5981 29.3141C64.8611 26.4733 62.5597 24.1568 59.6476 23.3252C59.011 23.1434 58.0653 23.1045 53.4776 23.0714C49.4976 23.0426 47.8687 23.075 47.3405 23.1929C45.0614 23.7017 43.8921 26.2042 44.9582 28.291C45.3204 29 45.7897 29.458 46.576 29.8699L47.1565 30.174L56.477 30.2094C61.6033 30.229 65.7974 30.2084 65.7974 30.1637C65.7974 30.1189 65.7078 29.7366 65.5981 29.3141ZM44.2427 30.7801C43.077 29.7159 42.4525 28.2819 42.4494 26.6627C42.4485 26.2198 42.4004 25.8573 42.3423 25.8573C42.1904 25.8573 40.4739 27.6212 39.9599 28.3056C38.5788 30.1443 37.5459 33.0599 37.5458 35.1193V35.8124L38.4534 35.7231C40.8724 35.485 43.1976 34.4229 45.0499 32.7101C45.4635 32.3276 45.802 31.9735 45.802 31.9234C45.802 31.8734 45.6107 31.7412 45.377 31.6299C45.1433 31.5186 44.6328 31.1361 44.2427 30.7801Z" fill="#C97629"/>
<path d="M56.4447 60.6892L56.4819 59.509C56.5023 58.8598 56.4732 58.331 56.4174 58.3337C56.3614 58.3366 56.1125 58.4295 55.8642 58.5401C53.9806 59.3803 52.1052 59.7716 49.9946 59.7652C48.0065 59.7591 46.3616 59.4332 44.3507 58.6471C44.3426 58.6442 44.3346 58.6412 44.3265 58.6382C44.1447 58.5764 44.1258 58.701 44.1316 59.6357L44.1382 60.7125L46.4071 62.1943C47.6551 63.0093 49.0064 63.8888 49.4101 64.1486L50.1439 64.6208L53.2943 62.655L56.4447 60.6892Z" fill="#E7C48F"/>
<path d="M45.8987 64.3914L49.027 66.4541V72.0555V77.6569H38.5778H28.1286L28.1305 73.5658C28.1319 70.3533 28.1747 69.2947 28.3294 68.6371C28.918 66.1347 30.8176 63.9456 33.2887 62.9217C34.5582 62.3957 34.9867 62.3523 39.0293 62.3401L42.7704 62.3286L45.8987 64.3914Z" fill="white"/>
<path d="M63.4456 77.6569L62.2767 77.6569L57.3315 77.6569H51.2174L51.2509 72.0341L51.2846 66.4111L54.5097 64.3768L57.7347 62.3423L59.702 62.3327L61.6693 62.3232L61.8799 62.3402C65.8717 62.3527 66.302 62.3981 67.5658 62.9217C70.0369 63.9456 71.9365 66.1347 72.5251 68.6371C72.6798 69.2947 72.7226 70.3533 72.724 73.5658L72.7259 77.6569L63.4456 77.6569Z" fill="white"/>
<path d="M61.9103 48.9187C62.5235 47.057 62.572 46.3363 62.5722 39.0971L62.5724 32.3001L55.5094 32.3066L48.4465 32.3131L47.221 33.5734C44.7698 36.0941 41.7579 37.5715 38.6003 37.802L37.5263 37.8805L37.5756 42.5316C37.6247 47.1629 37.6264 47.1877 37.9775 48.3425C38.8723 51.286 40.4206 53.5296 42.7513 55.2602C43.9655 56.1616 45.2022 56.7732 46.7695 57.2467C47.8072 57.5603 48.143 57.5987 49.9301 57.6088C51.6399 57.6183 52.0873 57.577 53.0175 57.3231C57.1963 56.1825 60.5671 52.9968 61.9103 48.9187Z" fill="#FFDDA9"/>
<path d="M35.3527 43.0794C35.3527 44.4353 35.3496 44.4495 35.0996 44.2235C34.7636 43.9197 34.533 43.191 34.626 42.7263C34.7114 42.3001 35.0679 41.7065 35.2386 41.7065C35.3014 41.7065 35.3527 42.3243 35.3527 43.0794Z" fill="#FFDDA9"/>
<path d="M65.292 42.5761C65.4717 43.1201 65.2936 43.8583 64.8956 44.2181C64.6376 44.4513 64.6364 44.4462 64.6364 43.0594C64.6364 41.6835 64.6395 41.6693 64.8895 41.8953C65.0288 42.0212 65.21 42.3275 65.292 42.5761Z" fill="#FFDDA9"/>
<path fill-rule="evenodd" clip-rule="evenodd" d="M35.3538 37.2137L35.3527 39.2279L34.652 39.5704C32.4442 40.6493 31.8153 43.6138 33.4015 45.4648C33.8847 46.0285 34.6304 46.5464 35.1452 46.6753C35.4014 46.7396 35.4926 46.8628 35.5537 47.2281C35.9517 49.6025 36.9584 51.9318 38.4683 53.9715C39.1493 54.8916 41.0401 56.7511 41.6762 57.1265L42.0609 57.3534C42.496 57.6638 43.5518 58.3504 44.3265 58.6382L44.3507 58.6471C46.3616 59.4332 48.0065 59.7591 49.9946 59.7652C52.1052 59.7716 53.9806 59.3803 55.8642 58.5401C56.1125 58.4295 56.3614 58.3366 56.4174 58.3337C57.0073 57.9817 58.2643 57.2141 58.5733 56.9596L59.3457 56.3233C61.8422 54.2675 63.7191 51.0403 64.3834 47.662C64.5408 46.8615 64.5493 46.8498 65.1725 46.5819C66.0509 46.2045 66.9783 45.1622 67.2757 44.2181C67.8568 42.3724 66.9684 40.3518 65.213 39.5276L64.6322 39.2549L64.6666 35.8097L64.7009 32.3645L62.5724 32.3001L62.5722 39.0971C62.572 46.3363 62.5235 47.057 61.9103 48.9187C60.5671 52.9968 57.1963 56.1825 53.0175 57.3231C52.0873 57.577 51.6399 57.6183 49.9301 57.6088C48.143 57.5987 47.8072 57.5603 46.7695 57.2467C45.2022 56.7732 43.9655 56.1616 42.7513 55.2602C40.4206 53.5296 38.8723 51.286 37.9775 48.3425C37.6264 47.1877 37.6247 47.1629 37.5756 42.5316L37.5263 37.8805C36.6672 37.8805 35.72 37.436 35.3538 37.2137ZM35.0996 44.2235C35.3496 44.4495 35.3527 44.4353 35.3527 43.0794C35.3527 42.3243 35.3014 41.7065 35.2386 41.7065C35.0679 41.7065 34.7114 42.3001 34.626 42.7263C34.533 43.191 34.7636 43.9197 35.0996 44.2235ZM64.8956 44.2181C65.2936 43.8583 65.4717 43.1201 65.292 42.5761C65.21 42.3275 65.0288 42.0212 64.8895 41.8953C64.6395 41.6693 64.6364 41.6835 64.6364 43.0594C64.6364 44.4462 64.6376 44.4513 64.8956 44.2181Z" fill="#FFDDA9"/>
<path d="M42.0609 57.3534V58.7274V60.1012L50.1439 64.6208L49.4101 64.1486C49.0064 63.8888 47.6551 63.0093 46.4071 62.1943L44.1382 60.7125L44.1316 59.6357C44.1258 58.701 44.1447 58.5764 44.3265 58.6382C43.5518 58.3504 42.496 57.6638 42.0609 57.3534Z" fill="#E7C48F"/>
<path d="M58.5733 60.1327V58.5461V56.9596C58.2643 57.2141 57.0073 57.9817 56.4174 58.3337C56.4732 58.331 56.5023 58.8598 56.4819 59.509L56.4447 60.6892L53.2943 62.655L50.1439 64.6208L58.5733 60.1327Z" fill="#E7C48F"/>
<path fill-rule="evenodd" clip-rule="evenodd" d="M42.0609 60.1012L38.481 60.1658C34.3527 60.24 33.6539 60.3622 31.6761 61.355C29.6608 62.3665 28.1465 63.8893 27.1035 65.9528C26.0549 68.0272 26 68.4349 26 74.1425V79.0681L26.3577 79.4255L26.7153 79.783L45.9475 79.8169L65.1796 79.8508L74.1392 79.783L74.4968 79.4255L74.8545 79.0681V74.1425C74.8545 68.4349 74.7995 68.0272 73.751 65.9528C72.708 63.8893 71.1936 62.3665 69.1784 61.355C67.2006 60.3621 66.5018 60.24 62.3734 60.1658L60.1213 60.1327H58.5733L50.1439 64.6208L42.0609 60.1012ZM49.027 66.4541L45.8987 64.3914L42.7704 62.3286L39.0293 62.3401C34.9867 62.3523 34.5582 62.3957 33.2887 62.9217C30.8176 63.9456 28.918 66.1347 28.3294 68.6371C28.1747 69.2947 28.1319 70.3533 28.1305 73.5658L28.1286 77.6569H38.5778H49.027V72.0555V66.4541ZM62.2767 77.6569L63.4456 77.6569L72.7259 77.6569L72.724 73.5658C72.7226 70.3533 72.6798 69.2947 72.5251 68.6371C71.9365 66.1347 70.0369 63.9456 67.5658 62.9217C66.302 62.3981 65.8717 62.3527 61.8799 62.3402L61.6693 62.3232L59.702 62.3327L57.7347 62.3423L54.5097 64.3768L51.2846 66.4111L51.2509 72.0341L51.2174 77.6569H57.3315L62.2767 77.6569Z" fill="white"/>
</svg>
