<svg width="112" height="112" viewBox="0 0 112 112" fill="none" xmlns="http://www.w3.org/2000/svg">
<circle cx="56" cy="56" r="56" fill="#333333"/>
<path d="M88.9507 39.5354C89.1909 39.7065 89.428 40.056 89.5141 40.3665C89.7329 41.154 89.6991 51.597 89.4758 52.2344C89.3809 52.5052 89.1406 52.845 88.9419 52.9894C88.7034 53.1628 84.2065 54.2295 75.7173 56.126L62.854 58.9999L62.7513 58.1244C62.6108 56.9281 62.405 56.4992 61.8433 56.2327C61.1282 55.8933 50.8494 55.8933 50.1342 56.2327C49.5726 56.4992 49.3668 56.9281 49.2263 58.1244L49.1235 58.9999L36.2603 56.126C27.7711 54.2295 23.2741 53.1628 23.0357 52.9894C22.8369 52.845 22.5967 52.5052 22.5017 52.2344C22.2838 51.6123 22.2428 41.1496 22.4554 40.3954C22.5337 40.1177 22.7775 39.7446 22.9974 39.5661L23.397 39.2416L55.9665 39.2409H55.9684C88.5339 39.2401 88.5359 39.2401 88.9507 39.5354Z" fill="#C97629"/>
<path d="M49.2197 65.3642C49.1926 63.7148 49.1542 62.3651 49.1341 62.3651C48.7597 62.3651 30.4362 58.1926 24.0474 56.6758V71.9829C24.0519 72.7042 24.0559 73.383 24.0597 74.0217C24.1116 82.748 24.1191 84.0076 24.6662 84.3188C24.7585 84.3713 24.8661 84.3968 24.9919 84.4266C25.0465 84.4396 25.1045 84.4533 25.1662 84.4705C25.9303 84.6826 86.0532 84.6811 86.8176 84.4687C87.1869 84.3663 87.4593 84.1649 87.6481 83.8553C87.92 83.4093 87.9292 83.033 87.9296 72.2475V56.676C81.5403 58.1929 63.2178 62.3651 62.8435 62.3651C62.8234 62.3651 62.7849 63.7148 62.7579 65.3642C62.704 68.6544 62.6611 68.8322 61.8218 69.2304C61.1438 69.5521 50.8338 69.5521 50.1558 69.2304C49.3165 68.8322 49.2736 68.6544 49.2197 65.3642Z" fill="#B06328"/>
<path d="M46.1037 24.2845C44.5529 24.7103 43.18 26.1085 42.7588 27.6909C42.4761 28.7534 42.4806 31.0316 42.7666 31.5848V35.8263L45.8766 35.824V30.0123C45.93 29.1121 46.0499 28.3412 46.1657 28.1561C46.6057 27.4532 46.498 27.4608 55.9888 27.4608C65.4796 27.4608 65.3719 27.4532 65.8119 28.1561C65.9276 28.3412 66.0476 29.1121 66.1009 30.0123V35.83L69.2109 35.8319V31.5848C69.4972 31.0311 69.5013 28.753 69.218 27.6881C68.7882 26.0729 67.4205 24.7061 65.8036 24.2758C64.6958 23.981 47.1809 23.9886 46.1037 24.2845Z" fill="#9BA7AF"/>
<path d="M23.2445 35.9135C21.5918 36.159 20.1731 37.2291 19.4469 38.7782L19.061 39.6015L19.0177 45.8751C18.9763 51.8706 18.9876 52.1923 19.2731 53.1322C19.5198 53.9442 20.0831 54.7751 20.7568 55.3874L24.0474 56.6758C30.4362 58.1926 48.7597 62.3651 49.1341 62.3651L49.1235 58.9999L36.2603 56.126C27.7711 54.2295 23.2741 53.1628 23.0357 52.9894C22.8369 52.845 22.5967 52.5052 22.5017 52.2344C22.2838 51.6123 22.2428 41.1496 22.4554 40.3954C22.5337 40.1177 22.7775 39.7446 22.9974 39.5661L23.397 39.2416L55.9665 39.2409H55.9684C88.5339 39.2401 88.5359 39.2401 88.9507 39.5354C89.1909 39.7065 89.428 40.056 89.5141 40.3665C89.7329 41.154 89.6991 51.597 89.4758 52.2344C89.3809 52.5052 89.1406 52.845 88.9419 52.9894C88.7034 53.1628 84.2065 54.2295 75.7173 56.126L62.854 58.9999L62.8435 62.3651C63.2178 62.3651 81.5403 58.1929 87.9296 56.676L91.2208 55.3874C91.8944 54.7751 92.4578 53.9442 92.7045 53.1322C92.9899 52.1923 93.0012 51.8706 92.9599 45.8751L92.9165 39.6015L92.5257 38.7675C92.013 37.6736 90.9119 36.6098 89.847 36.1798L89.0142 35.8437L69.2109 35.8319L66.1009 35.83L56.4947 35.8243C52.796 35.8221 49.2224 35.8221 45.8766 35.824L42.7666 35.8263C31.5388 35.837 23.5369 35.87 23.2445 35.9135Z" fill="#C97629"/>
<path d="M20.7568 72.3635L20.7954 84.2616L21.1781 85.0779C21.3886 85.5268 21.8343 86.1677 22.1685 86.5018C22.5026 86.836 23.1435 87.2817 23.5924 87.4922L24.4087 87.8749H55.9888H87.5689L88.3852 87.4922C89.4246 87.0048 90.3121 86.1174 90.7994 85.0779L91.1822 84.2616L91.2208 72.3635V62.1618V55.3874L87.9296 56.676V72.2475C87.9292 83.033 87.92 83.4093 87.6481 83.8553C87.4593 84.1649 87.1869 84.3663 86.8176 84.4687C86.0532 84.6811 25.9303 84.6826 25.1662 84.4705C25.1045 84.4533 25.0465 84.4396 24.9919 84.4266C24.8661 84.3968 24.7585 84.3713 24.6662 84.3188C24.1191 84.0076 24.1116 82.748 24.0597 74.0217C24.0559 73.383 24.0519 72.7042 24.0474 71.9829V56.6758L20.7568 55.3874V62.1467V72.3635Z" fill="#B06328"/>
<path d="M59.313 62.7265V66.1229H55.9888H52.6646V62.7265V59.33H55.9888H59.313V62.7265Z" fill="#FFC000"/>
<path fill-rule="evenodd" clip-rule="evenodd" d="M49.1341 62.3651C49.1542 62.3651 49.1926 63.7148 49.2197 65.3642C49.2736 68.6544 49.3165 68.8322 50.1558 69.2304C50.8338 69.5521 61.1438 69.5521 61.8218 69.2304C62.6611 68.8322 62.704 68.6544 62.7579 65.3642C62.7849 63.7148 62.8234 62.3651 62.8435 62.3651L62.854 58.9999L62.7513 58.1244C62.6108 56.9281 62.405 56.4992 61.8433 56.2327C61.1282 55.8933 50.8494 55.8933 50.1342 56.2327C49.5726 56.4992 49.3668 56.9281 49.2263 58.1244L49.1235 58.9999L49.1341 62.3651ZM59.313 66.1229V62.7265V59.33H55.9888H52.6646V62.7265V66.1229H55.9888H59.313Z" fill="#FFC000"/>
</svg>
