<svg width="112" height="112" viewBox="0 0 112 112" fill="none" xmlns="http://www.w3.org/2000/svg">
<circle cx="56" cy="56" r="56" fill="#333333"/>
<path d="M32.0644 47.7695C31.284 48.5499 31.4542 49.9013 32.4035 50.462C32.7999 50.6961 33.4204 50.7352 36.7453 50.7352C41.1093 50.7352 41.4325 50.6663 41.8597 49.6438C42.1593 48.9267 41.9395 48.1137 41.3126 47.6206C40.9161 47.3088 40.6546 47.2899 36.718 47.2899H32.5439L32.0644 47.7695Z" fill="#495059"/>
<path d="M35.9077 52.7328C34.9577 53.1927 34.7978 54.7354 35.6201 55.5078L36.0409 55.9032H40.2802H44.5194L44.9402 55.5078C45.7835 54.7155 45.5979 53.1758 44.6047 52.7233C44.0782 52.4834 36.4057 52.4918 35.9077 52.7328Z" fill="#495059"/>
<path d="M35.9077 42.2328C34.9577 42.6927 34.7978 44.2354 35.6201 45.0078L36.0409 45.4032H40.2802H44.5194L44.9402 45.0078C45.7835 44.2155 45.5979 42.6758 44.6047 42.2233C44.0782 41.9834 36.4057 41.9918 35.9077 42.2328Z" fill="#495059"/>
<path fill-rule="evenodd" clip-rule="evenodd" d="M43.1312 28.1663C41.8092 28.7416 41.7064 30.5375 42.9545 31.2515C43.1832 31.3822 44.2754 31.4879 45.9365 31.5399L48.5578 31.6219L49.4973 39.0868C50.014 43.1924 50.4402 46.7414 50.4445 46.9736C50.4507 47.3234 50.3129 47.4584 49.6389 47.7629C48.604 48.2306 47.2928 49.6473 46.9421 50.6766C46.7972 51.1019 46.6786 51.9158 46.6786 52.4852C46.6786 54.9329 48.2432 56.953 50.6044 57.5543C51.3096 57.7338 51.3495 57.7735 51.2723 58.2187C51.0788 59.3365 51.2269 60.8268 51.6131 61.6453C53.2317 65.0757 57.8129 65.7397 60.3076 62.9055C61.2731 61.8087 61.6611 60.6165 61.5589 59.0614L61.4752 57.7899H63.0009H64.5265L64.366 58.4871C63.8338 60.7976 65.3186 63.482 67.6063 64.345C69.6577 65.1187 71.9921 64.542 73.4326 62.9055C74.3963 61.8107 74.7861 60.6158 74.6844 59.0687L74.6012 57.8048L75.1722 57.6163C75.7931 57.4114 76.3723 56.6406 76.3733 56.018C76.3744 55.3834 75.8911 54.6599 75.3019 54.4136C74.8373 54.2195 72.7918 54.1805 63.0978 54.1805C54.8661 54.1805 51.3339 54.1267 51.0494 53.9971C50.0562 53.5446 49.8706 52.0049 50.7137 51.2126L51.1344 50.8172L61.3343 50.7352C61.9132 50.7305 62.4607 50.7263 62.9785 50.7223C70.6716 50.6627 71.8266 50.6537 72.5364 50.0871C72.6618 49.987 72.7733 49.8695 72.9045 49.7313C72.9544 49.6786 73.0072 49.623 73.0648 49.5641C73.516 49.1028 73.8633 48.204 75.494 43.2769C76.8858 39.0727 77.398 37.3073 77.4011 36.7062C77.4086 35.1798 76.2856 33.7319 74.8048 33.359C74.329 33.2392 70.5029 33.1805 63.1762 33.1805C57.1705 33.1805 52.2567 33.1205 52.2567 33.047C52.2567 32.9736 52.1458 32.0692 52.0103 31.0372C51.7524 29.0726 51.517 28.5247 50.7644 28.138C50.1848 27.8401 43.8265 27.8637 43.1312 28.1663ZM72.2177 42.0399C73.146 39.1975 73.9072 36.8534 73.9092 36.8309C73.9113 36.8084 69.1528 36.7899 63.335 36.7899H52.7571L52.8362 37.2411C52.8797 37.4891 53.1788 39.7958 53.5008 42.3668C53.8229 44.9379 54.0993 47.0523 54.1149 47.0656C54.1306 47.0789 57.8304 47.1163 62.3366 47.1488L70.5298 47.2078L72.2177 42.0399ZM57.8017 60.4149C58.3113 59.6608 58.2047 58.8674 57.5098 58.2411C56.5537 57.3792 55.0812 57.7961 54.7362 59.0264C54.2089 60.9074 56.705 62.0379 57.8017 60.4149ZM70.9267 60.4149C71.4363 59.6608 71.3297 58.8674 70.6348 58.2411C69.6787 57.3792 68.2062 57.7961 67.8612 59.0264C67.3339 60.9074 69.83 62.0379 70.9267 60.4149Z" fill="#495059"/>
<path fill-rule="evenodd" clip-rule="evenodd" d="M85.2807 22.9245C86.9784 23.3666 88.0296 24.2668 88.8279 25.9618L89.2528 26.8641L89.2748 37.6318L89.2968 48.3996L89.3407 69.9349L72.2343 69.8918L55.1278 69.8485L54.3895 69.4821C53.9835 69.2807 53.0736 68.7133 52.3676 68.2216C51.6617 67.7298 50.6281 67.1575 50.0707 66.9497L49.0575 66.572L35.8882 66.5229L22.7191 66.474L22.7632 46.6691L22.8075 26.8641L23.2675 25.8797C23.5205 25.3383 23.9635 24.6487 24.2519 24.3475C24.8427 23.7302 26.0287 23.0756 26.9494 22.8587C27.2927 22.7778 40.1335 22.7061 55.9547 22.6969C80.5884 22.6827 84.4679 22.7128 85.2807 22.9245ZM42.9545 31.2515C41.7064 30.5375 41.8092 28.7416 43.1312 28.1663C43.8265 27.8637 50.1848 27.8401 50.7644 28.138C51.517 28.5247 51.7524 29.0726 52.0103 31.0372C52.1458 32.0692 52.2567 32.9736 52.2567 33.047C52.2567 33.1205 57.1705 33.1805 63.1762 33.1805C70.5029 33.1805 74.329 33.2392 74.8048 33.359C76.2856 33.7319 77.4086 35.1798 77.4011 36.7062C77.398 37.3073 76.8858 39.0727 75.494 43.2769C73.8633 48.204 73.516 49.1028 73.0648 49.5641C73.0072 49.623 72.9544 49.6786 72.9045 49.7313C72.7733 49.8695 72.6618 49.987 72.5364 50.0871C71.8266 50.6537 70.6716 50.6627 62.9785 50.7223C62.4607 50.7263 61.9132 50.7305 61.3343 50.7352L51.1344 50.8172L50.7137 51.2126C49.8706 52.0049 50.0562 53.5446 51.0494 53.9971C51.3339 54.1267 54.8661 54.1805 63.0978 54.1805C72.7918 54.1805 74.8373 54.2195 75.3019 54.4136C75.8911 54.6599 76.3744 55.3834 76.3733 56.018C76.3723 56.6406 75.7931 57.4114 75.1722 57.6163L74.6012 57.8048L74.6844 59.0687C74.7861 60.6158 74.3963 61.8107 73.4326 62.9055C71.9921 64.542 69.6577 65.1187 67.6063 64.345C65.3186 63.482 63.8338 60.7976 64.366 58.4871L64.5265 57.7899H63.0009H61.4752L61.5589 59.0614C61.6611 60.6165 61.2731 61.8087 60.3076 62.9055C57.8129 65.7397 53.2317 65.0757 51.6131 61.6453C51.2269 60.8268 51.0788 59.3365 51.2723 58.2187C51.3495 57.7735 51.3096 57.7338 50.6044 57.5543C48.2432 56.953 46.6786 54.9329 46.6786 52.4852C46.6786 51.9158 46.7972 51.1019 46.9421 50.6766C47.2928 49.6473 48.604 48.2306 49.6389 47.7629C50.3129 47.4584 50.4507 47.3234 50.4445 46.9736C50.4402 46.7414 50.014 43.1924 49.4973 39.0868L48.5578 31.6219L45.9365 31.5399C44.2754 31.4879 43.1832 31.3822 42.9545 31.2515ZM35.6201 45.0078C34.7978 44.2354 34.9577 42.6927 35.9077 42.2328C36.4057 41.9918 44.0782 41.9834 44.6047 42.2233C45.5979 42.6758 45.7835 44.2155 44.9402 45.0078L44.5194 45.4032H40.2802H36.0409L35.6201 45.0078ZM32.4035 50.462C31.4542 49.9013 31.284 48.5499 32.0644 47.7695L32.5439 47.2899H36.718C40.6546 47.2899 40.9161 47.3088 41.3126 47.6206C41.9395 48.1137 42.1593 48.9267 41.8597 49.6438C41.4325 50.6663 41.1093 50.7352 36.7453 50.7352C33.4204 50.7352 32.7999 50.6961 32.4035 50.462ZM35.6201 55.5078C34.7978 54.7354 34.9577 53.1927 35.9077 52.7328C36.4057 52.4918 44.0782 52.4834 44.6047 52.7233C45.5979 53.1758 45.7835 54.7155 44.9402 55.5078L44.5194 55.9032H40.2802H36.0409L35.6201 55.5078Z" fill="#FFDC37"/>
<path d="M73.9092 36.8309C73.9072 36.8534 73.146 39.1975 72.2177 42.0399L70.5298 47.2078L62.3366 47.1488C57.8304 47.1163 54.1306 47.0789 54.1149 47.0656C54.0993 47.0523 53.8229 44.9379 53.5008 42.3668C53.1788 39.7958 52.8797 37.4891 52.8362 37.2411L52.7571 36.7899H63.335C69.1528 36.7899 73.9113 36.8084 73.9092 36.8309Z" fill="white"/>
<path d="M57.5098 58.2411C58.2047 58.8674 58.3113 59.6608 57.8017 60.4149C56.705 62.0379 54.2089 60.9074 54.7362 59.0264C55.0812 57.7961 56.5537 57.3792 57.5098 58.2411Z" fill="#FFDC37"/>
<path d="M70.6348 58.2411C71.3297 58.8674 71.4363 59.6608 70.9267 60.4149C69.83 62.0379 67.3339 60.9074 67.8612 59.0264C68.2062 57.7961 69.6787 57.3792 70.6348 58.2411Z" fill="#FFDC37"/>
<path d="M26.0513 19.471C22.9282 20.2278 20.2603 22.8905 19.5328 25.977C19.2589 27.1388 19.1831 52.4624 19.3091 66.474H22.7191L22.7632 46.6691L22.8075 26.8641L23.2675 25.8797C23.5205 25.3383 23.9635 24.6487 24.2519 24.3475C24.8427 23.7302 26.0287 23.0756 26.9494 22.8587C27.2927 22.7778 40.1335 22.7061 55.9547 22.6969C80.5884 22.6827 84.4679 22.7128 85.2807 22.9245C86.9784 23.3666 88.0296 24.2668 88.8279 25.9618L89.2528 26.8641L89.2748 37.6318L89.2968 48.3996L89.3407 69.9349H92.7465C92.7825 66.8416 92.7818 62.2352 92.7806 55.2252V55.2111C92.7804 53.8874 92.7802 52.478 92.7802 50.977C92.7802 34.8189 92.7242 27.0264 92.6036 26.3611C92.0135 23.1053 89.2805 20.2524 86.0142 19.4823C85.128 19.2733 81.0057 19.2416 55.9481 19.2516C33.1047 19.2606 26.7261 19.3074 26.0513 19.471Z" fill="#495059"/>
<path d="M38.4755 82.2352V85.7625V89.2899H35.5097H32.5439L32.0644 89.7694C31.284 90.5499 31.4542 91.9013 32.4035 92.462C32.8291 92.7134 34.7125 92.7352 56.0302 92.7352C77.3478 92.7352 79.2312 92.7134 79.6568 92.462C80.6061 91.9013 80.7763 90.5499 79.9959 89.7694L79.5164 89.2899H76.5506H73.5848V85.7625V82.2352H69.9755V85.6805V89.1258H56.0302H42.0848V85.6805V82.2352H38.4755Z" fill="#EBECEC"/>
<path fill-rule="evenodd" clip-rule="evenodd" d="M19.5276 75.5691C20.34 78.6883 22.8219 81.174 25.9332 81.9845C26.7089 82.1865 28.0207 82.2352 32.6857 82.2352H38.4755H42.0848H56.0302H69.9755H73.5848H79.3746C85.6618 82.2352 86.1566 82.1809 87.9905 81.2905C89.325 80.6426 90.9748 79.026 91.6895 77.6659C91.7479 77.5548 91.8031 77.4537 91.8554 77.3584L91.8778 77.3178C91.9618 77.1649 92.038 77.0262 92.1072 76.8841C92.5282 76.0191 92.6872 75.0265 92.7465 69.9349H89.3407L72.2343 69.8918L55.1278 69.8485L54.3895 69.4821C53.9835 69.2807 53.0736 68.7133 52.3676 68.2216C51.6617 67.7298 50.6281 67.1575 50.0707 66.9497L49.0575 66.572L35.8882 66.5229L22.7191 66.474H19.3091C19.3551 71.5817 19.4278 75.1862 19.5276 75.5691ZM51.4659 71.7875C50.7729 71.3044 49.7999 70.7073 49.3036 70.4607L48.4012 70.0125L35.631 69.9658L22.8605 69.919L22.9161 72.5088C22.9699 75.0199 22.9862 75.1249 23.4549 75.9711C23.9947 76.9455 24.6916 77.6219 25.7242 78.1736L26.4169 78.5438H56.0302H85.6434L86.3361 78.1736C87.298 77.6596 88.0644 76.9175 88.5523 76.0606C88.8532 75.5323 89.0482 74.9603 89.118 74.3712L89.2152 73.5501L81.8589 73.5302L72.0896 73.5039L54.9638 73.4578L53.8448 73.0618C53.2294 72.8441 52.1589 72.2705 51.4659 71.7875Z" fill="#EBECEC"/>
<path d="M49.3036 70.4607C49.7999 70.7073 50.7729 71.3044 51.4659 71.7875C52.1589 72.2705 53.2294 72.8441 53.8448 73.0618L54.9638 73.4578L72.0896 73.5039L81.8589 73.5302L89.2152 73.5501L89.118 74.3712C89.0482 74.9603 88.8532 75.5323 88.5523 76.0606C88.0644 76.9175 87.298 77.6596 86.3361 78.1736L85.6434 78.5438H56.0302H26.4169L25.7242 78.1736C24.6916 77.6219 23.9947 76.9455 23.4549 75.9711C22.9862 75.1249 22.9699 75.0199 22.9161 72.5088L22.8605 69.919L35.631 69.9658L48.4012 70.0125L49.3036 70.4607Z" fill="#EBECEC"/>
</svg>
