<svg width="149" height="36" viewBox="0 0 149 36" fill="none" xmlns="http://www.w3.org/2000/svg">
<path d="M7.9978 16.0447H3.74072V13.3596H7.9978C8.65568 13.3596 9.19116 13.2525 9.60425 13.0383C10.0173 12.8165 10.3195 12.5105 10.5107 12.1204C10.702 11.7302 10.7976 11.2904 10.7976 10.8008C10.7976 10.3035 10.702 9.84074 10.5107 9.41235C10.3195 8.98397 10.0173 8.63973 9.60425 8.37964C9.19116 8.11955 8.65568 7.9895 7.9978 7.9895H4.93408V22H1.4917V5.29297H7.9978C9.30591 5.29297 10.4266 5.53011 11.3599 6.00439C12.3008 6.47103 13.0199 7.11743 13.5171 7.9436C14.0143 8.76978 14.2629 9.71452 14.2629 10.7778C14.2629 11.8564 14.0143 12.7897 13.5171 13.5776C13.0199 14.3656 12.3008 14.9737 11.3599 15.4021C10.4266 15.8305 9.30591 16.0447 7.9978 16.0447ZM30.5968 13.2563V14.0481C30.5968 15.318 30.4247 16.4578 30.0805 17.4675C29.7362 18.4773 29.2505 19.3379 28.6232 20.0493C27.9959 20.7531 27.2462 21.2924 26.3742 21.6672C25.5097 22.0421 24.5497 22.2295 23.494 22.2295C22.446 22.2295 21.486 22.0421 20.6139 21.6672C19.7495 21.2924 18.9998 20.7531 18.3649 20.0493C17.73 19.3379 17.2365 18.4773 16.8847 17.4675C16.5404 16.4578 16.3683 15.318 16.3683 14.0481V13.2563C16.3683 11.9788 16.5404 10.839 16.8847 9.83691C17.2289 8.82715 17.7147 7.96655 18.3419 7.25513C18.9769 6.5437 19.7265 6.00057 20.591 5.62573C21.463 5.2509 22.4231 5.06348 23.4711 5.06348C24.5267 5.06348 25.4868 5.2509 26.3512 5.62573C27.2233 6.00057 27.973 6.5437 28.6002 7.25513C29.2352 7.96655 29.7247 8.82715 30.069 9.83691C30.4209 10.839 30.5968 11.9788 30.5968 13.2563ZM27.12 14.0481V13.2334C27.12 12.346 27.0397 11.5658 26.879 10.8926C26.7184 10.2194 26.4813 9.65332 26.1676 9.19434C25.854 8.73535 25.4715 8.39111 25.0202 8.16162C24.5688 7.92448 24.0525 7.80591 23.4711 7.80591C22.8897 7.80591 22.3733 7.92448 21.922 8.16162C21.4783 8.39111 21.0997 8.73535 20.786 9.19434C20.48 9.65332 20.2467 10.2194 20.0861 10.8926C19.9254 11.5658 19.8451 12.346 19.8451 13.2334V14.0481C19.8451 14.9278 19.9254 15.7081 20.0861 16.3889C20.2467 17.0621 20.4839 17.632 20.7975 18.0986C21.1111 18.5576 21.4936 18.9057 21.945 19.1428C22.3963 19.38 22.9127 19.4985 23.494 19.4985C24.0754 19.4985 24.5918 19.38 25.0431 19.1428C25.4944 18.9057 25.8731 18.5576 26.1791 18.0986C26.4851 17.632 26.7184 17.0621 26.879 16.3889C27.0397 15.7081 27.12 14.9278 27.12 14.0481ZM42.9949 16.4578H46.4258C46.357 17.5823 46.0471 18.5806 45.4964 19.4526C44.9532 20.3247 44.1921 21.0055 43.2129 21.4951C42.2414 21.9847 41.071 22.2295 39.7017 22.2295C38.6307 22.2295 37.6707 22.0459 36.8216 21.6787C35.9724 21.3039 35.2457 20.7684 34.6414 20.0723C34.0447 19.3761 33.5895 18.5347 33.2759 17.5479C32.9623 16.561 32.8054 15.4556 32.8054 14.2317V13.0728C32.8054 11.8488 32.9661 10.7434 33.2874 9.75659C33.6163 8.76213 34.083 7.91683 34.6873 7.2207C35.2993 6.52458 36.0298 5.9891 36.8789 5.61426C37.7281 5.23942 38.6766 5.052 39.7246 5.052C41.1169 5.052 42.2911 5.30444 43.2473 5.80933C44.2112 6.31421 44.9571 7.01034 45.4849 7.89771C46.0204 8.78507 46.3417 9.79484 46.4488 10.927H43.0064C42.9681 10.2538 42.8343 9.68392 42.6048 9.21729C42.3753 8.743 42.0272 8.38729 41.5606 8.15015C41.1016 7.90535 40.4896 7.78296 39.7246 7.78296C39.1509 7.78296 38.6498 7.89006 38.2215 8.10425C37.7931 8.31844 37.4335 8.64355 37.1429 9.07959C36.8522 9.51562 36.6341 10.0664 36.4888 10.7319C36.3511 11.3898 36.2823 12.1624 36.2823 13.0498V14.2317C36.2823 15.0961 36.3473 15.8573 36.4773 16.5151C36.6074 17.1654 36.8063 17.7161 37.074 18.1675C37.3494 18.6112 37.7013 18.9478 38.1297 19.1772C38.5657 19.3991 39.0897 19.51 39.7017 19.51C40.4208 19.51 41.0136 19.3953 41.4803 19.1658C41.9469 18.9363 42.3026 18.5959 42.5474 18.1445C42.7998 17.6932 42.949 17.1309 42.9949 16.4578Z" fill="#0278CB" fill-opacity="0.8"/>
<path d="M7.9978 16.0447H3.74072V13.3596H7.9978C8.65568 13.3596 9.19116 13.2525 9.60425 13.0383C10.0173 12.8165 10.3195 12.5105 10.5107 12.1204C10.702 11.7302 10.7976 11.2904 10.7976 10.8008C10.7976 10.3035 10.702 9.84074 10.5107 9.41235C10.3195 8.98397 10.0173 8.63973 9.60425 8.37964C9.19116 8.11955 8.65568 7.9895 7.9978 7.9895H4.93408V22H1.4917V5.29297H7.9978C9.30591 5.29297 10.4266 5.53011 11.3599 6.00439C12.3008 6.47103 13.0199 7.11743 13.5171 7.9436C14.0143 8.76978 14.2629 9.71452 14.2629 10.7778C14.2629 11.8564 14.0143 12.7897 13.5171 13.5776C13.0199 14.3656 12.3008 14.9737 11.3599 15.4021C10.4266 15.8305 9.30591 16.0447 7.9978 16.0447ZM30.5968 13.2563V14.0481C30.5968 15.318 30.4247 16.4578 30.0805 17.4675C29.7362 18.4773 29.2505 19.3379 28.6232 20.0493C27.9959 20.7531 27.2462 21.2924 26.3742 21.6672C25.5097 22.0421 24.5497 22.2295 23.494 22.2295C22.446 22.2295 21.486 22.0421 20.6139 21.6672C19.7495 21.2924 18.9998 20.7531 18.3649 20.0493C17.73 19.3379 17.2365 18.4773 16.8847 17.4675C16.5404 16.4578 16.3683 15.318 16.3683 14.0481V13.2563C16.3683 11.9788 16.5404 10.839 16.8847 9.83691C17.2289 8.82715 17.7147 7.96655 18.3419 7.25513C18.9769 6.5437 19.7265 6.00057 20.591 5.62573C21.463 5.2509 22.4231 5.06348 23.4711 5.06348C24.5267 5.06348 25.4868 5.2509 26.3512 5.62573C27.2233 6.00057 27.973 6.5437 28.6002 7.25513C29.2352 7.96655 29.7247 8.82715 30.069 9.83691C30.4209 10.839 30.5968 11.9788 30.5968 13.2563ZM27.12 14.0481V13.2334C27.12 12.346 27.0397 11.5658 26.879 10.8926C26.7184 10.2194 26.4813 9.65332 26.1676 9.19434C25.854 8.73535 25.4715 8.39111 25.0202 8.16162C24.5688 7.92448 24.0525 7.80591 23.4711 7.80591C22.8897 7.80591 22.3733 7.92448 21.922 8.16162C21.4783 8.39111 21.0997 8.73535 20.786 9.19434C20.48 9.65332 20.2467 10.2194 20.0861 10.8926C19.9254 11.5658 19.8451 12.346 19.8451 13.2334V14.0481C19.8451 14.9278 19.9254 15.7081 20.0861 16.3889C20.2467 17.0621 20.4839 17.632 20.7975 18.0986C21.1111 18.5576 21.4936 18.9057 21.945 19.1428C22.3963 19.38 22.9127 19.4985 23.494 19.4985C24.0754 19.4985 24.5918 19.38 25.0431 19.1428C25.4944 18.9057 25.8731 18.5576 26.1791 18.0986C26.4851 17.632 26.7184 17.0621 26.879 16.3889C27.0397 15.7081 27.12 14.9278 27.12 14.0481ZM42.9949 16.4578H46.4258C46.357 17.5823 46.0471 18.5806 45.4964 19.4526C44.9532 20.3247 44.1921 21.0055 43.2129 21.4951C42.2414 21.9847 41.071 22.2295 39.7017 22.2295C38.6307 22.2295 37.6707 22.0459 36.8216 21.6787C35.9724 21.3039 35.2457 20.7684 34.6414 20.0723C34.0447 19.3761 33.5895 18.5347 33.2759 17.5479C32.9623 16.561 32.8054 15.4556 32.8054 14.2317V13.0728C32.8054 11.8488 32.9661 10.7434 33.2874 9.75659C33.6163 8.76213 34.083 7.91683 34.6873 7.2207C35.2993 6.52458 36.0298 5.9891 36.8789 5.61426C37.7281 5.23942 38.6766 5.052 39.7246 5.052C41.1169 5.052 42.2911 5.30444 43.2473 5.80933C44.2112 6.31421 44.9571 7.01034 45.4849 7.89771C46.0204 8.78507 46.3417 9.79484 46.4488 10.927H43.0064C42.9681 10.2538 42.8343 9.68392 42.6048 9.21729C42.3753 8.743 42.0272 8.38729 41.5606 8.15015C41.1016 7.90535 40.4896 7.78296 39.7246 7.78296C39.1509 7.78296 38.6498 7.89006 38.2215 8.10425C37.7931 8.31844 37.4335 8.64355 37.1429 9.07959C36.8522 9.51562 36.6341 10.0664 36.4888 10.7319C36.3511 11.3898 36.2823 12.1624 36.2823 13.0498V14.2317C36.2823 15.0961 36.3473 15.8573 36.4773 16.5151C36.6074 17.1654 36.8063 17.7161 37.074 18.1675C37.3494 18.6112 37.7013 18.9478 38.1297 19.1772C38.5657 19.3991 39.0897 19.51 39.7017 19.51C40.4208 19.51 41.0136 19.3953 41.4803 19.1658C41.9469 18.9363 42.3026 18.5959 42.5474 18.1445C42.7998 17.6932 42.949 17.1309 42.9949 16.4578Z" fill="#EF0000"/>
<path d="M52.2375 16.584L58.9501 5.29297H62.3925V22H58.9501V10.709L52.2375 22H48.7951V5.29297H52.2375V16.584ZM67.1829 5.29297H70.0975L74.389 17.5593L78.6805 5.29297H81.595L75.5594 22H73.2186L67.1829 5.29297ZM65.6109 5.29297H68.514L69.0418 17.2495V22H65.6109V5.29297ZM80.264 5.29297H83.1785V22H79.7361V17.2495L80.264 5.29297ZM100.04 5.29297V22H96.5979V7.9895H89.8852V22H86.4428V5.29297H100.04ZM117.005 13.2563V14.0481C117.005 15.318 116.833 16.4578 116.489 17.4675C116.145 18.4773 115.659 19.3379 115.032 20.0493C114.404 20.7531 113.655 21.2924 112.783 21.6672C111.918 22.0421 110.958 22.2295 109.902 22.2295C108.854 22.2295 107.894 22.0421 107.022 21.6672C106.158 21.2924 105.408 20.7531 104.773 20.0493C104.138 19.3379 103.645 18.4773 103.293 17.4675C102.949 16.4578 102.777 15.318 102.777 14.0481V13.2563C102.777 11.9788 102.949 10.839 103.293 9.83691C103.637 8.82715 104.123 7.96655 104.75 7.25513C105.385 6.5437 106.135 6.00057 106.999 5.62573C107.871 5.2509 108.831 5.06348 109.879 5.06348C110.935 5.06348 111.895 5.2509 112.76 5.62573C113.632 6.00057 114.381 6.5437 115.009 7.25513C115.644 7.96655 116.133 8.82715 116.477 9.83691C116.829 10.839 117.005 11.9788 117.005 13.2563ZM113.528 14.0481V13.2334C113.528 12.346 113.448 11.5658 113.287 10.8926C113.127 10.2194 112.89 9.65332 112.576 9.19434C112.262 8.73535 111.88 8.39111 111.429 8.16162C110.977 7.92448 110.461 7.80591 109.879 7.80591C109.298 7.80591 108.782 7.92448 108.33 8.16162C107.887 8.39111 107.508 8.73535 107.194 9.19434C106.888 9.65332 106.655 10.2194 106.494 10.8926C106.334 11.5658 106.254 12.346 106.254 13.2334V14.0481C106.254 14.9278 106.334 15.7081 106.494 16.3889C106.655 17.0621 106.892 17.632 107.206 18.0986C107.52 18.5576 107.902 18.9057 108.353 19.1428C108.805 19.38 109.321 19.4985 109.902 19.4985C110.484 19.4985 111 19.38 111.452 19.1428C111.903 18.9057 112.282 18.5576 112.587 18.0986C112.893 17.632 113.127 17.0621 113.287 16.3889C113.448 15.7081 113.528 14.9278 113.528 14.0481ZM126.225 16.0447H121.968V13.3596H126.225C126.883 13.3596 127.418 13.2525 127.831 13.0383C128.244 12.8165 128.547 12.5105 128.738 12.1204C128.929 11.7302 129.025 11.2904 129.025 10.8008C129.025 10.3035 128.929 9.84074 128.738 9.41235C128.547 8.98397 128.244 8.63973 127.831 8.37964C127.418 8.11955 126.883 7.9895 126.225 7.9895H123.161V22H119.719V5.29297H126.225C127.533 5.29297 128.654 5.53011 129.587 6.00439C130.528 6.47103 131.247 7.11743 131.744 7.9436C132.241 8.76978 132.49 9.71452 132.49 10.7778C132.49 11.8564 132.241 12.7897 131.744 13.5776C131.247 14.3656 130.528 14.9737 129.587 15.4021C128.654 15.8305 127.533 16.0447 126.225 16.0447ZM142.57 5.29297V22H139.139V5.29297H142.57ZM147.711 5.29297V7.9895H134.079V5.29297H147.711Z" fill="#0278CB" fill-opacity="0.8"/>
<path d="M3.21484 34L1.57031 29.2305H1.53516C1.54297 29.3372 1.55208 29.4831 1.5625 29.668C1.57292 29.8529 1.58203 30.0508 1.58984 30.2617C1.59766 30.4727 1.60156 30.6745 1.60156 30.8672V34H0.75V28.2891H2.06641L3.64844 32.8477H3.67188L5.30859 28.2891H6.62109V34H5.72656V30.8203C5.72656 30.6458 5.72917 30.457 5.73438 30.2539C5.74219 30.0508 5.75 29.8581 5.75781 29.6758C5.76823 29.4935 5.77604 29.3477 5.78125 29.2383H5.75L4.04297 34H3.21484ZM11.1914 34H7.957V28.2891H11.1914V29.0781H8.8945V30.6289H11.0468V31.4141H8.8945V33.207H11.1914V34ZM13.6913 31.0469L11.6171 28.2891H12.6093L14.6327 31.0547V28.2891H15.5195V31.0547L17.5429 28.2891H18.539L16.4609 31.043L18.6327 34H17.6015L15.5195 31.1055V34H14.6327V31.1055L12.5468 34H11.5156L13.6913 31.0469ZM23.371 28.2891V33.1992H24.1015V35.5781H23.1991V34H19.4257V35.5781H18.5233V33.1992H18.9648C19.1366 32.8841 19.2994 32.5404 19.453 32.168C19.6067 31.793 19.7473 31.3971 19.8749 30.9805C20.0025 30.5638 20.1106 30.1302 20.1991 29.6797C20.2903 29.2266 20.358 28.763 20.4023 28.2891H23.371ZM22.4374 29.0898H21.1757C21.1444 29.3893 21.0911 29.7174 21.0155 30.0742C20.9426 30.4284 20.8515 30.7904 20.7421 31.1602C20.6327 31.5299 20.5103 31.8893 20.3749 32.2383C20.2421 32.5872 20.1015 32.9076 19.953 33.1992H22.4374V29.0898ZM29.2342 28.2891L27.4178 32.3789C27.259 32.7435 27.0923 33.0521 26.9178 33.3047C26.746 33.5573 26.5337 33.75 26.2811 33.8828C26.0285 34.013 25.7017 34.0781 25.3007 34.0781C25.1548 34.0781 25.009 34.0677 24.8632 34.0469C24.7173 34.026 24.5832 33.9974 24.4608 33.9609V33.1094C24.578 33.1589 24.7043 33.1966 24.8397 33.2227C24.9777 33.2461 25.1145 33.2578 25.2499 33.2578C25.44 33.2578 25.5975 33.2279 25.7225 33.168C25.8501 33.1081 25.9569 33.0195 26.0428 32.9023C26.1314 32.7826 26.2108 32.6367 26.2811 32.4648L24.1913 28.2891H25.1952L26.5428 31.1211C26.5637 31.1654 26.5897 31.2227 26.621 31.293C26.6522 31.3607 26.6822 31.431 26.7108 31.5039C26.7421 31.5742 26.7681 31.6393 26.7889 31.6992H26.8241C26.8423 31.6471 26.8645 31.5859 26.8905 31.5156C26.9191 31.4427 26.9478 31.3685 26.9764 31.293C27.0077 31.2174 27.035 31.151 27.0585 31.0938L28.2538 28.2891H29.2342ZM34.3202 34H33.3866V31.4219H30.7537V34H29.8162V28.2891H30.7537V30.625H33.3866V28.2891H34.3202V34ZM39.2029 34L38.6443 32.4141H36.4608L35.9022 34H34.9139L37.0389 28.2656H38.0779L40.199 34H39.2029ZM38.4022 31.6094L37.8592 30.0469C37.8384 29.9792 37.8084 29.8841 37.7693 29.7617C37.7303 29.6367 37.6912 29.5104 37.6522 29.3828C37.6131 29.2526 37.5805 29.1432 37.5545 29.0547C37.5285 29.1615 37.4959 29.2812 37.4568 29.4141C37.4204 29.5443 37.3839 29.6667 37.3475 29.7812C37.3136 29.8958 37.2876 29.9844 37.2693 30.0469L36.7225 31.6094H38.4022ZM42.4451 28.2891C43.1821 28.2891 43.7198 28.4401 44.0584 28.7422C44.3969 29.0443 44.5662 29.4674 44.5662 30.0117C44.5662 30.2591 44.5271 30.4948 44.449 30.7188C44.3735 30.9401 44.2485 31.1367 44.074 31.3086C43.8995 31.4779 43.6691 31.612 43.3826 31.7109C43.0987 31.8099 42.7485 31.8594 42.3318 31.8594H41.7224V34H40.7849V28.2891H42.4451ZM42.3826 29.0664H41.7224V31.0781H42.2342C42.5284 31.0781 42.7784 31.0443 42.9842 30.9766C43.1899 30.9062 43.3461 30.7956 43.4529 30.6445C43.5597 30.4935 43.6131 30.2943 43.6131 30.0469C43.6131 29.7161 43.5128 29.4701 43.3123 29.3086C43.1144 29.1471 42.8045 29.0664 42.3826 29.0664ZM50.6091 31.1367C50.6091 31.5768 50.5531 31.9779 50.4412 32.3398C50.3318 32.6992 50.1664 33.0091 49.9451 33.2695C49.7237 33.5273 49.4464 33.7266 49.113 33.8672C48.7797 34.0078 48.3891 34.0781 47.9412 34.0781C47.4854 34.0781 47.0896 34.0078 46.7537 33.8672C46.4203 33.7266 46.143 33.526 45.9216 33.2656C45.7029 33.0052 45.5388 32.694 45.4294 32.332C45.3201 31.9701 45.2654 31.569 45.2654 31.1289C45.2654 30.5404 45.3617 30.0273 45.5544 29.5898C45.7497 29.1497 46.0453 28.8086 46.4412 28.5664C46.8396 28.3216 47.3422 28.1992 47.949 28.1992C48.5427 28.1992 49.0362 28.3203 49.4294 28.5625C49.8227 28.8047 50.1169 29.1458 50.3122 29.5859C50.5102 30.0234 50.6091 30.5404 50.6091 31.1367ZM46.2497 31.1367C46.2497 31.5768 46.3096 31.9583 46.4294 32.2812C46.5492 32.6016 46.7328 32.849 46.9802 33.0234C47.2302 33.1953 47.5505 33.2812 47.9412 33.2812C48.3344 33.2812 48.6547 33.1953 48.9021 33.0234C49.1495 32.849 49.3318 32.6016 49.449 32.2812C49.5662 31.9583 49.6247 31.5768 49.6247 31.1367C49.6247 30.4674 49.4906 29.944 49.2224 29.5664C48.9568 29.1862 48.5323 28.9961 47.949 28.9961C47.5583 28.9961 47.2367 29.082 46.9841 29.2539C46.7341 29.4258 46.5492 29.6719 46.4294 29.9922C46.3096 30.3099 46.2497 30.6914 46.2497 31.1367ZM55.8083 28.2891V33.1992H56.5388V35.5781H55.6364V34H51.863V35.5781H50.9607V33.1992H51.4021C51.5739 32.8841 51.7367 32.5404 51.8903 32.168C52.044 31.793 52.1846 31.3971 52.3122 30.9805C52.4398 30.5638 52.5479 30.1302 52.6364 29.6797C52.7276 29.2266 52.7953 28.763 52.8396 28.2891H55.8083ZM54.8747 29.0898H53.613C53.5817 29.3893 53.5284 29.7174 53.4528 30.0742C53.3799 30.4284 53.2888 30.7904 53.1794 31.1602C53.07 31.5299 52.9476 31.8893 52.8122 32.2383C52.6794 32.5872 52.5388 32.9076 52.3903 33.1992H54.8747V29.0898ZM61.8005 34H60.8669V31.4219H58.2341V34H57.2966V28.2891H58.2341V30.625H60.8669V28.2891H61.8005V34ZM63.1442 34V28.2891H64.0817V30.5977H64.734C65.2575 30.5977 65.6793 30.6706 65.9997 30.8164C66.3226 30.9596 66.5583 31.1576 66.7067 31.4102C66.8551 31.6628 66.9293 31.9505 66.9293 32.2734C66.9293 32.8099 66.7549 33.2318 66.4059 33.5391C66.0596 33.8464 65.5114 34 64.7614 34H63.1442ZM64.0817 33.2188H64.7106C65.1247 33.2188 65.4385 33.1445 65.652 32.9961C65.8655 32.8451 65.9723 32.6042 65.9723 32.2734C65.9723 32.0417 65.9215 31.862 65.82 31.7344C65.721 31.6068 65.5713 31.5169 65.3708 31.4648C65.1728 31.4128 64.9267 31.3867 64.6325 31.3867H64.0817V33.2188ZM67.7106 34V28.2891H68.6481V34H67.7106ZM73.2262 34H69.9918V28.2891H73.2262V29.0781H70.9293V30.6289H73.0817V31.4141H70.9293V33.207H73.2262V34ZM79.6128 28.2891V29.0859H77.1402V34H76.2027V28.2891H79.6128ZM82.023 28.2891C82.76 28.2891 83.2977 28.4401 83.6363 28.7422C83.9748 29.0443 84.1441 29.4674 84.1441 30.0117C84.1441 30.2591 84.105 30.4948 84.0269 30.7188C83.9514 30.9401 83.8264 31.1367 83.6519 31.3086C83.4774 31.4779 83.2469 31.612 82.9605 31.7109C82.6766 31.8099 82.3264 31.8594 81.9097 31.8594H81.3003V34H80.3628V28.2891H82.023ZM81.9605 29.0664H81.3003V31.0781H81.812C82.1063 31.0781 82.3563 31.0443 82.562 30.9766C82.7678 30.9062 82.924 30.7956 83.0308 30.6445C83.1376 30.4935 83.1909 30.2943 83.1909 30.0469C83.1909 29.7161 83.0907 29.4701 82.8902 29.3086C82.6922 29.1471 82.3823 29.0664 81.9605 29.0664ZM89.4917 28.2891L87.6753 32.3789C87.5164 32.7435 87.3498 33.0521 87.1753 33.3047C87.0034 33.5573 86.7912 33.75 86.5386 33.8828C86.286 34.013 85.9591 34.0781 85.5581 34.0781C85.4123 34.0781 85.2664 34.0677 85.1206 34.0469C84.9748 34.026 84.8406 33.9974 84.7182 33.9609V33.1094C84.8354 33.1589 84.9617 33.1966 85.0972 33.2227C85.2352 33.2461 85.3719 33.2578 85.5073 33.2578C85.6974 33.2578 85.855 33.2279 85.98 33.168C86.1076 33.1081 86.2143 33.0195 86.3003 32.9023C86.3888 32.7826 86.4682 32.6367 86.5386 32.4648L84.4487 28.2891H85.4526L86.8003 31.1211C86.8211 31.1654 86.8472 31.2227 86.8784 31.293C86.9097 31.3607 86.9396 31.431 86.9682 31.5039C86.9995 31.5742 87.0255 31.6393 87.0464 31.6992H87.0815C87.0998 31.6471 87.1219 31.5859 87.1479 31.5156C87.1766 31.4427 87.2052 31.3685 87.2339 31.293C87.2651 31.2174 87.2925 31.151 87.3159 31.0938L88.5112 28.2891H89.4917ZM93.7143 29.625C93.7143 30.0104 93.5854 30.319 93.3276 30.5508C93.0724 30.7799 92.739 30.9258 92.3276 30.9883V31.0156C92.8224 31.0755 93.2013 31.224 93.4643 31.4609C93.7273 31.6953 93.8588 32.0026 93.8588 32.3828C93.8588 32.7161 93.7716 33.0104 93.5971 33.2656C93.4226 33.5208 93.1622 33.7201 92.8159 33.8633C92.4695 34.0065 92.0398 34.0781 91.5268 34.0781C91.1544 34.0781 90.8146 34.0521 90.5073 34C90.2 33.9505 89.9265 33.8724 89.687 33.7656V32.9531C89.851 33.0312 90.0307 33.099 90.226 33.1562C90.4239 33.2109 90.6245 33.2539 90.8276 33.2852C91.0333 33.3138 91.226 33.3281 91.4057 33.3281C91.9161 33.3281 92.295 33.2422 92.5424 33.0703C92.7898 32.8984 92.9135 32.6549 92.9135 32.3398C92.9135 32.0169 92.7534 31.7812 92.4331 31.6328C92.1127 31.4844 91.6739 31.4102 91.1167 31.4102H90.437V30.6602H91.0737C91.4877 30.6602 91.8198 30.6237 92.0698 30.5508C92.3198 30.4779 92.5008 30.3737 92.6127 30.2383C92.7247 30.1029 92.7807 29.9414 92.7807 29.7539C92.7807 29.5065 92.6818 29.3138 92.4838 29.1758C92.2885 29.0352 92.0177 28.9648 91.6713 28.9648C91.3432 28.9648 91.0555 29.0091 90.8081 29.0977C90.5607 29.1862 90.325 29.3021 90.101 29.4453L89.6752 28.8164C89.8497 28.6966 90.0398 28.5911 90.2456 28.5C90.4539 28.4089 90.6831 28.3372 90.9331 28.2852C91.1831 28.2331 91.4578 28.207 91.7573 28.207C92.1739 28.207 92.5268 28.2682 92.8159 28.3906C93.1075 28.5104 93.3302 28.6771 93.4838 28.8906C93.6375 29.1042 93.7143 29.349 93.7143 29.625ZM99.9057 31.1367C99.9057 31.5768 99.8497 31.9779 99.7377 32.3398C99.6283 32.6992 99.463 33.0091 99.2416 33.2695C99.0203 33.5273 98.7429 33.7266 98.4096 33.8672C98.0763 34.0078 97.6856 34.0781 97.2377 34.0781C96.782 34.0781 96.3862 34.0078 96.0502 33.8672C95.7169 33.7266 95.4395 33.526 95.2182 33.2656C94.9994 33.0052 94.8354 32.694 94.726 32.332C94.6166 31.9701 94.5619 31.569 94.5619 31.1289C94.5619 30.5404 94.6583 30.0273 94.851 29.5898C95.0463 29.1497 95.3419 28.8086 95.7377 28.5664C96.1362 28.3216 96.6388 28.1992 97.2455 28.1992C97.8393 28.1992 98.3328 28.3203 98.726 28.5625C99.1192 28.8047 99.4135 29.1458 99.6088 29.5859C99.8067 30.0234 99.9057 30.5404 99.9057 31.1367ZM95.5463 31.1367C95.5463 31.5768 95.6062 31.9583 95.726 32.2812C95.8458 32.6016 96.0294 32.849 96.2768 33.0234C96.5268 33.1953 96.8471 33.2812 97.2377 33.2812C97.6309 33.2812 97.9513 33.1953 98.1987 33.0234C98.4461 32.849 98.6283 32.6016 98.7455 32.2812C98.8627 31.9583 98.9213 31.5768 98.9213 31.1367C98.9213 30.4674 98.7872 29.944 98.519 29.5664C98.2533 29.1862 97.8289 28.9961 97.2455 28.9961C96.8549 28.9961 96.5333 29.082 96.2807 29.2539C96.0307 29.4258 95.8458 29.6719 95.726 29.9922C95.6062 30.3099 95.5463 30.6914 95.5463 31.1367ZM100.964 34V28.2891H105.351V34H104.421V29.0859H101.902V34H100.964ZM109.929 34H106.695V28.2891H109.929V29.0781H107.632V30.6289H109.785V31.4141H107.632V33.207H109.929V34ZM112.656 28.2891C113.393 28.2891 113.93 28.4401 114.269 28.7422C114.607 29.0443 114.777 29.4674 114.777 30.0117C114.777 30.2591 114.738 30.4948 114.66 30.7188C114.584 30.9401 114.459 31.1367 114.285 31.3086C114.11 31.4779 113.88 31.612 113.593 31.7109C113.309 31.8099 112.959 31.8594 112.542 31.8594H111.933V34H110.995V28.2891H112.656ZM112.593 29.0664H111.933V31.0781H112.445C112.739 31.0781 112.989 31.0443 113.195 30.9766C113.4 30.9062 113.557 30.7956 113.663 30.6445C113.77 30.4935 113.824 30.2943 113.824 30.0469C113.824 29.7161 113.723 29.4701 113.523 29.3086C113.325 29.1471 113.015 29.0664 112.593 29.0664ZM118.984 34H115.749V28.2891H118.984V29.0781H116.687V30.6289H118.839V31.4141H116.687V33.207H118.984V34ZM120.05 28.2891H121.749C122.486 28.2891 123.042 28.3958 123.417 28.6094C123.792 28.8229 123.98 29.1914 123.98 29.7148C123.98 29.9336 123.941 30.1315 123.863 30.3086C123.787 30.4831 123.676 30.6276 123.531 30.7422C123.385 30.8542 123.205 30.9297 122.991 30.9688V31.0078C123.213 31.0469 123.409 31.1159 123.581 31.2148C123.756 31.3138 123.893 31.4557 123.991 31.6406C124.093 31.8255 124.144 32.0651 124.144 32.3594C124.144 32.7083 124.06 33.0052 123.894 33.25C123.73 33.4948 123.494 33.681 123.187 33.8086C122.882 33.9362 122.52 34 122.101 34H120.05V28.2891ZM120.988 30.6445H121.886C122.31 30.6445 122.605 30.5755 122.769 30.4375C122.933 30.2995 123.015 30.0977 123.015 29.832C123.015 29.5612 122.917 29.3659 122.722 29.2461C122.529 29.1263 122.222 29.0664 121.8 29.0664H120.988V30.6445ZM120.988 31.4023V33.2148H121.976C122.413 33.2148 122.721 33.1302 122.898 32.9609C123.075 32.7917 123.163 32.5625 123.163 32.2734C123.163 32.0964 123.123 31.9427 123.042 31.8125C122.964 31.6823 122.835 31.582 122.656 31.5117C122.476 31.4388 122.234 31.4023 121.929 31.4023H120.988ZM130.226 31.1367C130.226 31.5768 130.17 31.9779 130.058 32.3398C129.948 32.6992 129.783 33.0091 129.562 33.2695C129.34 33.5273 129.063 33.7266 128.73 33.8672C128.396 34.0078 128.006 34.0781 127.558 34.0781C127.102 34.0781 126.706 34.0078 126.37 33.8672C126.037 33.7266 125.76 33.526 125.538 33.2656C125.32 33.0052 125.156 32.694 125.046 32.332C124.937 31.9701 124.882 31.569 124.882 31.1289C124.882 30.5404 124.978 30.0273 125.171 29.5898C125.366 29.1497 125.662 28.8086 126.058 28.5664C126.456 28.3216 126.959 28.1992 127.566 28.1992C128.159 28.1992 128.653 28.3203 129.046 28.5625C129.439 28.8047 129.734 29.1458 129.929 29.5859C130.127 30.0234 130.226 30.5404 130.226 31.1367ZM125.866 31.1367C125.866 31.5768 125.926 31.9583 126.046 32.2812C126.166 32.6016 126.35 32.849 126.597 33.0234C126.847 33.1953 127.167 33.2812 127.558 33.2812C127.951 33.2812 128.271 33.1953 128.519 33.0234C128.766 32.849 128.948 32.6016 129.066 32.2812C129.183 31.9583 129.241 31.5768 129.241 31.1367C129.241 30.4674 129.107 29.944 128.839 29.5664C128.573 29.1862 128.149 28.9961 127.566 28.9961C127.175 28.9961 126.853 29.082 126.601 29.2539C126.351 29.4258 126.166 29.6719 126.046 29.9922C125.926 30.3099 125.866 30.6914 125.866 31.1367ZM134.925 29.625C134.925 30.0104 134.796 30.319 134.538 30.5508C134.283 30.7799 133.95 30.9258 133.538 30.9883V31.0156C134.033 31.0755 134.412 31.224 134.675 31.4609C134.938 31.6953 135.07 32.0026 135.07 32.3828C135.07 32.7161 134.982 33.0104 134.808 33.2656C134.633 33.5208 134.373 33.7201 134.027 33.8633C133.68 34.0065 133.251 34.0781 132.738 34.0781C132.365 34.0781 132.025 34.0521 131.718 34C131.411 33.9505 131.137 33.8724 130.898 33.7656V32.9531C131.062 33.0312 131.241 33.099 131.437 33.1562C131.635 33.2109 131.835 33.2539 132.038 33.2852C132.244 33.3138 132.437 33.3281 132.616 33.3281C133.127 33.3281 133.506 33.2422 133.753 33.0703C134.001 32.8984 134.124 32.6549 134.124 32.3398C134.124 32.0169 133.964 31.7812 133.644 31.6328C133.323 31.4844 132.885 31.4102 132.327 31.4102H131.648V30.6602H132.284C132.698 30.6602 133.03 30.6237 133.28 30.5508C133.53 30.4779 133.711 30.3737 133.823 30.2383C133.935 30.1029 133.991 29.9414 133.991 29.7539C133.991 29.5065 133.892 29.3138 133.695 29.1758C133.499 29.0352 133.228 28.9648 132.882 28.9648C132.554 28.9648 132.266 29.0091 132.019 29.0977C131.771 29.1862 131.536 29.3021 131.312 29.4453L130.886 28.8164C131.06 28.6966 131.251 28.5911 131.456 28.5C131.665 28.4089 131.894 28.3372 132.144 28.2852C132.394 28.2331 132.668 28.207 132.968 28.207C133.385 28.207 133.738 28.2682 134.027 28.3906C134.318 28.5104 134.541 28.6771 134.695 28.8906C134.848 29.1042 134.925 29.349 134.925 29.625ZM140.421 34H139.331L136.984 31.1016V34H136.046V28.2891H136.984V31.0547L139.288 28.2891H140.312L138.007 31.0469L140.421 34ZM141.015 28.2891H141.87V31.3164C141.87 31.4466 141.869 31.5898 141.866 31.7461C141.864 31.9023 141.859 32.0547 141.851 32.2031C141.846 32.3516 141.84 32.4844 141.835 32.6016C141.83 32.7161 141.825 32.7995 141.819 32.8516H141.847L144.753 28.2891H145.843V34H144.995V30.9961C144.995 30.8555 144.998 30.7031 145.003 30.5391C145.008 30.375 145.015 30.2161 145.023 30.0625C145.03 29.9089 145.038 29.7734 145.046 29.6562C145.054 29.5391 145.059 29.4557 145.062 29.4062H145.027L142.112 34H141.015V28.2891Z" fill="#4B4B4B"/>
</svg>
